# Blender 3.5.0
# www.blender.org
mtllib CannonExplosion.mtl
o 球
v 0.000000 0.831470 -0.555570
v 0.000000 0.555570 -0.831470
v 0.000000 0.195090 -0.980785
v 0.000000 -0.000000 -1.000000
v 0.000000 -0.195090 -0.980785
v 0.000000 -0.555570 -0.831470
v 0.038060 0.980785 -0.191342
v 0.074658 0.923880 -0.375330
v 0.108386 0.831470 -0.544895
v 0.137950 0.707107 -0.693520
v 0.162212 0.555570 -0.815493
v 0.180240 0.382683 -0.906127
v 0.191342 0.195090 -0.961940
v 0.195090 -0.000000 -0.980785
v 0.191342 -0.195090 -0.961940
v 0.180240 -0.382683 -0.906127
v 0.162212 -0.555570 -0.815493
v 0.137950 -0.707107 -0.693520
v 0.108386 -0.831470 -0.544895
v 0.074658 -0.923880 -0.375330
v 0.038060 -0.980785 -0.191342
v 0.074658 0.980785 -0.180240
v 0.146447 0.923880 -0.353553
v 0.212608 0.831470 -0.513280
v 0.270598 0.707107 -0.653281
v 0.318190 0.555570 -0.768178
v 0.353553 0.382683 -0.853553
v 0.375330 0.195090 -0.906127
v 0.382683 -0.000000 -0.923879
v 0.375330 -0.195090 -0.906127
v 0.353553 -0.382683 -0.853553
v 0.318190 -0.555570 -0.768178
v 0.270598 -0.707107 -0.653281
v 0.212608 -0.831470 -0.513280
v 0.146447 -0.923880 -0.353553
v 0.074658 -0.980785 -0.180240
v 0.108386 0.980785 -0.162212
v 0.212608 0.923880 -0.318190
v 0.308658 0.831470 -0.461940
v 0.392847 0.707107 -0.587938
v 0.461940 0.555570 -0.691342
v 0.513280 0.382683 -0.768178
v 0.544895 0.195090 -0.815493
v 0.555570 -0.000000 -0.831469
v 0.544895 -0.195090 -0.815493
v 0.513280 -0.382683 -0.768178
v 0.461940 -0.555570 -0.691342
v 0.392847 -0.707107 -0.587938
v 0.308658 -0.831470 -0.461940
v 0.212608 -0.923880 -0.318190
v 0.108386 -0.980785 -0.162212
v 0.137950 0.980785 -0.137950
v 0.270598 0.923880 -0.270598
v 0.392847 0.831470 -0.392847
v 0.500000 0.707107 -0.500000
v 0.587938 0.555570 -0.587938
v 0.653281 0.382683 -0.653281
v 0.693520 0.195090 -0.693520
v 0.707107 -0.000000 -0.707107
v 0.693520 -0.195090 -0.693520
v 0.653281 -0.382683 -0.653281
v 0.587938 -0.555570 -0.587938
v 0.500000 -0.707107 -0.500000
v 0.392847 -0.831470 -0.392847
v 0.270598 -0.923880 -0.270598
v 0.137950 -0.980785 -0.137950
v 0.162212 0.980785 -0.108386
v 0.318190 0.923880 -0.212608
v 0.461940 0.831470 -0.308658
v 0.587938 0.707107 -0.392847
v 0.691342 0.555570 -0.461940
v 0.768178 0.382683 -0.513280
v 0.815493 0.195090 -0.544895
v 0.831470 -0.000000 -0.555570
v 0.815493 -0.195090 -0.544895
v 0.768178 -0.382683 -0.513280
v 0.691342 -0.555570 -0.461940
v 0.587938 -0.707107 -0.392847
v 0.461940 -0.831470 -0.308658
v 0.318190 -0.923880 -0.212608
v 0.162212 -0.980785 -0.108386
v 0.000000 1.000000 -0.000000
v 0.180240 0.980785 -0.074658
v 0.353553 0.923880 -0.146447
v 0.513280 0.831470 -0.212607
v 0.653281 0.707107 -0.270598
v 0.768178 0.555570 -0.318190
v 0.853553 0.382683 -0.353553
v 0.906127 0.195090 -0.375330
v 0.923879 -0.000000 -0.382683
v 0.906127 -0.195090 -0.375330
v 0.853553 -0.382683 -0.353553
v 0.768178 -0.555570 -0.318190
v 0.653281 -0.707107 -0.270598
v 0.513280 -0.831470 -0.212607
v 0.353553 -0.923880 -0.146447
v 0.180240 -0.980785 -0.074658
v 0.191342 0.980785 -0.038060
v 0.375330 0.923880 -0.074658
v 0.544895 0.831470 -0.108386
v 0.693520 0.707107 -0.137950
v 0.815493 0.555570 -0.162212
v 0.906127 0.382683 -0.180240
v 0.961940 0.195090 -0.191342
v 0.980785 -0.000000 -0.195090
v 0.961940 -0.195090 -0.191342
v 0.906127 -0.382683 -0.180240
v 0.815493 -0.555570 -0.162212
v 0.693520 -0.707107 -0.137950
v 0.544895 -0.831470 -0.108386
v 0.375330 -0.923880 -0.074658
v 0.191342 -0.980785 -0.038060
v 0.195090 0.980785 -0.000000
v 0.382683 0.923880 -0.000000
v 0.555570 0.831470 -0.000000
v 0.707107 0.707107 -0.000000
v 0.831469 0.555570 -0.000000
v 0.923879 0.382683 -0.000000
v 0.980785 0.195090 -0.000000
v 1.000000 0.000000 0.000000
v 0.980785 -0.195090 0.000000
v 0.923879 -0.382683 0.000000
v 0.831469 -0.555570 0.000000
v 0.707107 -0.707107 0.000000
v 0.555570 -0.831470 0.000000
v 0.382683 -0.923880 0.000000
v 0.195090 -0.980785 0.000000
v 0.191342 0.980785 0.038060
v 0.375330 0.923880 0.074658
v 0.544895 0.831470 0.108386
v 0.693520 0.707107 0.137950
v 0.815493 0.555570 0.162212
v 0.906127 0.382683 0.180240
v 0.961940 0.195090 0.191342
v 0.980785 0.000000 0.195090
v 0.961940 -0.195090 0.191342
v 0.906127 -0.382683 0.180240
v 0.815493 -0.555570 0.162212
v 0.693520 -0.707107 0.137950
v 0.544895 -0.831470 0.108386
v 0.375330 -0.923880 0.074658
v 0.191342 -0.980785 0.038060
v 0.180240 0.980785 0.074658
v 0.353553 0.923880 0.146447
v 0.513280 0.831470 0.212608
v 0.653281 0.707107 0.270598
v 0.768178 0.555570 0.318190
v 0.853553 0.382683 0.353553
v 0.906127 0.195090 0.375330
v 0.923879 0.000000 0.382683
v 0.906127 -0.195090 0.375330
v 0.853553 -0.382683 0.353553
v 0.768178 -0.555570 0.318190
v 0.653281 -0.707107 0.270598
v 0.513280 -0.831470 0.212608
v 0.353553 -0.923880 0.146447
v 0.180240 -0.980785 0.074658
v 0.162212 0.980785 0.108386
v 0.318190 0.923880 0.212608
v 0.461940 0.831470 0.308658
v 0.587938 0.707107 0.392847
v 0.691341 0.555570 0.461940
v 0.768178 0.382683 0.513280
v 0.815493 0.195090 0.544895
v 0.831469 0.000000 0.555570
v 0.815493 -0.195090 0.544895
v 0.768178 -0.382683 0.513280
v 0.691341 -0.555570 0.461940
v 0.587938 -0.707107 0.392847
v 0.461940 -0.831470 0.308658
v 0.318190 -0.923880 0.212608
v 0.162212 -0.980785 0.108386
v 0.137950 0.980785 0.137950
v 0.270598 0.923880 0.270598
v 0.392847 0.831470 0.392847
v 0.500000 0.707107 0.500000
v 0.587938 0.555570 0.587938
v 0.653281 0.382683 0.653281
v 0.693520 0.195090 0.693520
v 0.707106 0.000000 0.707107
v 0.693520 -0.195090 0.693520
v 0.653281 -0.382683 0.653281
v 0.587938 -0.555570 0.587938
v 0.500000 -0.707107 0.500000
v 0.392847 -0.831470 0.392847
v 0.270598 -0.923880 0.270598
v 0.137950 -0.980785 0.137950
v 0.108386 0.980785 0.162212
v 0.212607 0.923880 0.318190
v 0.308658 0.831470 0.461940
v 0.392847 0.707107 0.587938
v 0.461940 0.555570 0.691342
v 0.513280 0.382683 0.768178
v 0.544895 0.195090 0.815493
v 0.555570 0.000000 0.831469
v 0.544895 -0.195090 0.815493
v 0.513280 -0.382683 0.768178
v 0.461940 -0.555570 0.691342
v 0.392847 -0.707107 0.587938
v 0.308658 -0.831470 0.461940
v 0.212607 -0.923880 0.318190
v 0.108386 -0.980785 0.162212
v 0.074658 0.980785 0.180240
v 0.146447 0.923880 0.353553
v 0.212607 0.831470 0.513280
v 0.270598 0.707107 0.653281
v 0.318189 0.555570 0.768178
v 0.353553 0.382683 0.853553
v 0.375330 0.195090 0.906127
v 0.382683 0.000000 0.923879
v 0.375330 -0.195090 0.906127
v 0.353553 -0.382683 0.853553
v 0.318189 -0.555570 0.768178
v 0.270598 -0.707107 0.653281
v 0.212607 -0.831470 0.513280
v 0.146447 -0.923880 0.353553
v 0.074658 -0.980785 0.180240
v 0.038060 0.980785 0.191342
v 0.074658 0.923880 0.375330
v 0.108386 0.831470 0.544895
v 0.137950 0.707107 0.693520
v 0.162212 0.555570 0.815493
v 0.180240 0.382683 0.906127
v 0.191342 0.195090 0.961939
v 0.195090 0.000000 0.980785
v 0.191342 -0.195090 0.961939
v 0.180240 -0.382683 0.906127
v 0.162212 -0.555570 0.815493
v 0.137950 -0.707107 0.693520
v 0.108386 -0.831470 0.544895
v 0.074658 -0.923880 0.375330
v 0.038060 -0.980785 0.191342
v 0.000000 0.980785 0.195090
v 0.000000 0.923880 0.382683
v 0.000000 0.831470 0.555570
v 0.000000 0.707107 0.707107
v 0.000000 0.555570 0.831469
v 0.000000 0.382683 0.923879
v 0.000000 0.195090 0.980785
v 0.000000 0.000000 0.999999
v 0.000000 -0.195090 0.980785
v 0.000000 -0.382683 0.923879
v 0.000000 -0.555570 0.831469
v 0.000000 -0.707107 0.707107
v 0.000000 -0.831470 0.555570
v 0.000000 -0.923880 0.382683
v 0.000000 -0.980785 0.195090
v -0.038060 0.980785 0.191342
v -0.074658 0.923880 0.375330
v -0.108386 0.831470 0.544895
v -0.137950 0.707107 0.693520
v -0.162212 0.555570 0.815493
v -0.180240 0.382683 0.906127
v -0.191342 0.195090 0.961939
v -0.195091 0.000000 0.980785
v -0.191342 -0.195090 0.961939
v -0.180240 -0.382683 0.906127
v -0.162212 -0.555570 0.815493
v -0.137950 -0.707107 0.693520
v -0.108386 -0.831470 0.544895
v -0.074658 -0.923880 0.375330
v -0.038060 -0.980785 0.191342
v -0.074658 0.980785 0.180240
v -0.146447 0.923880 0.353553
v -0.212608 0.831470 0.513280
v -0.270598 0.707107 0.653281
v -0.318190 0.555570 0.768177
v -0.353553 0.382683 0.853553
v -0.375330 0.195090 0.906127
v -0.382683 0.000000 0.923879
v -0.375330 -0.195090 0.906127
v -0.353553 -0.382683 0.853553
v -0.318190 -0.555570 0.768177
v -0.270598 -0.707107 0.653281
v -0.212608 -0.831470 0.513280
v -0.146447 -0.923880 0.353553
v -0.074658 -0.980785 0.180240
v -0.108386 0.980785 0.162212
v -0.212608 0.923880 0.318190
v -0.308658 0.831470 0.461939
v -0.392847 0.707107 0.587938
v -0.461940 0.555570 0.691341
v -0.513280 0.382683 0.768178
v -0.544895 0.195090 0.815493
v -0.555570 0.000000 0.831469
v -0.544895 -0.195090 0.815493
v -0.513280 -0.382683 0.768178
v -0.461940 -0.555570 0.691341
v -0.392847 -0.707107 0.587938
v -0.308658 -0.831470 0.461939
v -0.212608 -0.923880 0.318190
v -0.108386 -0.980785 0.162212
v -0.137950 0.980785 0.137950
v -0.270598 0.923880 0.270598
v -0.392847 0.831470 0.392847
v -0.500000 0.707107 0.500000
v -0.587938 0.555570 0.587937
v -0.653281 0.382683 0.653281
v -0.693520 0.195090 0.693520
v -0.707106 0.000000 0.707106
v -0.693520 -0.195090 0.693520
v -0.653281 -0.382683 0.653281
v -0.587938 -0.555570 0.587937
v -0.500000 -0.707107 0.500000
v -0.392847 -0.831470 0.392847
v -0.270598 -0.923880 0.270598
v -0.137950 -0.980785 0.137950
v 0.000000 -1.000000 0.000000
v -0.162212 0.980785 0.108386
v -0.318190 0.923880 0.212607
v -0.461940 0.831470 0.308658
v -0.587938 0.707107 0.392847
v -0.691341 0.555570 0.461939
v -0.768177 0.382683 0.513280
v -0.815493 0.195090 0.544895
v -0.831469 0.000000 0.555569
v -0.815493 -0.195090 0.544895
v -0.768177 -0.382683 0.513280
v -0.691341 -0.555570 0.461939
v -0.587938 -0.707107 0.392847
v -0.461940 -0.831470 0.308658
v -0.318190 -0.923880 0.212607
v -0.162212 -0.980785 0.108386
v -0.180240 0.980785 0.074658
v -0.353553 0.923880 0.146447
v -0.513280 0.831470 0.212607
v -0.653281 0.707107 0.270598
v -0.768177 0.555570 0.318189
v -0.853553 0.382683 0.353553
v -0.906127 0.195090 0.375330
v -0.923879 0.000000 0.382683
v -0.906127 -0.195090 0.375330
v -0.853553 -0.382683 0.353553
v -0.768177 -0.555570 0.318189
v -0.653281 -0.707107 0.270598
v -0.513280 -0.831470 0.212607
v -0.353553 -0.923880 0.146447
v -0.180240 -0.980785 0.074658
v -0.191342 0.980785 0.038060
v -0.375330 0.923880 0.074658
v -0.544895 0.831470 0.108386
v -0.693520 0.707107 0.137950
v -0.815493 0.555570 0.162211
v -0.906127 0.382683 0.180240
v -0.961939 0.195090 0.191341
v -0.980784 0.000000 0.195090
v -0.961939 -0.195090 0.191341
v -0.906127 -0.382683 0.180240
v -0.815493 -0.555570 0.162211
v -0.693520 -0.707107 0.137950
v -0.544895 -0.831470 0.108386
v -0.375330 -0.923880 0.074658
v -0.191342 -0.980785 0.038060
v -0.195090 0.980785 -0.000000
v -0.382683 0.923880 -0.000000
v -0.555570 0.831470 -0.000000
v -0.707107 0.707107 -0.000000
v -0.831469 0.555570 -0.000000
v -0.923879 0.382683 -0.000000
v -0.980785 0.195090 -0.000000
v -0.999999 0.000000 0.000000
v -0.980785 -0.195090 0.000000
v -0.923879 -0.382683 0.000000
v -0.831469 -0.555570 0.000000
v -0.707107 -0.707107 0.000000
v -0.555570 -0.831470 0.000000
v -0.382683 -0.923880 0.000000
v -0.195090 -0.980785 0.000000
v -0.191342 0.980785 -0.038060
v -0.375330 0.923880 -0.074658
v -0.544895 0.831470 -0.108386
v -0.693520 0.707107 -0.137950
v -0.815493 0.555570 -0.162212
v -0.906127 0.382683 -0.180240
v -0.961939 0.195090 -0.191342
v -0.980784 -0.000000 -0.195091
v -0.961939 -0.195090 -0.191342
v -0.906127 -0.382683 -0.180240
v -0.815493 -0.555570 -0.162212
v -0.693520 -0.707107 -0.137950
v -0.544895 -0.831470 -0.108386
v -0.375330 -0.923880 -0.074658
v -0.191342 -0.980785 -0.038060
v -0.180240 0.980785 -0.074658
v -0.353553 0.923880 -0.146447
v -0.513279 0.831470 -0.212607
v -0.653281 0.707107 -0.270598
v -0.768177 0.555570 -0.318190
v -0.853553 0.382683 -0.353553
v -0.906127 0.195090 -0.375330
v -0.923878 -0.000000 -0.382683
v -0.906127 -0.195090 -0.375330
v -0.853553 -0.382683 -0.353553
v -0.768177 -0.555570 -0.318190
v -0.653281 -0.707107 -0.270598
v -0.513279 -0.831470 -0.212607
v -0.353553 -0.923880 -0.146447
v -0.180240 -0.980785 -0.074658
v -0.162212 0.980785 -0.108386
v -0.318189 0.923880 -0.212607
v -0.461939 0.831470 -0.308658
v -0.587938 0.707107 -0.392847
v -0.691341 0.555570 -0.461940
v -0.768177 0.382683 -0.513280
v -0.815493 0.195090 -0.544895
v -0.831468 -0.000000 -0.555570
v -0.815493 -0.195090 -0.544895
v -0.768177 -0.382683 -0.513280
v -0.691341 -0.555570 -0.461940
v -0.587938 -0.707107 -0.392847
v -0.461939 -0.831470 -0.308658
v -0.318189 -0.923880 -0.212607
v -0.162212 -0.980785 -0.108386
v -0.137950 0.980785 -0.137950
v -0.270598 0.923880 -0.270598
v -0.392847 0.831470 -0.392847
v -0.500000 0.707107 -0.500000
v -0.587937 0.555570 -0.587938
v -0.653281 0.382683 -0.653281
v -0.693519 0.195090 -0.693520
v -0.707106 -0.000000 -0.707106
v -0.693519 -0.195090 -0.693520
v -0.653281 -0.382683 -0.653281
v -0.587937 -0.555570 -0.587938
v -0.500000 -0.707107 -0.500000
v -0.392847 -0.831470 -0.392847
v -0.270598 -0.923880 -0.270598
v -0.137950 -0.980785 -0.137950
v -0.108386 0.980785 -0.162212
v -0.212607 0.923880 -0.318190
v -0.308658 0.831470 -0.461939
v -0.392847 0.707107 -0.587938
v -0.461939 0.555570 -0.691341
v -0.513280 0.382683 -0.768177
v -0.544895 0.195090 -0.815493
v -0.555569 -0.000000 -0.831469
v -0.544895 -0.195090 -0.815493
v -0.513280 -0.382683 -0.768177
v -0.461939 -0.555570 -0.691341
v -0.392847 -0.707107 -0.587938
v -0.308658 -0.831470 -0.461939
v -0.212607 -0.923880 -0.318190
v -0.108386 -0.980785 -0.162212
v -0.074658 0.980785 -0.180240
v -0.146446 0.923880 -0.353553
v -0.212607 0.831470 -0.513279
v -0.270598 0.707107 -0.653281
v -0.318189 0.555570 -0.768177
v -0.353553 0.382683 -0.853553
v -0.375330 0.195090 -0.906127
v -0.382683 -0.000000 -0.923879
v -0.375330 -0.195090 -0.906127
v -0.353553 -0.382683 -0.853553
v -0.318189 -0.555570 -0.768177
v -0.270598 -0.707107 -0.653281
v -0.212607 -0.831470 -0.513279
v -0.146446 -0.923880 -0.353553
v -0.074658 -0.980785 -0.180240
v -0.038060 0.980785 -0.191342
v -0.074658 0.923880 -0.375330
v -0.108386 0.831470 -0.544895
v -0.137950 0.707107 -0.693520
v -0.162211 0.555570 -0.815493
v -0.180240 0.382683 -0.906127
v -0.191341 0.195090 -0.961939
v -0.195090 -0.000000 -0.980784
v -0.191341 -0.195090 -0.961939
v -0.180240 -0.382683 -0.906127
v -0.162211 -0.555570 -0.815493
v -0.137950 -0.707107 -0.693520
v -0.108386 -0.831470 -0.544895
v -0.074658 -0.923880 -0.375330
v -0.038060 -0.980785 -0.191342
v 0.000000 0.980785 -0.195090
v 0.000000 0.923880 -0.382683
v 0.000000 0.707107 -0.707107
v 0.000000 0.382683 -0.923879
v 0.000000 -0.382683 -0.923879
v 0.000000 -0.707107 -0.707107
v 0.000000 -0.831470 -0.555570
v 0.000000 -0.923880 -0.382683
v 0.000000 -0.980785 -0.195090
vn -0.0000 -0.7041 -0.7101
vn 0.1626 -0.5528 -0.8173
vn 0.1385 -0.7041 -0.6965
vn -0.0000 0.7041 -0.7101
vn 0.1626 0.5528 -0.8173
vn -0.0000 0.5528 -0.8333
vn 0.1092 -0.8286 -0.5490
vn -0.0000 -0.8286 -0.5598
vn -0.0000 0.3805 -0.9248
vn 0.1804 0.3805 -0.9070
vn 0.0757 -0.9217 -0.3804
vn -0.0000 -0.9217 -0.3879
vn -0.0000 0.1939 -0.9810
vn 0.1914 0.1939 -0.9622
vn 0.0392 -0.9796 -0.1971
vn -0.0000 -0.9796 -0.2010
vn 0.1951 -0.0000 -0.9808
vn -0.0000 -0.0000 -1.0000
vn -0.0000 0.9796 -0.2010
vn -0.0000 1.0000 -0.0000
vn 0.0392 0.9796 -0.1971
vn -0.0000 -1.0000 -0.0000
vn 0.1914 -0.1939 -0.9622
vn -0.0000 -0.1939 -0.9810
vn -0.0000 0.9217 -0.3879
vn 0.0757 0.9217 -0.3804
vn 0.1804 -0.3805 -0.9070
vn -0.0000 -0.3805 -0.9248
vn -0.0000 0.8286 -0.5598
vn 0.1092 0.8286 -0.5490
vn -0.0000 -0.5528 -0.8333
vn 0.1385 0.7041 -0.6965
vn 0.3539 -0.3805 -0.8544
vn 0.3189 -0.5528 -0.7699
vn 0.2718 0.7041 -0.6561
vn 0.2718 -0.7041 -0.6561
vn 0.3189 0.5528 -0.7699
vn 0.2142 -0.8286 -0.5172
vn 0.3539 0.3805 -0.8544
vn 0.1484 -0.9217 -0.3584
vn 0.3754 0.1939 -0.9063
vn 0.0769 -0.9796 -0.1857
vn 0.3827 -0.0000 -0.9239
vn 0.0769 0.9796 -0.1857
vn 0.3754 -0.1939 -0.9063
vn 0.1484 0.9217 -0.3584
vn 0.2142 0.8286 -0.5172
vn 0.2155 -0.9217 -0.3225
vn 0.1117 -0.9796 -0.1671
vn 0.5450 0.1939 -0.8157
vn 0.5556 -0.0000 -0.8315
vn 0.1117 0.9796 -0.1671
vn 0.5450 -0.1939 -0.8157
vn 0.2155 0.9217 -0.3225
vn 0.5138 -0.3805 -0.7689
vn 0.3110 0.8286 -0.4654
vn 0.4630 -0.5528 -0.6929
vn 0.3945 0.7041 -0.5905
vn 0.3945 -0.7041 -0.5905
vn 0.4630 0.5528 -0.6929
vn 0.3110 -0.8286 -0.4654
vn 0.5138 0.3805 -0.7689
vn 0.5021 0.7041 -0.5021
vn 0.5021 -0.7041 -0.5021
vn 0.5893 0.5528 -0.5893
vn 0.3958 -0.8286 -0.3958
vn 0.6539 0.3805 -0.6539
vn 0.2743 -0.9217 -0.2743
vn 0.6937 0.1939 -0.6937
vn 0.1421 -0.9796 -0.1421
vn 0.7071 -0.0000 -0.7071
vn 0.1421 0.9796 -0.1421
vn 0.6937 -0.1939 -0.6937
vn 0.2743 0.9217 -0.2743
vn 0.6539 -0.3805 -0.6539
vn 0.3958 0.8286 -0.3958
vn 0.5893 -0.5528 -0.5893
vn 0.8157 0.1939 -0.5450
vn 0.8315 -0.0000 -0.5556
vn 0.1671 0.9796 -0.1117
vn 0.1671 -0.9796 -0.1117
vn 0.8157 -0.1939 -0.5450
vn 0.3225 0.9217 -0.2155
vn 0.7689 -0.3805 -0.5138
vn 0.4654 0.8286 -0.3110
vn 0.6929 -0.5528 -0.4630
vn 0.5905 0.7041 -0.3945
vn 0.5905 -0.7041 -0.3945
vn 0.6929 0.5528 -0.4630
vn 0.4654 -0.8286 -0.3110
vn 0.7689 0.3805 -0.5138
vn 0.3225 -0.9217 -0.2155
vn 0.6561 -0.7041 -0.2718
vn 0.6561 0.7041 -0.2718
vn 0.7699 0.5528 -0.3189
vn 0.5172 -0.8286 -0.2142
vn 0.8544 0.3805 -0.3539
vn 0.3584 -0.9217 -0.1484
vn 0.9063 0.1939 -0.3754
vn 0.1857 -0.9796 -0.0769
vn 0.9239 -0.0000 -0.3827
vn 0.1857 0.9796 -0.0769
vn 0.9063 -0.1939 -0.3754
vn 0.3584 0.9217 -0.1484
vn 0.8544 -0.3805 -0.3539
vn 0.5172 0.8286 -0.2142
vn 0.7699 -0.5528 -0.3189
vn 0.1971 0.9796 -0.0392
vn 0.1971 -0.9796 -0.0392
vn 0.9622 -0.1939 -0.1914
vn 0.3804 0.9217 -0.0757
vn 0.9070 -0.3805 -0.1804
vn 0.5490 0.8286 -0.1092
vn 0.8173 -0.5528 -0.1626
vn 0.6965 0.7041 -0.1385
vn 0.6965 -0.7041 -0.1385
vn 0.8173 0.5528 -0.1626
vn 0.5490 -0.8286 -0.1092
vn 0.9070 0.3805 -0.1804
vn 0.3804 -0.9217 -0.0757
vn 0.9622 0.1939 -0.1914
vn 0.9808 -0.0000 -0.1951
vn 0.7101 0.7041 -0.0000
vn 0.8333 0.5528 -0.0000
vn 0.7101 -0.7041 -0.0000
vn 0.5598 -0.8286 -0.0000
vn 0.9248 0.3805 -0.0000
vn 0.3879 -0.9217 -0.0000
vn 0.9810 0.1939 -0.0000
vn 0.2010 -0.9796 -0.0000
vn 1.0000 -0.0000 -0.0000
vn 0.2010 0.9796 -0.0000
vn 0.9810 -0.1939 -0.0000
vn 0.3879 0.9217 -0.0000
vn 0.9248 -0.3805 -0.0000
vn 0.5598 0.8286 -0.0000
vn 0.8333 -0.5528 -0.0000
vn 0.9622 -0.1939 0.1914
vn 0.1971 0.9796 0.0392
vn 0.3804 0.9217 0.0757
vn 0.9070 -0.3805 0.1804
vn 0.5490 0.8286 0.1092
vn 0.8173 -0.5528 0.1626
vn 0.6965 0.7041 0.1385
vn 0.6965 -0.7041 0.1385
vn 0.8173 0.5528 0.1626
vn 0.5490 -0.8286 0.1092
vn 0.9070 0.3805 0.1804
vn 0.3804 -0.9217 0.0757
vn 0.9622 0.1939 0.1914
vn 0.1971 -0.9796 0.0392
vn 0.9808 -0.0000 0.1951
vn 0.6561 -0.7041 0.2718
vn 0.5172 -0.8286 0.2142
vn 0.8544 0.3805 0.3539
vn 0.3584 -0.9217 0.1484
vn 0.9063 0.1939 0.3754
vn 0.1857 -0.9796 0.0769
vn 0.9239 -0.0000 0.3827
vn 0.1857 0.9796 0.0769
vn 0.9063 -0.1939 0.3754
vn 0.3584 0.9217 0.1484
vn 0.8544 -0.3805 0.3539
vn 0.5172 0.8286 0.2142
vn 0.7699 -0.5528 0.3189
vn 0.6561 0.7041 0.2718
vn 0.7699 0.5528 0.3189
vn 0.7689 -0.3805 0.5138
vn 0.4654 0.8286 0.3110
vn 0.6929 -0.5528 0.4630
vn 0.5905 0.7041 0.3945
vn 0.5905 -0.7041 0.3945
vn 0.6929 0.5528 0.4630
vn 0.4654 -0.8286 0.3110
vn 0.7689 0.3805 0.5138
vn 0.3225 -0.9217 0.2155
vn 0.8157 0.1939 0.5450
vn 0.1671 -0.9796 0.1117
vn 0.8315 -0.0000 0.5556
vn 0.1671 0.9796 0.1117
vn 0.8157 -0.1939 0.5450
vn 0.3225 0.9217 0.2155
vn 0.3958 -0.8286 0.3958
vn 0.2743 -0.9217 0.2743
vn 0.6539 0.3805 0.6539
vn 0.6937 0.1939 0.6937
vn 0.1421 -0.9796 0.1421
vn 0.7071 -0.0000 0.7071
vn 0.1421 0.9796 0.1421
vn 0.6937 -0.1939 0.6937
vn 0.2743 0.9217 0.2743
vn 0.6539 -0.3805 0.6539
vn 0.3958 0.8286 0.3958
vn 0.5893 -0.5528 0.5893
vn 0.5021 0.7041 0.5021
vn 0.5021 -0.7041 0.5021
vn 0.5893 0.5528 0.5893
vn 0.2155 0.9217 0.3225
vn 0.3110 0.8286 0.4654
vn 0.5138 -0.3805 0.7689
vn 0.4630 -0.5528 0.6929
vn 0.3945 0.7041 0.5905
vn 0.3945 -0.7041 0.5905
vn 0.4630 0.5528 0.6929
vn 0.3110 -0.8286 0.4654
vn 0.5138 0.3805 0.7689
vn 0.2155 -0.9217 0.3225
vn 0.5450 0.1939 0.8157
vn 0.1117 -0.9796 0.1671
vn 0.5556 -0.0000 0.8315
vn 0.1117 0.9796 0.1671
vn 0.5450 -0.1939 0.8157
vn 0.3539 0.3805 0.8544
vn 0.3754 0.1939 0.9063
vn 0.1484 -0.9217 0.3584
vn 0.0769 -0.9796 0.1857
vn 0.3827 -0.0000 0.9239
vn 0.0769 0.9796 0.1857
vn 0.3754 -0.1939 0.9063
vn 0.1484 0.9217 0.3584
vn 0.3539 -0.3805 0.8544
vn 0.2142 0.8286 0.5172
vn 0.3189 -0.5528 0.7699
vn 0.2718 0.7041 0.6561
vn 0.2718 -0.7041 0.6561
vn 0.3189 0.5528 0.7699
vn 0.2142 -0.8286 0.5172
vn 0.1804 -0.3805 0.9070
vn 0.1626 -0.5528 0.8173
vn 0.1385 0.7041 0.6965
vn 0.1385 -0.7041 0.6965
vn 0.1626 0.5528 0.8173
vn 0.1092 -0.8286 0.5490
vn 0.1804 0.3805 0.9070
vn 0.0757 -0.9217 0.3804
vn 0.1914 0.1939 0.9622
vn 0.0392 -0.9796 0.1971
vn 0.1951 -0.0000 0.9808
vn 0.0392 0.9796 0.1971
vn 0.1914 -0.1939 0.9622
vn 0.0757 0.9217 0.3804
vn 0.1092 0.8286 0.5490
vn -0.0000 -0.9796 0.2010
vn -0.0000 0.1939 0.9810
vn -0.0000 -0.0000 1.0000
vn -0.0000 0.9796 0.2010
vn -0.0000 -0.1939 0.9810
vn -0.0000 0.9217 0.3879
vn -0.0000 -0.3805 0.9248
vn -0.0000 0.8286 0.5598
vn -0.0000 -0.5528 0.8333
vn -0.0000 0.7041 0.7101
vn -0.0000 -0.7041 0.7101
vn -0.0000 0.5528 0.8333
vn -0.0000 -0.8286 0.5598
vn -0.0000 0.3805 0.9248
vn -0.0000 -0.9217 0.3879
vn -0.1385 0.7041 0.6965
vn -0.1385 -0.7041 0.6965
vn -0.1626 0.5528 0.8173
vn -0.1092 -0.8286 0.5490
vn -0.1804 0.3805 0.9070
vn -0.0757 -0.9217 0.3804
vn -0.1914 0.1939 0.9622
vn -0.0392 -0.9796 0.1971
vn -0.1951 -0.0000 0.9808
vn -0.0392 0.9796 0.1971
vn -0.1914 -0.1939 0.9622
vn -0.0757 0.9217 0.3804
vn -0.1804 -0.3805 0.9070
vn -0.1092 0.8286 0.5490
vn -0.1626 -0.5528 0.8173
vn -0.3754 0.1939 0.9063
vn -0.3827 -0.0000 0.9239
vn -0.0769 0.9796 0.1857
vn -0.0769 -0.9796 0.1857
vn -0.3754 -0.1939 0.9063
vn -0.1484 0.9217 0.3584
vn -0.3539 -0.3805 0.8544
vn -0.2142 0.8286 0.5172
vn -0.3189 -0.5528 0.7699
vn -0.2718 0.7041 0.6561
vn -0.2718 -0.7041 0.6561
vn -0.3189 0.5528 0.7699
vn -0.2142 -0.8286 0.5172
vn -0.3539 0.3805 0.8544
vn -0.1484 -0.9217 0.3584
vn -0.3945 -0.7041 0.5905
vn -0.3945 0.7041 0.5905
vn -0.4630 0.5528 0.6929
vn -0.3110 -0.8286 0.4654
vn -0.5138 0.3805 0.7689
vn -0.2155 -0.9217 0.3225
vn -0.5450 0.1939 0.8157
vn -0.1117 -0.9796 0.1671
vn -0.5556 -0.0000 0.8315
vn -0.1117 0.9796 0.1671
vn -0.5450 -0.1939 0.8157
vn -0.2155 0.9217 0.3225
vn -0.5138 -0.3805 0.7689
vn -0.3110 0.8286 0.4654
vn -0.4630 -0.5528 0.6929
vn -0.1421 -0.9796 0.1421
vn -0.6937 -0.1939 0.6937
vn -0.2743 0.9217 0.2743
vn -0.6539 -0.3805 0.6539
vn -0.3958 0.8286 0.3958
vn -0.5893 -0.5528 0.5893
vn -0.5021 0.7041 0.5021
vn -0.5021 -0.7041 0.5021
vn -0.5893 0.5528 0.5893
vn -0.3958 -0.8286 0.3958
vn -0.6539 0.3805 0.6539
vn -0.2743 -0.9217 0.2743
vn -0.6937 0.1939 0.6937
vn -0.7071 -0.0000 0.7071
vn -0.1421 0.9796 0.1421
vn -0.5905 -0.7041 0.3945
vn -0.4654 -0.8286 0.3110
vn -0.7689 0.3805 0.5138
vn -0.3225 -0.9217 0.2155
vn -0.8157 0.1939 0.5450
vn -0.1671 -0.9796 0.1117
vn -0.8315 -0.0000 0.5556
vn -0.1671 0.9796 0.1117
vn -0.8157 -0.1939 0.5450
vn -0.3225 0.9217 0.2155
vn -0.7689 -0.3805 0.5138
vn -0.4654 0.8286 0.3110
vn -0.6929 -0.5528 0.4630
vn -0.5905 0.7041 0.3945
vn -0.6929 0.5528 0.4630
vn -0.3584 0.9217 0.1484
vn -0.8544 -0.3805 0.3539
vn -0.5172 0.8286 0.2142
vn -0.7699 -0.5528 0.3189
vn -0.6561 0.7041 0.2718
vn -0.6561 -0.7041 0.2718
vn -0.7699 0.5528 0.3189
vn -0.5172 -0.8286 0.2142
vn -0.8544 0.3805 0.3539
vn -0.3584 -0.9217 0.1484
vn -0.9063 0.1939 0.3754
vn -0.1857 -0.9796 0.0769
vn -0.9239 -0.0000 0.3827
vn -0.1857 0.9796 0.0769
vn -0.9063 -0.1939 0.3754
vn -0.9070 0.3805 0.1804
vn -0.3804 -0.9217 0.0757
vn -0.9622 0.1939 0.1914
vn -0.1971 -0.9796 0.0392
vn -0.9808 -0.0000 0.1951
vn -0.1971 0.9796 0.0392
vn -0.9622 -0.1939 0.1914
vn -0.3804 0.9217 0.0757
vn -0.9070 -0.3805 0.1804
vn -0.5490 0.8286 0.1092
vn -0.8173 -0.5528 0.1626
vn -0.6965 0.7041 0.1385
vn -0.6965 -0.7041 0.1385
vn -0.8173 0.5528 0.1626
vn -0.5490 -0.8286 0.1092
vn -0.9248 -0.3805 -0.0000
vn -0.3879 0.9217 -0.0000
vn -0.5598 0.8286 -0.0000
vn -0.8333 -0.5528 -0.0000
vn -0.7101 0.7041 -0.0000
vn -0.7101 -0.7041 -0.0000
vn -0.8333 0.5528 -0.0000
vn -0.5598 -0.8286 -0.0000
vn -0.9248 0.3805 -0.0000
vn -0.3879 -0.9217 -0.0000
vn -0.9810 0.1939 -0.0000
vn -0.2010 -0.9796 -0.0000
vn -1.0000 -0.0000 -0.0000
vn -0.2010 0.9796 -0.0000
vn -0.9810 -0.1939 -0.0000
vn -0.3804 -0.9217 -0.0757
vn -0.9070 0.3805 -0.1804
vn -0.9622 0.1939 -0.1914
vn -0.1971 -0.9796 -0.0392
vn -0.9808 -0.0000 -0.1951
vn -0.1971 0.9796 -0.0392
vn -0.9622 -0.1939 -0.1914
vn -0.3804 0.9217 -0.0757
vn -0.9070 -0.3805 -0.1804
vn -0.5490 0.8286 -0.1092
vn -0.8173 -0.5528 -0.1626
vn -0.6965 0.7041 -0.1385
vn -0.6965 -0.7041 -0.1385
vn -0.8173 0.5528 -0.1626
vn -0.5490 -0.8286 -0.1092
vn -0.3584 0.9217 -0.1484
vn -0.5172 0.8286 -0.2142
vn -0.8544 -0.3805 -0.3539
vn -0.7699 -0.5528 -0.3189
vn -0.6561 0.7041 -0.2718
vn -0.6561 -0.7041 -0.2718
vn -0.7699 0.5528 -0.3189
vn -0.5172 -0.8286 -0.2142
vn -0.8544 0.3805 -0.3539
vn -0.3584 -0.9217 -0.1484
vn -0.9063 0.1939 -0.3754
vn -0.1857 -0.9796 -0.0769
vn -0.9239 -0.0000 -0.3827
vn -0.1857 0.9796 -0.0769
vn -0.9063 -0.1939 -0.3754
vn -0.7689 0.3805 -0.5138
vn -0.8157 0.1939 -0.5450
vn -0.3225 -0.9217 -0.2155
vn -0.1671 -0.9796 -0.1117
vn -0.8315 -0.0000 -0.5556
vn -0.1671 0.9796 -0.1117
vn -0.8157 -0.1939 -0.5450
vn -0.3225 0.9217 -0.2155
vn -0.7689 -0.3805 -0.5138
vn -0.4654 0.8286 -0.3110
vn -0.6929 -0.5528 -0.4630
vn -0.5905 0.7041 -0.3945
vn -0.5905 -0.7041 -0.3945
vn -0.6929 0.5528 -0.4630
vn -0.4654 -0.8286 -0.3110
vn -0.6539 -0.3805 -0.6539
vn -0.5893 -0.5528 -0.5893
vn -0.5021 0.7041 -0.5021
vn -0.5021 -0.7041 -0.5021
vn -0.5893 0.5528 -0.5893
vn -0.3958 -0.8286 -0.3958
vn -0.6539 0.3805 -0.6539
vn -0.2743 -0.9217 -0.2743
vn -0.6937 0.1939 -0.6937
vn -0.1421 -0.9796 -0.1421
vn -0.7071 -0.0000 -0.7071
vn -0.1421 0.9796 -0.1421
vn -0.6937 -0.1939 -0.6937
vn -0.2743 0.9217 -0.2743
vn -0.3958 0.8286 -0.3958
vn -0.2155 -0.9217 -0.3225
vn -0.1117 -0.9796 -0.1671
vn -0.5450 0.1939 -0.8157
vn -0.5556 -0.0000 -0.8315
vn -0.1117 0.9796 -0.1671
vn -0.5450 -0.1939 -0.8157
vn -0.2155 0.9217 -0.3225
vn -0.5138 -0.3805 -0.7689
vn -0.3110 0.8286 -0.4654
vn -0.4630 -0.5528 -0.6929
vn -0.3945 0.7041 -0.5905
vn -0.3945 -0.7041 -0.5905
vn -0.4630 0.5528 -0.6929
vn -0.3110 -0.8286 -0.4654
vn -0.5138 0.3805 -0.7689
vn -0.2718 -0.7041 -0.6561
vn -0.2718 0.7041 -0.6561
vn -0.3189 0.5528 -0.7699
vn -0.2142 -0.8286 -0.5172
vn -0.3539 0.3805 -0.8544
vn -0.1484 -0.9217 -0.3584
vn -0.3754 0.1939 -0.9063
vn -0.0769 -0.9796 -0.1857
vn -0.3827 -0.0000 -0.9239
vn -0.0769 0.9796 -0.1857
vn -0.3754 -0.1939 -0.9063
vn -0.1484 0.9217 -0.3584
vn -0.3539 -0.3805 -0.8544
vn -0.2142 0.8286 -0.5172
vn -0.3189 -0.5528 -0.7699
vn -0.0392 0.9796 -0.1971
vn -0.0392 -0.9796 -0.1971
vn -0.1914 -0.1939 -0.9622
vn -0.0757 0.9217 -0.3804
vn -0.1804 -0.3805 -0.9070
vn -0.1092 0.8286 -0.5490
vn -0.1626 -0.5528 -0.8173
vn -0.1385 0.7041 -0.6965
vn -0.1385 -0.7041 -0.6965
vn -0.1626 0.5528 -0.8173
vn -0.1092 -0.8286 -0.5490
vn -0.1804 0.3805 -0.9070
vn -0.0757 -0.9217 -0.3804
vn -0.1914 0.1939 -0.9622
vn -0.1951 -0.0000 -0.9808
vt 0.750000 0.812500
vt 0.750000 0.687500
vt 0.750000 0.562500
vt 0.750000 0.500000
vt 0.750000 0.437500
vt 0.750000 0.312500
vt 0.718750 0.937500
vt 0.718750 0.875000
vt 0.718750 0.812500
vt 0.718750 0.750000
vt 0.718750 0.687500
vt 0.718750 0.625000
vt 0.718750 0.562500
vt 0.718750 0.500000
vt 0.718750 0.437500
vt 0.718750 0.375000
vt 0.718750 0.312500
vt 0.718750 0.250000
vt 0.718750 0.187500
vt 0.718750 0.125000
vt 0.718750 0.062500
vt 0.687500 0.937500
vt 0.687500 0.875000
vt 0.687500 0.812500
vt 0.687500 0.750000
vt 0.687500 0.687500
vt 0.687500 0.625000
vt 0.687500 0.562500
vt 0.687500 0.500000
vt 0.687500 0.437500
vt 0.687500 0.375000
vt 0.687500 0.312500
vt 0.687500 0.250000
vt 0.687500 0.187500
vt 0.687500 0.125000
vt 0.687500 0.062500
vt 0.656250 0.937500
vt 0.656250 0.875000
vt 0.656250 0.812500
vt 0.656250 0.750000
vt 0.656250 0.687500
vt 0.656250 0.625000
vt 0.656250 0.562500
vt 0.656250 0.500000
vt 0.656250 0.437500
vt 0.656250 0.375000
vt 0.656250 0.312500
vt 0.656250 0.250000
vt 0.656250 0.187500
vt 0.656250 0.125000
vt 0.656250 0.062500
vt 0.625000 0.937500
vt 0.625000 0.875000
vt 0.625000 0.812500
vt 0.625000 0.750000
vt 0.625000 0.687500
vt 0.625000 0.625000
vt 0.625000 0.562500
vt 0.625000 0.500000
vt 0.625000 0.437500
vt 0.625000 0.375000
vt 0.625000 0.312500
vt 0.625000 0.250000
vt 0.625000 0.187500
vt 0.625000 0.125000
vt 0.625000 0.062500
vt 0.593750 0.937500
vt 0.593750 0.875000
vt 0.593750 0.812500
vt 0.593750 0.750000
vt 0.593750 0.687500
vt 0.593750 0.625000
vt 0.593750 0.562500
vt 0.593750 0.500000
vt 0.593750 0.437500
vt 0.593750 0.375000
vt 0.593750 0.312500
vt 0.593750 0.250000
vt 0.593750 0.187500
vt 0.593750 0.125000
vt 0.593750 0.062500
vt 0.734375 1.000000
vt 0.703125 1.000000
vt 0.671875 1.000000
vt 0.640625 1.000000
vt 0.609375 1.000000
vt 0.578125 1.000000
vt 0.546875 1.000000
vt 0.515625 1.000000
vt 0.484375 1.000000
vt 0.453125 1.000000
vt 0.421875 1.000000
vt 0.390625 1.000000
vt 0.359375 1.000000
vt 0.328125 1.000000
vt 0.296875 1.000000
vt 0.265625 1.000000
vt 0.234375 1.000000
vt 0.203125 1.000000
vt 0.171875 1.000000
vt 0.140625 1.000000
vt 0.109375 1.000000
vt 0.078125 1.000000
vt 0.046875 1.000000
vt 0.015625 1.000000
vt 0.984375 1.000000
vt 0.953125 1.000000
vt 0.921875 1.000000
vt 0.890625 1.000000
vt 0.859375 1.000000
vt 0.828125 1.000000
vt 0.796875 1.000000
vt 0.765625 1.000000
vt 0.562500 0.937500
vt 0.562500 0.875000
vt 0.562500 0.812500
vt 0.562500 0.750000
vt 0.562500 0.687500
vt 0.562500 0.625000
vt 0.562500 0.562500
vt 0.562500 0.500000
vt 0.562500 0.437500
vt 0.562500 0.375000
vt 0.562500 0.312500
vt 0.562500 0.250000
vt 0.562500 0.187500
vt 0.562500 0.125000
vt 0.562500 0.062500
vt 0.531250 0.937500
vt 0.531250 0.875000
vt 0.531250 0.812500
vt 0.531250 0.750000
vt 0.531250 0.687500
vt 0.531250 0.625000
vt 0.531250 0.562500
vt 0.531250 0.500000
vt 0.531250 0.437500
vt 0.531250 0.375000
vt 0.531250 0.312500
vt 0.531250 0.250000
vt 0.531250 0.187500
vt 0.531250 0.125000
vt 0.531250 0.062500
vt 0.500000 0.937500
vt 0.500000 0.875000
vt 0.500000 0.812500
vt 0.500000 0.750000
vt 0.500000 0.687500
vt 0.500000 0.625000
vt 0.500000 0.562500
vt 0.500000 0.500000
vt 0.500000 0.437500
vt 0.500000 0.375000
vt 0.500000 0.312500
vt 0.500000 0.250000
vt 0.500000 0.187500
vt 0.500000 0.125000
vt 0.500000 0.062500
vt 0.468750 0.937500
vt 0.468750 0.875000
vt 0.468750 0.812500
vt 0.468750 0.750000
vt 0.468750 0.687500
vt 0.468750 0.625000
vt 0.468750 0.562500
vt 0.468750 0.500000
vt 0.468750 0.437500
vt 0.468750 0.375000
vt 0.468750 0.312500
vt 0.468750 0.250000
vt 0.468750 0.187500
vt 0.468750 0.125000
vt 0.468750 0.062500
vt 0.437500 0.937500
vt 0.437500 0.875000
vt 0.437500 0.812500
vt 0.437500 0.750000
vt 0.437500 0.687500
vt 0.437500 0.625000
vt 0.437500 0.562500
vt 0.437500 0.500000
vt 0.437500 0.437500
vt 0.437500 0.375000
vt 0.437500 0.312500
vt 0.437500 0.250000
vt 0.437500 0.187500
vt 0.437500 0.125000
vt 0.437500 0.062500
vt 0.406250 0.937500
vt 0.406250 0.875000
vt 0.406250 0.812500
vt 0.406250 0.750000
vt 0.406250 0.687500
vt 0.406250 0.625000
vt 0.406250 0.562500
vt 0.406250 0.500000
vt 0.406250 0.437500
vt 0.406250 0.375000
vt 0.406250 0.312500
vt 0.406250 0.250000
vt 0.406250 0.187500
vt 0.406250 0.125000
vt 0.406250 0.062500
vt 0.375000 0.937500
vt 0.375000 0.875000
vt 0.375000 0.812500
vt 0.375000 0.750000
vt 0.375000 0.687500
vt 0.375000 0.625000
vt 0.375000 0.562500
vt 0.375000 0.500000
vt 0.375000 0.437500
vt 0.375000 0.375000
vt 0.375000 0.312500
vt 0.375000 0.250000
vt 0.375000 0.187500
vt 0.375000 0.125000
vt 0.375000 0.062500
vt 0.343750 0.937500
vt 0.343750 0.875000
vt 0.343750 0.812500
vt 0.343750 0.750000
vt 0.343750 0.687500
vt 0.343750 0.625000
vt 0.343750 0.562500
vt 0.343750 0.500000
vt 0.343750 0.437500
vt 0.343750 0.375000
vt 0.343750 0.312500
vt 0.343750 0.250000
vt 0.343750 0.187500
vt 0.343750 0.125000
vt 0.343750 0.062500
vt 0.312500 0.937500
vt 0.312500 0.875000
vt 0.312500 0.812500
vt 0.312500 0.750000
vt 0.312500 0.687500
vt 0.312500 0.625000
vt 0.312500 0.562500
vt 0.312500 0.500000
vt 0.312500 0.437500
vt 0.312500 0.375000
vt 0.312500 0.312500
vt 0.312500 0.250000
vt 0.312500 0.187500
vt 0.312500 0.125000
vt 0.312500 0.062500
vt 0.281250 0.937500
vt 0.281250 0.875000
vt 0.281250 0.812500
vt 0.281250 0.750000
vt 0.281250 0.687500
vt 0.281250 0.625000
vt 0.281250 0.562500
vt 0.281250 0.500000
vt 0.281250 0.437500
vt 0.281250 0.375000
vt 0.281250 0.312500
vt 0.281250 0.250000
vt 0.281250 0.187500
vt 0.281250 0.125000
vt 0.281250 0.062500
vt 0.250000 0.937500
vt 0.250000 0.875000
vt 0.250000 0.812500
vt 0.250000 0.750000
vt 0.250000 0.687500
vt 0.250000 0.625000
vt 0.250000 0.562500
vt 0.250000 0.500000
vt 0.250000 0.437500
vt 0.250000 0.375000
vt 0.250000 0.312500
vt 0.250000 0.250000
vt 0.250000 0.187500
vt 0.250000 0.125000
vt 0.250000 0.062500
vt 0.218750 0.937500
vt 0.218750 0.875000
vt 0.218750 0.812500
vt 0.218750 0.750000
vt 0.218750 0.687500
vt 0.218750 0.625000
vt 0.218750 0.562500
vt 0.218750 0.500000
vt 0.218750 0.437500
vt 0.218750 0.375000
vt 0.218750 0.312500
vt 0.218750 0.250000
vt 0.218750 0.187500
vt 0.218750 0.125000
vt 0.218750 0.062500
vt 0.187500 0.937500
vt 0.187500 0.875000
vt 0.187500 0.812500
vt 0.187500 0.750000
vt 0.187500 0.687500
vt 0.187500 0.625000
vt 0.187500 0.562500
vt 0.187500 0.500000
vt 0.187500 0.437500
vt 0.187500 0.375000
vt 0.187500 0.312500
vt 0.187500 0.250000
vt 0.187500 0.187500
vt 0.187500 0.125000
vt 0.187500 0.062500
vt 0.156250 0.937500
vt 0.156250 0.875000
vt 0.156250 0.812500
vt 0.156250 0.750000
vt 0.156250 0.687500
vt 0.156250 0.625000
vt 0.156250 0.562500
vt 0.156250 0.500000
vt 0.156250 0.437500
vt 0.156250 0.375000
vt 0.156250 0.312500
vt 0.156250 0.250000
vt 0.156250 0.187500
vt 0.156250 0.125000
vt 0.156250 0.062500
vt 0.125000 0.937500
vt 0.125000 0.875000
vt 0.125000 0.812500
vt 0.125000 0.750000
vt 0.125000 0.687500
vt 0.125000 0.625000
vt 0.125000 0.562500
vt 0.125000 0.500000
vt 0.125000 0.437500
vt 0.125000 0.375000
vt 0.125000 0.312500
vt 0.125000 0.250000
vt 0.125000 0.187500
vt 0.125000 0.125000
vt 0.125000 0.062500
vt 0.734375 0.000000
vt 0.703125 0.000000
vt 0.671875 0.000000
vt 0.640625 0.000000
vt 0.609375 0.000000
vt 0.578125 0.000000
vt 0.546875 0.000000
vt 0.515625 0.000000
vt 0.484375 0.000000
vt 0.453125 0.000000
vt 0.421875 0.000000
vt 0.390625 0.000000
vt 0.359375 0.000000
vt 0.328125 0.000000
vt 0.296875 0.000000
vt 0.265625 0.000000
vt 0.234375 0.000000
vt 0.203125 0.000000
vt 0.171875 0.000000
vt 0.140625 0.000000
vt 0.109375 0.000000
vt 0.078125 0.000000
vt 0.046875 0.000000
vt 0.015625 0.000000
vt 0.984375 0.000000
vt 0.953125 0.000000
vt 0.921875 0.000000
vt 0.890625 0.000000
vt 0.859375 0.000000
vt 0.828125 0.000000
vt 0.796875 0.000000
vt 0.765625 0.000000
vt 0.093750 0.937500
vt 0.093750 0.875000
vt 0.093750 0.812500
vt 0.093750 0.750000
vt 0.093750 0.687500
vt 0.093750 0.625000
vt 0.093750 0.562500
vt 0.093750 0.500000
vt 0.093750 0.437500
vt 0.093750 0.375000
vt 0.093750 0.312500
vt 0.093750 0.250000
vt 0.093750 0.187500
vt 0.093750 0.125000
vt 0.093750 0.062500
vt 0.062500 0.937500
vt 0.062500 0.875000
vt 0.062500 0.812500
vt 0.062500 0.750000
vt 0.062500 0.687500
vt 0.062500 0.625000
vt 0.062500 0.562500
vt 0.062500 0.500000
vt 0.062500 0.437500
vt 0.062500 0.375000
vt 0.062500 0.312500
vt 0.062500 0.250000
vt 0.062500 0.187500
vt 0.062500 0.125000
vt 0.062500 0.062500
vt 0.031250 0.937500
vt 0.031250 0.875000
vt 0.031250 0.812500
vt 0.031250 0.750000
vt 0.031250 0.687500
vt 0.031250 0.625000
vt 0.031250 0.562500
vt 0.031250 0.500000
vt 0.031250 0.437500
vt 0.031250 0.375000
vt 0.031250 0.312500
vt 0.031250 0.250000
vt 0.031250 0.187500
vt 0.031250 0.125000
vt 0.031250 0.062500
vt 0.000000 0.937500
vt 1.000000 0.937500
vt 0.000000 0.875000
vt 1.000000 0.875000
vt 0.000000 0.812500
vt 1.000000 0.812500
vt 0.000000 0.750000
vt 1.000000 0.750000
vt 0.000000 0.687500
vt 1.000000 0.687500
vt 0.000000 0.625000
vt 1.000000 0.625000
vt 0.000000 0.562500
vt 1.000000 0.562500
vt 0.000000 0.500000
vt 1.000000 0.500000
vt 0.000000 0.437500
vt 1.000000 0.437500
vt 0.000000 0.375000
vt 1.000000 0.375000
vt 0.000000 0.312500
vt 1.000000 0.312500
vt 0.000000 0.250000
vt 1.000000 0.250000
vt 0.000000 0.187500
vt 1.000000 0.187500
vt 0.000000 0.125000
vt 1.000000 0.125000
vt 0.000000 0.062500
vt 1.000000 0.062500
vt 0.968750 0.937500
vt 0.968750 0.875000
vt 0.968750 0.812500
vt 0.968750 0.750000
vt 0.968750 0.687500
vt 0.968750 0.625000
vt 0.968750 0.562500
vt 0.968750 0.500000
vt 0.968750 0.437500
vt 0.968750 0.375000
vt 0.968750 0.312500
vt 0.968750 0.250000
vt 0.968750 0.187500
vt 0.968750 0.125000
vt 0.968750 0.062500
vt 0.937500 0.937500
vt 0.937500 0.875000
vt 0.937500 0.812500
vt 0.937500 0.750000
vt 0.937500 0.687500
vt 0.937500 0.625000
vt 0.937500 0.562500
vt 0.937500 0.500000
vt 0.937500 0.437500
vt 0.937500 0.375000
vt 0.937500 0.312500
vt 0.937500 0.250000
vt 0.937500 0.187500
vt 0.937500 0.125000
vt 0.937500 0.062500
vt 0.906250 0.937500
vt 0.906250 0.875000
vt 0.906250 0.812500
vt 0.906250 0.750000
vt 0.906250 0.687500
vt 0.906250 0.625000
vt 0.906250 0.562500
vt 0.906250 0.500000
vt 0.906250 0.437500
vt 0.906250 0.375000
vt 0.906250 0.312500
vt 0.906250 0.250000
vt 0.906250 0.187500
vt 0.906250 0.125000
vt 0.906250 0.062500
vt 0.875000 0.937500
vt 0.875000 0.875000
vt 0.875000 0.812500
vt 0.875000 0.750000
vt 0.875000 0.687500
vt 0.875000 0.625000
vt 0.875000 0.562500
vt 0.875000 0.500000
vt 0.875000 0.437500
vt 0.875000 0.375000
vt 0.875000 0.312500
vt 0.875000 0.250000
vt 0.875000 0.187500
vt 0.875000 0.125000
vt 0.875000 0.062500
vt 0.843750 0.937500
vt 0.843750 0.875000
vt 0.843750 0.812500
vt 0.843750 0.750000
vt 0.843750 0.687500
vt 0.843750 0.625000
vt 0.843750 0.562500
vt 0.843750 0.500000
vt 0.843750 0.437500
vt 0.843750 0.375000
vt 0.843750 0.312500
vt 0.843750 0.250000
vt 0.843750 0.187500
vt 0.843750 0.125000
vt 0.843750 0.062500
vt 0.812500 0.937500
vt 0.812500 0.875000
vt 0.812500 0.812500
vt 0.812500 0.750000
vt 0.812500 0.687500
vt 0.812500 0.625000
vt 0.812500 0.562500
vt 0.812500 0.500000
vt 0.812500 0.437500
vt 0.812500 0.375000
vt 0.812500 0.312500
vt 0.812500 0.250000
vt 0.812500 0.187500
vt 0.812500 0.125000
vt 0.812500 0.062500
vt 0.781250 0.937500
vt 0.781250 0.875000
vt 0.781250 0.812500
vt 0.781250 0.750000
vt 0.781250 0.687500
vt 0.781250 0.625000
vt 0.781250 0.562500
vt 0.781250 0.500000
vt 0.781250 0.437500
vt 0.781250 0.375000
vt 0.781250 0.312500
vt 0.781250 0.250000
vt 0.781250 0.187500
vt 0.781250 0.125000
vt 0.781250 0.062500
vt 0.750000 0.937500
vt 0.750000 0.875000
vt 0.750000 0.750000
vt 0.750000 0.625000
vt 0.750000 0.375000
vt 0.750000 0.250000
vt 0.750000 0.187500
vt 0.750000 0.125000
vt 0.750000 0.062500
s 1
usemtl マテリアル.001
f 479/556/1 17/17/2 18/18/3
f 476/553/4 11/11/5 2/2/6
f 479/556/1 19/19/7 480/557/8
f 477/554/9 11/11/5 12/12/10
f 480/557/8 20/20/11 481/558/12
f 3/3/13 12/12/10 13/13/14
f 481/558/12 21/21/15 482/559/16
f 3/3/13 14/14/17 4/4/18
f 474/551/19 82/82/20 7/7/21
f 308/339/22 482/559/16 21/21/15
f 4/4/18 15/15/23 5/5/24
f 475/552/25 7/7/21 8/8/26
f 5/5/24 16/16/27 478/555/28
f 1/1/29 8/8/26 9/9/30
f 478/555/28 17/17/2 6/6/31
f 476/553/4 9/9/30 10/10/32
f 17/17/2 31/31/33 32/32/34
f 9/9/30 25/25/35 10/10/32
f 18/18/3 32/32/34 33/33/36
f 10/10/32 26/26/37 11/11/5
f 19/19/7 33/33/36 34/34/38
f 11/11/5 27/27/39 12/12/10
f 20/20/11 34/34/38 35/35/40
f 13/13/14 27/27/39 28/28/41
f 20/20/11 36/36/42 21/21/15
f 13/13/14 29/29/43 14/14/17
f 7/7/21 82/83/20 22/22/44
f 308/340/22 21/21/15 36/36/42
f 14/14/17 30/30/45 15/15/23
f 7/7/21 23/23/46 8/8/26
f 15/15/23 31/31/33 16/16/27
f 8/8/26 24/24/47 9/9/30
f 36/36/42 50/50/48 51/51/49
f 29/29/43 43/43/50 44/44/51
f 22/22/44 82/84/20 37/37/52
f 308/341/22 36/36/42 51/51/49
f 29/29/43 45/45/53 30/30/45
f 22/22/44 38/38/54 23/23/46
f 30/30/45 46/46/55 31/31/33
f 23/23/46 39/39/56 24/24/47
f 32/32/34 46/46/55 47/47/57
f 24/24/47 40/40/58 25/25/35
f 33/33/36 47/47/57 48/48/59
f 25/25/35 41/41/60 26/26/37
f 34/34/38 48/48/59 49/49/61
f 26/26/37 42/42/62 27/27/39
f 35/35/40 49/49/61 50/50/48
f 28/28/41 42/42/62 43/43/50
f 39/39/56 55/55/63 40/40/58
f 47/47/57 63/63/64 48/48/59
f 41/41/60 55/55/63 56/56/65
f 49/49/61 63/63/64 64/64/66
f 41/41/60 57/57/67 42/42/62
f 50/50/48 64/64/66 65/65/68
f 43/43/50 57/57/67 58/58/69
f 51/51/49 65/65/68 66/66/70
f 44/44/51 58/58/69 59/59/71
f 37/37/52 82/85/20 52/52/72
f 308/342/22 51/51/49 66/66/70
f 44/44/51 60/60/73 45/45/53
f 37/37/52 53/53/74 38/38/54
f 45/45/53 61/61/75 46/46/55
f 38/38/54 54/54/76 39/39/56
f 47/47/57 61/61/75 62/62/77
f 59/59/71 73/73/78 74/74/79
f 52/52/72 82/86/20 67/67/80
f 308/343/22 66/66/70 81/81/81
f 59/59/71 75/75/82 60/60/73
f 53/53/74 67/67/80 68/68/83
f 60/60/73 76/76/84 61/61/75
f 54/54/76 68/68/83 69/69/85
f 62/62/77 76/76/84 77/77/86
f 54/54/76 70/70/87 55/55/63
f 62/62/77 78/78/88 63/63/64
f 56/56/65 70/70/87 71/71/89
f 64/64/66 78/78/88 79/79/90
f 56/56/65 72/72/91 57/57/67
f 64/64/66 80/80/92 65/65/68
f 58/58/69 72/72/91 73/73/78
f 65/65/68 81/81/81 66/66/70
f 77/77/86 94/125/93 78/78/88
f 71/71/89 86/117/94 87/118/95
f 79/79/90 94/125/93 95/126/96
f 71/71/89 88/119/97 72/72/91
f 80/80/92 95/126/96 96/127/98
f 73/73/78 88/119/97 89/120/99
f 81/81/81 96/127/98 97/128/100
f 74/74/79 89/120/99 90/121/101
f 67/67/80 82/87/20 83/114/102
f 308/344/22 81/81/81 97/128/100
f 74/74/79 91/122/103 75/75/82
f 67/67/80 84/115/104 68/68/83
f 75/75/82 92/123/105 76/76/84
f 68/68/83 85/116/106 69/69/85
f 77/77/86 92/123/105 93/124/107
f 69/69/85 86/117/94 70/70/87
f 83/114/102 82/88/20 98/129/108
f 308/345/22 97/128/100 112/143/109
f 90/121/101 106/137/110 91/122/103
f 83/114/102 99/130/111 84/115/104
f 91/122/103 107/138/112 92/123/105
f 85/116/106 99/130/111 100/131/113
f 93/124/107 107/138/112 108/139/114
f 85/116/106 101/132/115 86/117/94
f 93/124/107 109/140/116 94/125/93
f 87/118/95 101/132/115 102/133/117
f 95/126/96 109/140/116 110/141/118
f 87/118/95 103/134/119 88/119/97
f 95/126/96 111/142/120 96/127/98
f 89/120/99 103/134/119 104/135/121
f 96/127/98 112/143/109 97/128/100
f 90/121/101 104/135/121 105/136/122
f 102/133/117 116/147/123 117/148/124
f 110/141/118 124/155/125 125/156/126
f 102/133/117 118/149/127 103/134/119
f 111/142/120 125/156/126 126/157/128
f 104/135/121 118/149/127 119/150/129
f 111/142/120 127/158/130 112/143/109
f 105/136/122 119/150/129 120/151/131
f 98/129/108 82/89/20 113/144/132
f 308/346/22 112/143/109 127/158/130
f 105/136/122 121/152/133 106/137/110
f 98/129/108 114/145/134 99/130/111
f 106/137/110 122/153/135 107/138/112
f 99/130/111 115/146/136 100/131/113
f 108/139/114 122/153/135 123/154/137
f 100/131/113 116/147/123 101/132/115
f 108/139/114 124/155/125 109/140/116
f 120/151/131 136/167/138 121/152/133
f 114/145/134 128/159/139 129/160/140
f 121/152/133 137/168/141 122/153/135
f 115/146/136 129/160/140 130/161/142
f 123/154/137 137/168/141 138/169/143
f 115/146/136 131/162/144 116/147/123
f 123/154/137 139/170/145 124/155/125
f 117/148/124 131/162/144 132/163/146
f 125/156/126 139/170/145 140/171/147
f 117/148/124 133/164/148 118/149/127
f 125/156/126 141/172/149 126/157/128
f 119/150/129 133/164/148 134/165/150
f 126/157/128 142/173/151 127/158/130
f 120/151/131 134/165/150 135/166/152
f 113/144/132 82/90/20 128/159/139
f 308/347/22 127/158/130 142/173/151
f 140/171/147 154/185/153 155/186/154
f 132/163/146 148/179/155 133/164/148
f 141/172/149 155/186/154 156/187/156
f 134/165/150 148/179/155 149/180/157
f 141/172/149 157/188/158 142/173/151
f 135/166/152 149/180/157 150/181/159
f 128/159/139 82/91/20 143/174/160
f 308/348/22 142/173/151 157/188/158
f 135/166/152 151/182/161 136/167/138
f 128/159/139 144/175/162 129/160/140
f 136/167/138 152/183/163 137/168/141
f 129/160/140 145/176/164 130/161/142
f 138/169/143 152/183/163 153/184/165
f 130/161/142 146/177/166 131/162/144
f 138/169/143 154/185/153 139/170/145
f 132/163/146 146/177/166 147/178/167
f 151/182/161 167/198/168 152/183/163
f 144/175/162 160/191/169 145/176/164
f 153/184/165 167/198/168 168/199/170
f 145/176/164 161/192/171 146/177/166
f 153/184/165 169/200/172 154/185/153
f 147/178/167 161/192/171 162/193/173
f 155/186/154 169/200/172 170/201/174
f 147/178/167 163/194/175 148/179/155
f 156/187/156 170/201/174 171/202/176
f 149/180/157 163/194/175 164/195/177
f 157/188/158 171/202/176 172/203/178
f 150/181/159 164/195/177 165/196/179
f 143/174/160 82/92/20 158/189/180
f 308/349/22 157/188/158 172/203/178
f 150/181/159 166/197/181 151/182/161
f 143/174/160 159/190/182 144/175/162
f 171/202/176 185/216/183 186/217/184
f 164/195/177 178/209/185 179/210/186
f 172/203/178 186/217/184 187/218/187
f 165/196/179 179/210/186 180/211/188
f 158/189/180 82/93/20 173/204/189
f 308/350/22 172/203/178 187/218/187
f 165/196/179 181/212/190 166/197/181
f 158/189/180 174/205/191 159/190/182
f 166/197/181 182/213/192 167/198/168
f 159/190/182 175/206/193 160/191/169
f 168/199/170 182/213/192 183/214/194
f 160/191/169 176/207/195 161/192/171
f 168/199/170 184/215/196 169/200/172
f 162/193/173 176/207/195 177/208/197
f 170/201/174 184/215/196 185/216/183
f 162/193/173 178/209/185 163/194/175
f 175/206/193 189/220/198 190/221/199
f 183/214/194 197/228/200 198/229/201
f 175/206/193 191/222/202 176/207/195
f 183/214/194 199/230/203 184/215/196
f 177/208/197 191/222/202 192/223/204
f 185/216/183 199/230/203 200/231/205
f 177/208/197 193/224/206 178/209/185
f 185/216/183 201/232/207 186/217/184
f 179/210/186 193/224/206 194/225/208
f 186/217/184 202/233/209 187/218/187
f 180/211/188 194/225/208 195/226/210
f 173/204/189 82/94/20 188/219/211
f 308/351/22 187/218/187 202/233/209
f 180/211/188 196/227/212 181/212/190
f 174/205/191 188/219/211 189/220/198
f 181/212/190 197/228/200 182/213/192
f 194/225/208 208/239/213 209/240/214
f 202/233/209 216/247/215 217/248/216
f 195/226/210 209/240/214 210/241/217
f 188/219/211 82/95/20 203/234/218
f 308/352/22 202/233/209 217/248/216
f 195/226/210 211/242/219 196/227/212
f 188/219/211 204/235/220 189/220/198
f 196/227/212 212/243/221 197/228/200
f 189/220/198 205/236/222 190/221/199
f 198/229/201 212/243/221 213/244/223
f 190/221/199 206/237/224 191/222/202
f 198/229/201 214/245/225 199/230/203
f 192/223/204 206/237/224 207/238/226
f 200/231/205 214/245/225 215/246/227
f 192/223/204 208/239/213 193/224/206
f 201/232/207 215/246/227 216/247/215
f 213/244/223 227/258/228 228/259/229
f 205/236/222 221/252/230 206/237/224
f 213/244/223 229/260/231 214/245/225
f 207/238/226 221/252/230 222/253/232
f 215/246/227 229/260/231 230/261/233
f 207/238/226 223/254/234 208/239/213
f 216/247/215 230/261/233 231/262/235
f 209/240/214 223/254/234 224/255/236
f 217/248/216 231/262/235 232/263/237
f 210/241/217 224/255/236 225/256/238
f 203/234/218 82/96/20 218/249/239
f 308/353/22 217/248/216 232/263/237
f 210/241/217 226/257/240 211/242/219
f 203/234/218 219/250/241 204/235/220
f 211/242/219 227/258/228 212/243/221
f 204/235/220 220/251/242 205/236/222
f 231/262/235 247/278/243 232/263/237
f 225/256/238 239/270/244 240/271/245
f 218/249/239 82/97/20 233/264/246
f 308/354/22 232/263/237 247/278/243
f 225/256/238 241/272/247 226/257/240
f 219/250/241 233/264/246 234/265/248
f 226/257/240 242/273/249 227/258/228
f 219/250/241 235/266/250 220/251/242
f 228/259/229 242/273/249 243/274/251
f 220/251/242 236/267/252 221/252/230
f 228/259/229 244/275/253 229/260/231
f 222/253/232 236/267/252 237/268/254
f 230/261/233 244/275/253 245/276/255
f 222/253/232 238/269/256 223/254/234
f 231/262/235 245/276/255 246/277/257
f 224/255/236 238/269/256 239/270/244
f 235/266/250 251/282/258 236/267/252
f 243/274/251 259/290/259 244/275/253
f 237/268/254 251/282/258 252/283/260
f 245/276/255 259/290/259 260/291/261
f 237/268/254 253/284/262 238/269/256
f 245/276/255 261/292/263 246/277/257
f 239/270/244 253/284/262 254/285/264
f 246/277/257 262/293/265 247/278/243
f 240/271/245 254/285/264 255/286/266
f 233/264/246 82/98/20 248/279/267
f 308/355/22 247/278/243 262/293/265
f 240/271/245 256/287/268 241/272/247
f 234/265/248 248/279/267 249/280/269
f 241/272/247 257/288/270 242/273/249
f 235/266/250 249/280/269 250/281/271
f 243/274/251 257/288/270 258/289/272
f 255/286/266 269/300/273 270/301/274
f 248/279/267 82/99/20 263/294/275
f 308/356/22 262/293/265 277/308/276
f 255/286/266 271/302/277 256/287/268
f 249/280/269 263/294/275 264/295/278
f 256/287/268 272/303/279 257/288/270
f 249/280/269 265/296/280 250/281/271
f 258/289/272 272/303/279 273/304/281
f 250/281/271 266/297/282 251/282/258
f 258/289/272 274/305/283 259/290/259
f 252/283/260 266/297/282 267/298/284
f 260/291/261 274/305/283 275/306/285
f 252/283/260 268/299/286 253/284/262
f 261/292/263 275/306/285 276/307/287
f 254/285/264 268/299/286 269/300/273
f 261/292/263 277/308/276 262/293/265
f 273/304/281 289/320/288 274/305/283
f 267/298/284 281/312/289 282/313/290
f 275/306/285 289/320/288 290/321/291
f 267/298/284 283/314/292 268/299/286
f 275/306/285 291/322/293 276/307/287
f 269/300/273 283/314/292 284/315/294
f 276/307/287 292/323/295 277/308/276
f 270/301/274 284/315/294 285/316/296
f 263/294/275 82/100/20 278/309/297
f 308/357/22 277/308/276 292/323/295
f 270/301/274 286/317/298 271/302/277
f 263/294/275 279/310/299 264/295/278
f 271/302/277 287/318/300 272/303/279
f 264/295/278 280/311/301 265/296/280
f 273/304/281 287/318/300 288/319/302
f 265/296/280 281/312/289 266/297/282
f 308/358/22 292/323/295 307/338/303
f 285/316/296 301/332/304 286/317/298
f 278/309/297 294/325/305 279/310/299
f 286/317/298 302/333/306 287/318/300
f 280/311/301 294/325/305 295/326/307
f 288/319/302 302/333/306 303/334/308
f 280/311/301 296/327/309 281/312/289
f 288/319/302 304/335/310 289/320/288
f 282/313/290 296/327/309 297/328/311
f 290/321/291 304/335/310 305/336/312
f 282/313/290 298/329/313 283/314/292
f 290/321/291 306/337/314 291/322/293
f 284/315/294 298/329/313 299/330/315
f 292/323/295 306/337/314 307/338/303
f 285/316/296 299/330/315 300/331/316
f 278/309/297 82/101/20 293/324/317
f 305/336/312 320/382/318 321/383/319
f 297/328/311 314/376/320 298/329/313
f 305/336/312 322/384/321 306/337/314
f 299/330/315 314/376/320 315/377/322
f 306/337/314 323/385/323 307/338/303
f 300/331/316 315/377/322 316/378/324
f 293/324/317 82/102/20 309/371/325
f 308/359/22 307/338/303 323/385/323
f 300/331/316 317/379/326 301/332/304
f 294/325/305 309/371/325 310/372/327
f 301/332/304 318/380/328 302/333/306
f 295/326/307 310/372/327 311/373/329
f 303/334/308 318/380/328 319/381/330
f 295/326/307 312/374/331 296/327/309
f 303/334/308 320/382/318 304/335/310
f 297/328/311 312/374/331 313/375/332
f 309/371/325 325/387/333 310/372/327
f 317/379/326 333/395/334 318/380/328
f 310/372/327 326/388/335 311/373/329
f 319/381/330 333/395/334 334/396/336
f 311/373/329 327/389/337 312/374/331
f 319/381/330 335/397/338 320/382/318
f 313/375/332 327/389/337 328/390/339
f 321/383/319 335/397/338 336/398/340
f 313/375/332 329/391/341 314/376/320
f 321/383/319 337/399/342 322/384/321
f 315/377/322 329/391/341 330/392/343
f 323/385/323 337/399/342 338/400/344
f 316/378/324 330/392/343 331/393/345
f 309/371/325 82/103/20 324/386/346
f 308/360/22 323/385/323 338/400/344
f 316/378/324 332/394/347 317/379/326
f 328/390/339 344/406/348 329/391/341
f 336/398/340 352/414/349 337/399/342
f 330/392/343 344/406/348 345/407/350
f 338/400/344 352/414/349 353/415/351
f 331/393/345 345/407/350 346/408/352
f 324/386/346 82/104/20 339/401/353
f 308/361/22 338/400/344 353/415/351
f 331/393/345 347/409/354 332/394/347
f 324/386/346 340/402/355 325/387/333
f 332/394/347 348/410/356 333/395/334
f 326/388/335 340/402/355 341/403/357
f 334/396/336 348/410/356 349/411/358
f 326/388/335 342/404/359 327/389/337
f 334/396/336 350/412/360 335/397/338
f 328/390/339 342/404/359 343/405/361
f 336/398/340 350/412/360 351/413/362
f 347/409/354 363/434/363 348/410/356
f 341/403/357 355/418/364 356/420/365
f 349/411/358 363/434/363 364/436/366
f 341/403/357 357/422/367 342/404/359
f 349/411/358 365/438/368 350/412/360
f 343/405/361 357/422/367 358/424/369
f 351/413/362 365/438/368 366/440/370
f 343/405/361 359/426/371 344/406/348
f 351/413/362 367/442/372 352/414/349
f 345/407/350 359/426/371 360/428/373
f 353/415/351 367/442/372 368/444/374
f 346/408/352 360/428/373 361/430/375
f 339/401/353 82/105/20 354/416/376
f 308/362/22 353/415/351 368/444/374
f 346/408/352 362/432/377 347/409/354
f 339/401/353 355/418/364 340/402/355
f 366/441/370 382/459/378 367/443/372
f 360/429/373 374/451/379 375/452/380
f 367/443/372 383/460/381 368/445/374
f 361/431/375 375/452/380 376/453/382
f 354/417/376 82/106/20 369/446/383
f 308/363/22 368/445/374 383/460/381
f 361/431/375 377/454/384 362/433/377
f 355/419/364 369/446/383 370/447/385
f 362/433/377 378/455/386 363/435/363
f 356/421/365 370/447/385 371/448/387
f 364/437/366 378/455/386 379/456/388
f 356/421/365 372/449/389 357/423/367
f 364/437/366 380/457/390 365/439/368
f 358/425/369 372/449/389 373/450/391
f 366/441/370 380/457/390 381/458/392
f 358/425/369 374/451/379 359/427/371
f 371/448/387 385/462/393 386/463/394
f 379/456/388 393/470/395 394/471/396
f 371/448/387 387/464/397 372/449/389
f 379/456/388 395/472/398 380/457/390
f 373/450/391 387/464/397 388/465/399
f 381/458/392 395/472/398 396/473/400
f 373/450/391 389/466/401 374/451/379
f 381/458/392 397/474/402 382/459/378
f 375/452/380 389/466/401 390/467/403
f 382/459/378 398/475/404 383/460/381
f 376/453/382 390/467/403 391/468/405
f 369/446/383 82/107/20 384/461/406
f 308/364/22 383/460/381 398/475/404
f 376/453/382 392/469/407 377/454/384
f 370/447/385 384/461/406 385/462/393
f 377/454/384 393/470/395 378/455/386
f 390/467/403 404/481/408 405/482/409
f 398/475/404 412/489/410 413/490/411
f 391/468/405 405/482/409 406/483/412
f 384/461/406 82/108/20 399/476/413
f 308/365/22 398/475/404 413/490/411
f 391/468/405 407/484/414 392/469/407
f 384/461/406 400/477/415 385/462/393
f 392/469/407 408/485/416 393/470/395
f 386/463/394 400/477/415 401/478/417
f 394/471/396 408/485/416 409/486/418
f 386/463/394 402/479/419 387/464/397
f 394/471/396 410/487/420 395/472/398
f 388/465/399 402/479/419 403/480/421
f 396/473/400 410/487/420 411/488/422
f 388/465/399 404/481/408 389/466/401
f 396/473/400 412/489/410 397/474/402
f 409/486/418 423/500/423 424/501/424
f 401/478/417 417/494/425 402/479/419
f 409/486/418 425/502/426 410/487/420
f 403/480/421 417/494/425 418/495/427
f 411/488/422 425/502/426 426/503/428
f 403/480/421 419/496/429 404/481/408
f 411/488/422 427/504/430 412/489/410
f 405/482/409 419/496/429 420/497/431
f 412/489/410 428/505/432 413/490/411
f 406/483/412 420/497/431 421/498/433
f 399/476/413 82/109/20 414/491/434
f 308/366/22 413/490/411 428/505/432
f 406/483/412 422/499/435 407/484/414
f 399/476/413 415/492/436 400/477/415
f 407/484/414 423/500/423 408/485/416
f 401/478/417 415/492/436 416/493/437
f 428/505/432 442/519/438 443/520/439
f 421/498/433 435/512/440 436/513/441
f 414/491/434 82/110/20 429/506/442
f 308/367/22 428/505/432 443/520/439
f 421/498/433 437/514/443 422/499/435
f 414/491/434 430/507/444 415/492/436
f 422/499/435 438/515/445 423/500/423
f 416/493/437 430/507/444 431/508/446
f 424/501/424 438/515/445 439/516/447
f 416/493/437 432/509/448 417/494/425
f 424/501/424 440/517/449 425/502/426
f 418/495/427 432/509/448 433/510/450
f 426/503/428 440/517/449 441/518/451
f 418/495/427 434/511/452 419/496/429
f 426/503/428 442/519/438 427/504/430
f 420/497/431 434/511/452 435/512/440
f 439/516/447 455/532/453 440/517/449
f 433/510/450 447/524/454 448/525/455
f 441/518/451 455/532/453 456/533/456
f 433/510/450 449/526/457 434/511/452
f 441/518/451 457/534/458 442/519/438
f 435/512/440 449/526/457 450/527/459
f 442/519/438 458/535/460 443/520/439
f 436/513/441 450/527/459 451/528/461
f 429/506/442 82/111/20 444/521/462
f 308/368/22 443/520/439 458/535/460
f 436/513/441 452/529/463 437/514/443
f 430/507/444 444/521/462 445/522/464
f 437/514/443 453/530/465 438/515/445
f 431/508/446 445/522/464 446/523/466
f 439/516/447 453/530/465 454/531/467
f 431/508/446 447/524/454 432/509/448
f 444/521/462 82/112/20 459/536/468
f 308/369/22 458/535/460 473/550/469
f 451/528/461 467/544/470 452/529/463
f 444/521/462 460/537/471 445/522/464
f 452/529/463 468/545/472 453/530/465
f 446/523/466 460/537/471 461/538/473
f 454/531/467 468/545/472 469/546/474
f 446/523/466 462/539/475 447/524/454
f 454/531/467 470/547/476 455/532/453
f 448/525/455 462/539/475 463/540/477
f 456/533/456 470/547/476 471/548/478
f 448/525/455 464/541/479 449/526/457
f 456/533/456 472/549/480 457/534/458
f 450/527/459 464/541/479 465/542/481
f 458/535/460 472/549/480 473/550/469
f 451/528/461 465/542/481 466/543/482
f 463/540/477 476/553/4 2/2/6
f 471/548/478 479/556/1 480/557/8
f 464/541/479 2/2/6 477/554/9
f 471/548/478 481/558/12 472/549/480
f 465/542/481 477/554/9 3/3/13
f 472/549/480 482/559/16 473/550/469
f 466/543/482 3/3/13 4/4/18
f 459/536/468 82/113/20 474/551/19
f 308/370/22 473/550/469 482/559/16
f 466/543/482 5/5/24 467/544/470
f 459/536/468 475/552/25 460/537/471
f 467/544/470 478/555/28 468/545/472
f 461/538/473 475/552/25 1/1/29
f 468/545/472 6/6/31 469/546/474
f 462/539/475 1/1/29 476/553/4
f 469/546/474 479/556/1 470/547/476
f 479/556/1 6/6/31 17/17/2
f 476/553/4 10/10/32 11/11/5
f 479/556/1 18/18/3 19/19/7
f 477/554/9 2/2/6 11/11/5
f 480/557/8 19/19/7 20/20/11
f 3/3/13 477/554/9 12/12/10
f 481/558/12 20/20/11 21/21/15
f 3/3/13 13/13/14 14/14/17
f 4/4/18 14/14/17 15/15/23
f 475/552/25 474/551/19 7/7/21
f 5/5/24 15/15/23 16/16/27
f 1/1/29 475/552/25 8/8/26
f 478/555/28 16/16/27 17/17/2
f 476/553/4 1/1/29 9/9/30
f 17/17/2 16/16/27 31/31/33
f 9/9/30 24/24/47 25/25/35
f 18/18/3 17/17/2 32/32/34
f 10/10/32 25/25/35 26/26/37
f 19/19/7 18/18/3 33/33/36
f 11/11/5 26/26/37 27/27/39
f 20/20/11 19/19/7 34/34/38
f 13/13/14 12/12/10 27/27/39
f 20/20/11 35/35/40 36/36/42
f 13/13/14 28/28/41 29/29/43
f 14/14/17 29/29/43 30/30/45
f 7/7/21 22/22/44 23/23/46
f 15/15/23 30/30/45 31/31/33
f 8/8/26 23/23/46 24/24/47
f 36/36/42 35/35/40 50/50/48
f 29/29/43 28/28/41 43/43/50
f 29/29/43 44/44/51 45/45/53
f 22/22/44 37/37/52 38/38/54
f 30/30/45 45/45/53 46/46/55
f 23/23/46 38/38/54 39/39/56
f 32/32/34 31/31/33 46/46/55
f 24/24/47 39/39/56 40/40/58
f 33/33/36 32/32/34 47/47/57
f 25/25/35 40/40/58 41/41/60
f 34/34/38 33/33/36 48/48/59
f 26/26/37 41/41/60 42/42/62
f 35/35/40 34/34/38 49/49/61
f 28/28/41 27/27/39 42/42/62
f 39/39/56 54/54/76 55/55/63
f 47/47/57 62/62/77 63/63/64
f 41/41/60 40/40/58 55/55/63
f 49/49/61 48/48/59 63/63/64
f 41/41/60 56/56/65 57/57/67
f 50/50/48 49/49/61 64/64/66
f 43/43/50 42/42/62 57/57/67
f 51/51/49 50/50/48 65/65/68
f 44/44/51 43/43/50 58/58/69
f 44/44/51 59/59/71 60/60/73
f 37/37/52 52/52/72 53/53/74
f 45/45/53 60/60/73 61/61/75
f 38/38/54 53/53/74 54/54/76
f 47/47/57 46/46/55 61/61/75
f 59/59/71 58/58/69 73/73/78
f 59/59/71 74/74/79 75/75/82
f 53/53/74 52/52/72 67/67/80
f 60/60/73 75/75/82 76/76/84
f 54/54/76 53/53/74 68/68/83
f 62/62/77 61/61/75 76/76/84
f 54/54/76 69/69/85 70/70/87
f 62/62/77 77/77/86 78/78/88
f 56/56/65 55/55/63 70/70/87
f 64/64/66 63/63/64 78/78/88
f 56/56/65 71/71/89 72/72/91
f 64/64/66 79/79/90 80/80/92
f 58/58/69 57/57/67 72/72/91
f 65/65/68 80/80/92 81/81/81
f 77/77/86 93/124/107 94/125/93
f 71/71/89 70/70/87 86/117/94
f 79/79/90 78/78/88 94/125/93
f 71/71/89 87/118/95 88/119/97
f 80/80/92 79/79/90 95/126/96
f 73/73/78 72/72/91 88/119/97
f 81/81/81 80/80/92 96/127/98
f 74/74/79 73/73/78 89/120/99
f 74/74/79 90/121/101 91/122/103
f 67/67/80 83/114/102 84/115/104
f 75/75/82 91/122/103 92/123/105
f 68/68/83 84/115/104 85/116/106
f 77/77/86 76/76/84 92/123/105
f 69/69/85 85/116/106 86/117/94
f 90/121/101 105/136/122 106/137/110
f 83/114/102 98/129/108 99/130/111
f 91/122/103 106/137/110 107/138/112
f 85/116/106 84/115/104 99/130/111
f 93/124/107 92/123/105 107/138/112
f 85/116/106 100/131/113 101/132/115
f 93/124/107 108/139/114 109/140/116
f 87/118/95 86/117/94 101/132/115
f 95/126/96 94/125/93 109/140/116
f 87/118/95 102/133/117 103/134/119
f 95/126/96 110/141/118 111/142/120
f 89/120/99 88/119/97 103/134/119
f 96/127/98 111/142/120 112/143/109
f 90/121/101 89/120/99 104/135/121
f 102/133/117 101/132/115 116/147/123
f 110/141/118 109/140/116 124/155/125
f 102/133/117 117/148/124 118/149/127
f 111/142/120 110/141/118 125/156/126
f 104/135/121 103/134/119 118/149/127
f 111/142/120 126/157/128 127/158/130
f 105/136/122 104/135/121 119/150/129
f 105/136/122 120/151/131 121/152/133
f 98/129/108 113/144/132 114/145/134
f 106/137/110 121/152/133 122/153/135
f 99/130/111 114/145/134 115/146/136
f 108/139/114 107/138/112 122/153/135
f 100/131/113 115/146/136 116/147/123
f 108/139/114 123/154/137 124/155/125
f 120/151/131 135/166/152 136/167/138
f 114/145/134 113/144/132 128/159/139
f 121/152/133 136/167/138 137/168/141
f 115/146/136 114/145/134 129/160/140
f 123/154/137 122/153/135 137/168/141
f 115/146/136 130/161/142 131/162/144
f 123/154/137 138/169/143 139/170/145
f 117/148/124 116/147/123 131/162/144
f 125/156/126 124/155/125 139/170/145
f 117/148/124 132/163/146 133/164/148
f 125/156/126 140/171/147 141/172/149
f 119/150/129 118/149/127 133/164/148
f 126/157/128 141/172/149 142/173/151
f 120/151/131 119/150/129 134/165/150
f 140/171/147 139/170/145 154/185/153
f 132/163/146 147/178/167 148/179/155
f 141/172/149 140/171/147 155/186/154
f 134/165/150 133/164/148 148/179/155
f 141/172/149 156/187/156 157/188/158
f 135/166/152 134/165/150 149/180/157
f 135/166/152 150/181/159 151/182/161
f 128/159/139 143/174/160 144/175/162
f 136/167/138 151/182/161 152/183/163
f 129/160/140 144/175/162 145/176/164
f 138/169/143 137/168/141 152/183/163
f 130/161/142 145/176/164 146/177/166
f 138/169/143 153/184/165 154/185/153
f 132/163/146 131/162/144 146/177/166
f 151/182/161 166/197/181 167/198/168
f 144/175/162 159/190/182 160/191/169
f 153/184/165 152/183/163 167/198/168
f 145/176/164 160/191/169 161/192/171
f 153/184/165 168/199/170 169/200/172
f 147/178/167 146/177/166 161/192/171
f 155/186/154 154/185/153 169/200/172
f 147/178/167 162/193/173 163/194/175
f 156/187/156 155/186/154 170/201/174
f 149/180/157 148/179/155 163/194/175
f 157/188/158 156/187/156 171/202/176
f 150/181/159 149/180/157 164/195/177
f 150/181/159 165/196/179 166/197/181
f 143/174/160 158/189/180 159/190/182
f 171/202/176 170/201/174 185/216/183
f 164/195/177 163/194/175 178/209/185
f 172/203/178 171/202/176 186/217/184
f 165/196/179 164/195/177 179/210/186
f 165/196/179 180/211/188 181/212/190
f 158/189/180 173/204/189 174/205/191
f 166/197/181 181/212/190 182/213/192
f 159/190/182 174/205/191 175/206/193
f 168/199/170 167/198/168 182/213/192
f 160/191/169 175/206/193 176/207/195
f 168/199/170 183/214/194 184/215/196
f 162/193/173 161/192/171 176/207/195
f 170/201/174 169/200/172 184/215/196
f 162/193/173 177/208/197 178/209/185
f 175/206/193 174/205/191 189/220/198
f 183/214/194 182/213/192 197/228/200
f 175/206/193 190/221/199 191/222/202
f 183/214/194 198/229/201 199/230/203
f 177/208/197 176/207/195 191/222/202
f 185/216/183 184/215/196 199/230/203
f 177/208/197 192/223/204 193/224/206
f 185/216/183 200/231/205 201/232/207
f 179/210/186 178/209/185 193/224/206
f 186/217/184 201/232/207 202/233/209
f 180/211/188 179/210/186 194/225/208
f 180/211/188 195/226/210 196/227/212
f 174/205/191 173/204/189 188/219/211
f 181/212/190 196/227/212 197/228/200
f 194/225/208 193/224/206 208/239/213
f 202/233/209 201/232/207 216/247/215
f 195/226/210 194/225/208 209/240/214
f 195/226/210 210/241/217 211/242/219
f 188/219/211 203/234/218 204/235/220
f 196/227/212 211/242/219 212/243/221
f 189/220/198 204/235/220 205/236/222
f 198/229/201 197/228/200 212/243/221
f 190/221/199 205/236/222 206/237/224
f 198/229/201 213/244/223 214/245/225
f 192/223/204 191/222/202 206/237/224
f 200/231/205 199/230/203 214/245/225
f 192/223/204 207/238/226 208/239/213
f 201/232/207 200/231/205 215/246/227
f 213/244/223 212/243/221 227/258/228
f 205/236/222 220/251/242 221/252/230
f 213/244/223 228/259/229 229/260/231
f 207/238/226 206/237/224 221/252/230
f 215/246/227 214/245/225 229/260/231
f 207/238/226 222/253/232 223/254/234
f 216/247/215 215/246/227 230/261/233
f 209/240/214 208/239/213 223/254/234
f 217/248/216 216/247/215 231/262/235
f 210/241/217 209/240/214 224/255/236
f 210/241/217 225/256/238 226/257/240
f 203/234/218 218/249/239 219/250/241
f 211/242/219 226/257/240 227/258/228
f 204/235/220 219/250/241 220/251/242
f 231/262/235 246/277/257 247/278/243
f 225/256/238 224/255/236 239/270/244
f 225/256/238 240/271/245 241/272/247
f 219/250/241 218/249/239 233/264/246
f 226/257/240 241/272/247 242/273/249
f 219/250/241 234/265/248 235/266/250
f 228/259/229 227/258/228 242/273/249
f 220/251/242 235/266/250 236/267/252
f 228/259/229 243/274/251 244/275/253
f 222/253/232 221/252/230 236/267/252
f 230/261/233 229/260/231 244/275/253
f 222/253/232 237/268/254 238/269/256
f 231/262/235 230/261/233 245/276/255
f 224/255/236 223/254/234 238/269/256
f 235/266/250 250/281/271 251/282/258
f 243/274/251 258/289/272 259/290/259
f 237/268/254 236/267/252 251/282/258
f 245/276/255 244/275/253 259/290/259
f 237/268/254 252/283/260 253/284/262
f 245/276/255 260/291/261 261/292/263
f 239/270/244 238/269/256 253/284/262
f 246/277/257 261/292/263 262/293/265
f 240/271/245 239/270/244 254/285/264
f 240/271/245 255/286/266 256/287/268
f 234/265/248 233/264/246 248/279/267
f 241/272/247 256/287/268 257/288/270
f 235/266/250 234/265/248 249/280/269
f 243/274/251 242/273/249 257/288/270
f 255/286/266 254/285/264 269/300/273
f 255/286/266 270/301/274 271/302/277
f 249/280/269 248/279/267 263/294/275
f 256/287/268 271/302/277 272/303/279
f 249/280/269 264/295/278 265/296/280
f 258/289/272 257/288/270 272/303/279
f 250/281/271 265/296/280 266/297/282
f 258/289/272 273/304/281 274/305/283
f 252/283/260 251/282/258 266/297/282
f 260/291/261 259/290/259 274/305/283
f 252/283/260 267/298/284 268/299/286
f 261/292/263 260/291/261 275/306/285
f 254/285/264 253/284/262 268/299/286
f 261/292/263 276/307/287 277/308/276
f 273/304/281 288/319/302 289/320/288
f 267/298/284 266/297/282 281/312/289
f 275/306/285 274/305/283 289/320/288
f 267/298/284 282/313/290 283/314/292
f 275/306/285 290/321/291 291/322/293
f 269/300/273 268/299/286 283/314/292
f 276/307/287 291/322/293 292/323/295
f 270/301/274 269/300/273 284/315/294
f 270/301/274 285/316/296 286/317/298
f 263/294/275 278/309/297 279/310/299
f 271/302/277 286/317/298 287/318/300
f 264/295/278 279/310/299 280/311/301
f 273/304/281 272/303/279 287/318/300
f 265/296/280 280/311/301 281/312/289
f 285/316/296 300/331/316 301/332/304
f 278/309/297 293/324/317 294/325/305
f 286/317/298 301/332/304 302/333/306
f 280/311/301 279/310/299 294/325/305
f 288/319/302 287/318/300 302/333/306
f 280/311/301 295/326/307 296/327/309
f 288/319/302 303/334/308 304/335/310
f 282/313/290 281/312/289 296/327/309
f 290/321/291 289/320/288 304/335/310
f 282/313/290 297/328/311 298/329/313
f 290/321/291 305/336/312 306/337/314
f 284/315/294 283/314/292 298/329/313
f 292/323/295 291/322/293 306/337/314
f 285/316/296 284/315/294 299/330/315
f 305/336/312 304/335/310 320/382/318
f 297/328/311 313/375/332 314/376/320
f 305/336/312 321/383/319 322/384/321
f 299/330/315 298/329/313 314/376/320
f 306/337/314 322/384/321 323/385/323
f 300/331/316 299/330/315 315/377/322
f 300/331/316 316/378/324 317/379/326
f 294/325/305 293/324/317 309/371/325
f 301/332/304 317/379/326 318/380/328
f 295/326/307 294/325/305 310/372/327
f 303/334/308 302/333/306 318/380/328
f 295/326/307 311/373/329 312/374/331
f 303/334/308 319/381/330 320/382/318
f 297/328/311 296/327/309 312/374/331
f 309/371/325 324/386/346 325/387/333
f 317/379/326 332/394/347 333/395/334
f 310/372/327 325/387/333 326/388/335
f 319/381/330 318/380/328 333/395/334
f 311/373/329 326/388/335 327/389/337
f 319/381/330 334/396/336 335/397/338
f 313/375/332 312/374/331 327/389/337
f 321/383/319 320/382/318 335/397/338
f 313/375/332 328/390/339 329/391/341
f 321/383/319 336/398/340 337/399/342
f 315/377/322 314/376/320 329/391/341
f 323/385/323 322/384/321 337/399/342
f 316/378/324 315/377/322 330/392/343
f 316/378/324 331/393/345 332/394/347
f 328/390/339 343/405/361 344/406/348
f 336/398/340 351/413/362 352/414/349
f 330/392/343 329/391/341 344/406/348
f 338/400/344 337/399/342 352/414/349
f 331/393/345 330/392/343 345/407/350
f 331/393/345 346/408/352 347/409/354
f 324/386/346 339/401/353 340/402/355
f 332/394/347 347/409/354 348/410/356
f 326/388/335 325/387/333 340/402/355
f 334/396/336 333/395/334 348/410/356
f 326/388/335 341/403/357 342/404/359
f 334/396/336 349/411/358 350/412/360
f 328/390/339 327/389/337 342/404/359
f 336/398/340 335/397/338 350/412/360
f 347/409/354 362/432/377 363/434/363
f 341/403/357 340/402/355 355/418/364
f 349/411/358 348/410/356 363/434/363
f 341/403/357 356/420/365 357/422/367
f 349/411/358 364/436/366 365/438/368
f 343/405/361 342/404/359 357/422/367
f 351/413/362 350/412/360 365/438/368
f 343/405/361 358/424/369 359/426/371
f 351/413/362 366/440/370 367/442/372
f 345/407/350 344/406/348 359/426/371
f 353/415/351 352/414/349 367/442/372
f 346/408/352 345/407/350 360/428/373
f 346/408/352 361/430/375 362/432/377
f 339/401/353 354/416/376 355/418/364
f 366/441/370 381/458/392 382/459/378
f 360/429/373 359/427/371 374/451/379
f 367/443/372 382/459/378 383/460/381
f 361/431/375 360/429/373 375/452/380
f 361/431/375 376/453/382 377/454/384
f 355/419/364 354/417/376 369/446/383
f 362/433/377 377/454/384 378/455/386
f 356/421/365 355/419/364 370/447/385
f 364/437/366 363/435/363 378/455/386
f 356/421/365 371/448/387 372/449/389
f 364/437/366 379/456/388 380/457/390
f 358/425/369 357/423/367 372/449/389
f 366/441/370 365/439/368 380/457/390
f 358/425/369 373/450/391 374/451/379
f 371/448/387 370/447/385 385/462/393
f 379/456/388 378/455/386 393/470/395
f 371/448/387 386/463/394 387/464/397
f 379/456/388 394/471/396 395/472/398
f 373/450/391 372/449/389 387/464/397
f 381/458/392 380/457/390 395/472/398
f 373/450/391 388/465/399 389/466/401
f 381/458/392 396/473/400 397/474/402
f 375/452/380 374/451/379 389/466/401
f 382/459/378 397/474/402 398/475/404
f 376/453/382 375/452/380 390/467/403
f 376/453/382 391/468/405 392/469/407
f 370/447/385 369/446/383 384/461/406
f 377/454/384 392/469/407 393/470/395
f 390/467/403 389/466/401 404/481/408
f 398/475/404 397/474/402 412/489/410
f 391/468/405 390/467/403 405/482/409
f 391/468/405 406/483/412 407/484/414
f 384/461/406 399/476/413 400/477/415
f 392/469/407 407/484/414 408/485/416
f 386/463/394 385/462/393 400/477/415
f 394/471/396 393/470/395 408/485/416
f 386/463/394 401/478/417 402/479/419
f 394/471/396 409/486/418 410/487/420
f 388/465/399 387/464/397 402/479/419
f 396/473/400 395/472/398 410/487/420
f 388/465/399 403/480/421 404/481/408
f 396/473/400 411/488/422 412/489/410
f 409/486/418 408/485/416 423/500/423
f 401/478/417 416/493/437 417/494/425
f 409/486/418 424/501/424 425/502/426
f 403/480/421 402/479/419 417/494/425
f 411/488/422 410/487/420 425/502/426
f 403/480/421 418/495/427 419/496/429
f 411/488/422 426/503/428 427/504/430
f 405/482/409 404/481/408 419/496/429
f 412/489/410 427/504/430 428/505/432
f 406/483/412 405/482/409 420/497/431
f 406/483/412 421/498/433 422/499/435
f 399/476/413 414/491/434 415/492/436
f 407/484/414 422/499/435 423/500/423
f 401/478/417 400/477/415 415/492/436
f 428/505/432 427/504/430 442/519/438
f 421/498/433 420/497/431 435/512/440
f 421/498/433 436/513/441 437/514/443
f 414/491/434 429/506/442 430/507/444
f 422/499/435 437/514/443 438/515/445
f 416/493/437 415/492/436 430/507/444
f 424/501/424 423/500/423 438/515/445
f 416/493/437 431/508/446 432/509/448
f 424/501/424 439/516/447 440/517/449
f 418/495/427 417/494/425 432/509/448
f 426/503/428 425/502/426 440/517/449
f 418/495/427 433/510/450 434/511/452
f 426/503/428 441/518/451 442/519/438
f 420/497/431 419/496/429 434/511/452
f 439/516/447 454/531/467 455/532/453
f 433/510/450 432/509/448 447/524/454
f 441/518/451 440/517/449 455/532/453
f 433/510/450 448/525/455 449/526/457
f 441/518/451 456/533/456 457/534/458
f 435/512/440 434/511/452 449/526/457
f 442/519/438 457/534/458 458/535/460
f 436/513/441 435/512/440 450/527/459
f 436/513/441 451/528/461 452/529/463
f 430/507/444 429/506/442 444/521/462
f 437/514/443 452/529/463 453/530/465
f 431/508/446 430/507/444 445/522/464
f 439/516/447 438/515/445 453/530/465
f 431/508/446 446/523/466 447/524/454
f 451/528/461 466/543/482 467/544/470
f 444/521/462 459/536/468 460/537/471
f 452/529/463 467/544/470 468/545/472
f 446/523/466 445/522/464 460/537/471
f 454/531/467 453/530/465 468/545/472
f 446/523/466 461/538/473 462/539/475
f 454/531/467 469/546/474 470/547/476
f 448/525/455 447/524/454 462/539/475
f 456/533/456 455/532/453 470/547/476
f 448/525/455 463/540/477 464/541/479
f 456/533/456 471/548/478 472/549/480
f 450/527/459 449/526/457 464/541/479
f 458/535/460 457/534/458 472/549/480
f 451/528/461 450/527/459 465/542/481
f 463/540/477 462/539/475 476/553/4
f 471/548/478 470/547/476 479/556/1
f 464/541/479 463/540/477 2/2/6
f 471/548/478 480/557/8 481/558/12
f 465/542/481 464/541/479 477/554/9
f 472/549/480 481/558/12 482/559/16
f 466/543/482 465/542/481 3/3/13
f 466/543/482 4/4/18 5/5/24
f 459/536/468 474/551/19 475/552/25
f 467/544/470 5/5/24 478/555/28
f 461/538/473 460/537/471 475/552/25
f 468/545/472 478/555/28 6/6/31
f 462/539/475 461/538/473 1/1/29
f 469/546/474 6/6/31 479/556/1
