# Blender v3.5.0 OBJ File: '無題.blend'
# www.blender.org
mtllib Frame.mtl
o Frame_Cube
v 0.650000 0.650000 -1.000000
v 0.650000 1.000000 -0.650000
v 1.000000 0.650000 -0.650000
v 0.650000 -1.000000 -0.650000
v 0.650000 -0.650000 -1.000000
v 1.000000 -0.650000 -0.650000
v 1.000000 0.650000 0.650000
v 0.650000 1.000000 0.650000
v 0.650000 0.650000 1.000000
v 1.000000 -0.650000 0.650000
v 0.650000 -0.650000 1.000000
v 0.650000 -1.000000 0.650000
v -0.650000 0.650000 -1.000000
v -1.000000 0.650000 -0.650000
v -0.650000 1.000000 -0.650000
v -1.000000 -0.650000 -0.650000
v -0.650000 -0.650000 -1.000000
v -0.650000 -1.000000 -0.650000
v -1.000000 0.650000 0.650000
v -0.650000 0.650000 1.000000
v -0.650000 1.000000 0.650000
v -0.650000 -1.000000 0.650000
v -0.650000 -0.650000 1.000000
v -1.000000 -0.650000 0.650000
vt 0.257529 0.462492
vt 0.199674 0.520347
vt 0.199674 0.462492
vt 0.346537 0.284476
vt 0.288682 0.342332
vt 0.288682 0.284476
vt 0.346537 0.551500
vt 0.288682 0.609355
vt 0.288682 0.551500
vt 0.435545 0.462492
vt 0.377689 0.520347
vt 0.377689 0.462492
vt 0.346537 0.462492
vt 0.288682 0.520347
vt 0.288682 0.462492
vt 0.346537 0.431340
vt 0.362113 0.431340
vt 0.346537 0.446916
vt 0.257529 0.446916
vt 0.273105 0.462492
vt 0.346537 0.535924
vt 0.362113 0.551500
vt 0.273105 0.520347
vt 0.257529 0.535924
vt 0.257529 0.520347
vt 0.346537 0.357908
vt 0.346537 0.342332
vt 0.362113 0.342332
vt 0.184097 0.462492
vt 0.199674 0.446916
vt 0.346537 0.268900
vt 0.362113 0.284476
vt 0.199674 0.535924
vt 0.184097 0.520347
vt 0.288682 0.268900
vt 0.346537 0.520347
vt 0.288682 0.373484
vt 0.346537 0.373484
vt 0.362113 0.609355
vt 0.362113 0.373484
vt 0.288682 0.431340
vt 0.346537 0.609355
vt 0.435545 0.520347
vn 0.0000 -1.0000 0.0000
vn -1.0000 0.0000 0.0000
vn 0.0000 0.0000 1.0000
vn 0.0000 1.0000 0.0000
vn 1.0000 0.0000 0.0000
vn 0.5774 0.5774 -0.5774
vn 0.5774 -0.5774 -0.5774
vn 0.5774 0.5774 0.5774
vn 0.5774 -0.5774 0.5774
vn -0.5774 0.5774 -0.5774
vn -0.5774 -0.5774 -0.5774
vn -0.5774 0.5774 0.5774
vn -0.5774 -0.5774 0.5774
vn -0.7071 -0.7071 0.0000
vn 0.0000 -0.7071 -0.7071
vn 0.7071 0.0000 -0.7071
vn -0.7071 0.0000 0.7071
vn 0.7071 0.0000 0.7071
vn -0.7071 0.0000 -0.7071
vn 0.0000 0.7071 0.7071
vn 0.7071 0.7071 0.0000
vn 0.0000 -0.7071 0.7071
vn -0.7071 0.7071 0.0000
vn 0.0000 0.7071 -0.7071
vn 0.7071 -0.7071 0.0000
vn 0.0000 0.0000 -1.0000
usemtl Material
s off
f 4/1/1 22/2/1 18/3/1
f 19/4/2 16/5/2 24/6/2
f 9/7/3 23/8/3 11/9/3
f 15/10/4 8/11/4 2/12/4
f 3/13/5 10/14/5 6/15/5
f 1/16/6 2/17/6 3/18/6
f 4/1/7 5/19/7 6/20/7
f 7/21/8 8/22/8 9/7/8
f 10/23/9 11/24/9 12/25/9
f 13/26/10 14/27/10 15/28/10
f 16/29/11 17/30/11 18/3/11
f 19/4/12 20/31/12 21/32/12
f 22/2/13 23/33/13 24/34/13
f 22/2/14 16/29/14 18/3/14
f 18/3/15 5/19/15 4/1/15
f 6/15/16 1/16/16 3/13/16
f 20/31/17 24/6/17 23/35/17
f 11/9/18 7/36/18 9/7/18
f 17/37/19 14/27/19 13/38/19
f 21/39/20 9/7/20 8/22/20
f 8/11/21 3/13/21 2/12/21
f 12/25/22 23/33/22 22/2/22
f 15/28/23 19/4/23 21/32/23
f 2/17/24 13/38/24 15/40/24
f 4/1/25 10/14/25 12/25/25
f 13/38/26 5/41/26 17/37/26
f 4/1/1 12/25/1 22/2/1
f 19/4/2 14/27/2 16/5/2
f 9/7/3 20/42/3 23/8/3
f 15/10/4 21/43/4 8/11/4
f 3/13/5 7/36/5 10/14/5
f 22/2/14 24/34/14 16/29/14
f 18/3/15 17/30/15 5/19/15
f 6/15/16 5/41/16 1/16/16
f 20/31/17 19/4/17 24/6/17
f 11/9/18 10/14/18 7/36/18
f 17/37/19 16/5/19 14/27/19
f 21/39/20 20/42/20 9/7/20
f 8/11/21 7/36/21 3/13/21
f 12/25/22 11/24/22 23/33/22
f 15/28/23 14/27/23 19/4/23
f 2/17/24 1/16/24 13/38/24
f 4/1/25 6/15/25 10/14/25
f 13/38/26 1/16/26 5/41/26
