# Blender v3.5.0 OBJ File: ''
# www.blender.org
mtllib Rope.mtl
o 立方体.003_立方体.007
v 0.000000 0.062647 0.001772
v -0.062647 -0.062647 1.970058
v 0.000000 0.062647 1.970058
v -0.062647 -0.062647 0.001772
v 0.062647 -0.062647 1.970058
v 0.062647 -0.062647 0.001772
vt 0.625000 0.000000
vt 0.375000 0.250000
vt 0.375000 0.000000
vt 0.625000 0.250000
vt 0.375000 0.500000
vt 0.625000 0.500000
vt 0.375000 0.750000
vt 0.125000 0.500000
vt 0.125000 0.750000
vt 0.875000 0.500000
vt 0.625000 0.750000
vn -0.8944 0.4472 0.0000
vn 0.0000 -1.0000 0.0000
vn 0.8944 0.4472 0.0000
vn 0.0000 0.0000 1.0000
vn 0.0000 0.0000 -1.0000
usemtl マテリアル
s 1
f 1/1/1 2/2/1 3/3/1
f 4/4/2 5/5/2 2/2/2
f 6/6/3 3/7/3 5/5/3
f 2/8/4 5/5/4 3/9/4
f 6/6/5 4/10/5 1/11/5
f 1/1/1 4/4/1 2/2/1
f 4/4/2 6/6/2 5/5/2
f 6/6/3 1/11/3 3/7/3
