# Blender v3.5.0 OBJ File: ''
# www.blender.org
mtllib Cannon.mtl
o Cannon.001_大砲_円柱.007
v 0.593346 4.775939 0.000000
v 0.000000 -0.886082 0.024055
v 0.581945 4.775939 0.115756
v 0.548181 4.775939 0.227063
v 0.493350 4.775939 0.329645
v 0.419560 4.775939 0.419558
v 0.329646 4.775939 0.493348
v 0.227064 4.775939 0.548180
v 0.115757 4.775939 0.581944
v 0.000001 4.775939 0.593345
v -0.115755 4.775939 0.581944
v -0.227062 4.775939 0.548180
v -0.329644 4.775939 0.493348
v -0.419557 4.775939 0.419558
v -0.493348 4.775939 0.329645
v -0.548179 4.775939 0.227063
v -0.581943 4.775939 0.115756
v -0.593344 4.775939 0.000000
v -0.581943 4.775939 -0.115756
v -0.548179 4.775939 -0.227064
v -0.493348 4.775939 -0.329645
v -0.419557 4.775939 -0.419559
v -0.329644 4.775939 -0.493349
v -0.227062 4.775939 -0.548180
v -0.115755 4.775939 -0.581944
v 0.000001 4.775939 -0.593345
v 0.115757 4.775939 -0.581944
v 0.227064 4.775939 -0.548180
v 0.329646 4.775939 -0.493349
v 0.419560 4.775939 -0.419559
v 0.493350 4.775939 -0.329645
v 0.548181 4.775939 -0.227064
v 0.581945 4.775939 -0.115756
v -0.167894 -1.020065 0.112183
v -0.112183 -1.020065 -0.167894
v 0.167894 -1.020065 -0.112183
v 0.732724 4.067909 -0.145748
v 1.003855 0.341283 0.000000
v 0.984566 0.341283 -0.195842
v 0.690211 4.067909 -0.285894
v 0.927441 0.341283 -0.384159
v 0.834675 0.341283 -0.557712
v 0.528265 4.067909 -0.528264
v 0.709833 0.341283 -0.709833
v 0.415055 4.067909 -0.621172
v 0.557712 0.341283 -0.834675
v 0.384159 0.341283 -0.927441
v 0.195842 0.341283 -0.984566
v 0.285894 4.067909 -0.690210
v 0.000000 4.067909 -0.747078
v 0.000000 0.341283 -1.003855
v -0.195842 0.341283 -0.984566
v -0.285894 4.067909 -0.690210
v -0.384159 0.341283 -0.927441
v -0.415053 4.067909 -0.621172
v -0.557712 0.341283 -0.834675
v -0.528263 4.067909 -0.528264
v -0.709832 0.341283 -0.709833
v -0.621171 4.067909 -0.415054
v -0.834675 0.341283 -0.557712
v -0.690209 4.067909 -0.285894
v -0.927441 0.341283 -0.384159
v -0.732722 4.067909 -0.145748
v -0.984566 0.341283 -0.195842
v -0.747077 4.067909 0.000000
v -1.003855 0.341283 0.000000
v -0.732722 4.067909 0.145747
v -0.984566 0.341283 0.195842
v -0.690209 4.067909 0.285894
v -0.927441 0.341283 0.384159
v -0.621171 4.067909 0.415054
v -0.834675 0.341283 0.557712
v -0.528263 4.067909 0.528264
v -0.709832 0.341283 0.709833
v -0.415053 4.067909 0.621172
v -0.557712 0.341283 0.834675
v -0.285893 4.067909 0.690210
v -0.384159 0.341283 0.927441
v -0.145747 4.067909 0.732723
v -0.195842 0.341283 0.984566
v 0.000001 4.067909 0.747077
v 0.000000 0.341283 1.003855
v 0.145749 4.067909 0.732723
v 0.195842 0.341283 0.984566
v 0.285895 4.067909 0.690210
v 0.384159 0.341283 0.927441
v 0.415055 4.067909 0.621172
v 0.557712 0.341283 0.834675
v 0.528265 4.067909 0.528264
v 0.709833 0.341283 0.709833
v 0.621173 4.067909 0.415054
v 0.834675 0.341283 0.557712
v 0.690211 4.067909 0.285894
v 0.927441 0.341283 0.384159
v 0.732724 4.067909 0.145747
v 0.984566 0.341283 0.195842
v 0.747079 4.067909 0.000000
v 0.670697 4.757177 0.000000
v 0.657810 4.757177 -0.130846
v 0.619643 4.757177 -0.256664
v 0.557664 4.757177 -0.372619
v 0.474255 4.757177 -0.474254
v 0.372620 4.757177 -0.557663
v 0.256665 4.757177 -0.619642
v 0.130847 4.757177 -0.657809
v 0.000001 4.757177 -0.670696
v -0.130845 4.757177 -0.657809
v -0.256663 4.757177 -0.619642
v -0.372618 4.757177 -0.557663
v -0.474252 4.757177 -0.474254
v -0.557662 4.757177 -0.372619
v -0.619641 4.757177 -0.256664
v -0.657808 4.757177 -0.130846
v -0.670695 4.757177 0.000000
v -0.657808 4.757177 0.130846
v -0.619641 4.757177 0.256664
v -0.557662 4.757177 0.372618
v -0.474252 4.757177 0.474253
v -0.372618 4.757177 0.557663
v -0.256663 4.757177 0.619642
v -0.130845 4.757177 0.657808
v 0.000001 4.757177 0.670696
v 0.130847 4.757177 0.657808
v 0.256665 4.757177 0.619642
v 0.372620 4.757177 0.557663
v 0.474255 4.757177 0.474253
v 0.557664 4.757177 0.372618
v 0.619643 4.757177 0.256664
v 0.657810 4.757177 0.130846
v -0.145748 4.067909 -0.732723
v 0.145748 4.067909 -0.732723
v 0.621173 4.067909 -0.415054
v 0.860846 -1.172999 0.171233
v 0.877711 -1.172999 0.000000
v 0.810899 -1.172999 0.335885
v 0.729790 -1.172999 0.487630
v 0.620635 -1.172999 0.620635
v 0.487630 -1.172999 0.729790
v 0.335885 -1.172999 0.810899
v 0.171233 -1.172999 0.860846
v 0.000000 -1.172999 0.877711
v -0.171233 -1.172999 0.860846
v -0.335885 -1.172999 0.810899
v -0.487630 -1.172999 0.729790
v -0.620635 -1.172999 0.620635
v -0.729790 -1.172999 0.487630
v -0.810899 -1.172999 0.335885
v -0.860846 -1.172999 0.171233
v -0.877711 -1.172999 0.000000
v -0.860846 -1.172999 -0.171233
v -0.810899 -1.172999 -0.335885
v -0.729790 -1.172999 -0.487630
v -0.620635 -1.172999 -0.620635
v -0.487630 -1.172999 -0.729790
v -0.335885 -1.172999 -0.810899
v -0.171233 -1.172999 -0.860846
v 0.000000 -1.172999 -0.877711
v 0.171233 -1.172999 -0.860846
v 0.335885 -1.172999 -0.810899
v 0.487630 -1.172999 -0.729790
v 0.620635 -1.172999 -0.620635
v 0.729790 -1.172999 -0.487630
v 0.810899 -1.172999 -0.335885
v 0.860846 -1.172999 -0.171233
v 0.529445 -1.315148 -0.105313
v 0.539818 -1.315148 0.000000
v 0.498727 -1.315148 -0.206579
v 0.448842 -1.315148 -0.299907
v 0.381709 -1.315148 -0.381709
v 0.299907 -1.315148 -0.448842
v 0.206579 -1.315148 -0.498726
v 0.105313 -1.315148 -0.529445
v 0.000000 -1.315148 -0.539818
v -0.105313 -1.315148 -0.529445
v -0.206579 -1.315148 -0.498726
v -0.299907 -1.315148 -0.448842
v -0.381709 -1.315148 -0.381709
v -0.448842 -1.315148 -0.299907
v -0.498727 -1.315148 -0.206579
v -0.529445 -1.315148 -0.105313
v -0.539818 -1.315148 0.000000
v -0.529445 -1.315148 0.105313
v -0.498727 -1.315148 0.206579
v -0.448842 -1.315148 0.299907
v -0.381709 -1.315148 0.381709
v -0.299907 -1.315148 0.448842
v -0.206579 -1.315148 0.498727
v -0.105313 -1.315148 0.529445
v 0.000000 -1.315148 0.539818
v 0.105313 -1.315148 0.529445
v 0.206579 -1.315148 0.498727
v 0.299907 -1.315148 0.448842
v 0.381709 -1.315148 0.381709
v 0.448842 -1.315148 0.299907
v 0.498727 -1.315148 0.206579
v 0.529445 -1.315148 0.105313
v 0.198045 -1.020065 0.039394
v 0.201925 -1.020065 0.000000
v 0.186554 -1.020065 0.077273
v 0.167894 -1.020065 0.112183
v 0.142782 -1.020065 0.142782
v 0.112183 -1.020065 0.167894
v 0.077273 -1.020065 0.186554
v 0.039394 -1.020065 0.198045
v 0.000000 -1.020065 0.201925
v -0.039394 -1.020065 0.198045
v -0.077273 -1.020065 0.186554
v -0.112183 -1.020065 0.167894
v -0.142782 -1.020065 0.142782
v -0.186554 -1.020065 0.077273
v -0.198045 -1.020065 0.039394
v -0.201925 -1.020065 0.000000
v -0.198045 -1.020065 -0.039393
v -0.186554 -1.020065 -0.077273
v -0.167894 -1.020065 -0.112183
v -0.142782 -1.020065 -0.142782
v -0.077273 -1.020065 -0.186554
v -0.039394 -1.020065 -0.198045
v 0.000000 -1.020065 -0.201925
v 0.039394 -1.020065 -0.198045
v 0.077273 -1.020065 -0.186554
v 0.112183 -1.020065 -0.167894
v 0.142782 -1.020065 -0.142782
v 0.186554 -1.020065 -0.077273
v 0.198045 -1.020065 -0.039393
v 1.309936 0.874860 0.000000
v 1.028062 0.343896 0.072721
v 1.309936 0.857633 0.174909
v 1.028062 0.322684 0.142647
v 1.309936 0.806614 0.343097
v 1.028062 0.288238 0.207091
v 1.309936 0.723763 0.498100
v 1.028062 0.241881 0.263577
v 1.309936 0.612265 0.633961
v 1.028062 0.185395 0.309934
v 1.309936 0.476404 0.745459
v 1.028062 0.120951 0.344380
v 1.309936 0.321402 0.828310
v 1.028062 0.051025 0.365592
v 1.309936 0.153214 0.879329
v 1.028062 -0.021696 0.372754
v 1.309936 -0.021696 0.896556
v 1.309936 -0.196605 0.879329
v 1.028062 -0.094416 0.365592
v 1.309936 -0.364793 0.828310
v 1.028062 -0.164343 0.344380
v 1.309936 -0.519796 0.745459
v 1.028062 -0.228787 0.309934
v 1.309936 -0.655656 0.633961
v 1.028062 -0.285273 0.263577
v 1.309936 -0.767155 0.498100
v 1.028062 -0.331629 0.207091
v 1.309936 -0.850005 0.343097
v 1.028062 -0.366075 0.142647
v 1.309936 -0.901025 0.174909
v 1.028062 -0.387287 0.072721
v 1.309936 -0.918252 0.000000
v 1.028062 -0.387287 -0.072721
v 1.309936 -0.901025 -0.174909
v 1.028062 -0.366075 -0.142647
v 1.309936 -0.850005 -0.343097
v 1.028062 -0.331629 -0.207091
v 1.309936 -0.767155 -0.498100
v 1.028062 -0.285273 -0.263577
v 1.309936 -0.655656 -0.633961
v 1.028062 -0.228787 -0.309934
v 1.309936 -0.519796 -0.745459
v 1.028062 -0.164343 -0.344380
v 1.309936 -0.364793 -0.828310
v 1.028062 -0.094416 -0.365592
v 1.309936 -0.196605 -0.879329
v 1.028062 -0.021696 -0.372754
v 1.309936 -0.021696 -0.896556
v 1.309936 0.153214 -0.879329
v 1.028062 0.051025 -0.365592
v 1.309936 0.321402 -0.828310
v 1.028062 0.120951 -0.344380
v 1.309936 0.476404 -0.745459
v 1.028062 0.185395 -0.309934
v 1.309936 0.612265 -0.633961
v 1.028062 0.241881 -0.263577
v 1.309936 0.723763 -0.498100
v 1.028062 0.288238 -0.207091
v 1.309936 0.806614 -0.343097
v 1.028062 0.322684 -0.142647
v 1.309936 0.857633 -0.174909
v 1.028062 0.343896 -0.072721
v 1.800300 0.185395 -0.309934
v 1.800300 0.241881 -0.263577
v 1.800300 -0.228787 -0.309934
v 1.800300 1.371371 -0.277098
v 1.414181 1.819178 0.000000
v 1.800300 1.398662 0.000000
v 1.800300 1.290544 -0.543548
v 1.414181 1.783806 -0.359137
v 1.800300 1.159289 -0.789109
v 1.414181 1.679049 -0.704472
v 1.800300 0.982649 -1.004345
v 1.414181 1.508934 -1.022734
v 1.800300 0.767413 -1.180984
v 1.414181 1.279998 -1.301694
v 1.800300 0.521852 -1.312240
v 1.414181 1.001039 -1.530630
v 1.800300 0.255403 -1.393066
v 1.414181 0.682776 -1.700745
v 1.800300 -0.021696 -1.420358
v 1.414181 0.337441 -1.805501
v 1.414181 -0.380832 -1.805501
v 1.800300 -0.298794 -1.393066
v 1.414181 -0.726167 -1.700745
v 1.800300 -0.565243 -1.312240
v 1.414181 -1.044430 -1.530630
v 1.800300 -0.810804 -1.180984
v 1.414181 -1.323389 -1.301694
v 1.800300 -1.026040 -1.004345
v 1.414181 -1.552326 -1.022734
v 1.800300 -1.202680 -0.789109
v 1.414181 -1.722441 -0.704472
v 1.800300 -1.333935 -0.543548
v 1.414181 -1.827197 -0.359137
v 1.800300 -1.414762 -0.277098
v 1.414181 -1.862569 0.000000
v 1.800300 -1.442054 0.000000
v 1.800300 -1.414762 0.277098
v 1.800300 -1.333935 0.543548
v 1.414181 -1.827197 0.359137
v 1.800300 -1.202680 0.789109
v 1.414181 -1.722441 0.704472
v 1.800300 -1.026040 1.004345
v 1.414181 -1.552326 1.022734
v 1.800300 -0.810804 1.180984
v 1.414181 -1.323389 1.301694
v 1.800300 -0.565243 1.312240
v 1.414181 -1.044430 1.530630
v 1.800300 -0.298794 1.393066
v 1.414181 -0.726167 1.700745
v 1.800300 -0.021696 1.420358
v 1.414181 -0.380832 1.805501
v 1.414181 0.337441 1.805501
v 1.800300 0.255403 1.393066
v 1.414181 0.682776 1.700745
v 1.800300 0.521852 1.312240
v 1.414181 1.001039 1.530630
v 1.800300 0.767413 1.180984
v 1.414181 1.279998 1.301694
v 1.800300 0.982649 1.004345
v 1.414181 1.508934 1.022734
v 1.800300 1.159289 0.789109
v 1.414181 1.679049 0.704472
v 1.800300 1.290544 0.543548
v 1.414181 1.783806 0.359137
v 1.800300 1.371371 0.277098
v 1.028062 1.371371 -0.277098
v 1.028062 1.290544 -0.543548
v 1.028062 1.159289 -0.789109
v 1.028062 0.982649 -1.004345
v 1.028062 0.767413 -1.180984
v 1.028062 0.521852 -1.312240
v 1.028062 0.255403 -1.393066
v 1.028062 -0.021696 -1.420358
v 1.414181 -0.021696 -1.840873
v 1.028062 -0.298794 -1.393066
v 1.028062 -0.565243 -1.312240
v 1.028062 -0.810804 -1.180984
v 1.028062 -1.026040 -1.004345
v 1.028062 -1.202680 -0.789109
v 1.028062 -1.333935 -0.543548
v 1.028062 -1.414762 -0.277098
v 1.028062 -1.414762 0.277098
v 1.028062 -1.333935 0.543548
v 1.028062 -1.202680 0.789109
v 1.028062 -1.026040 1.004345
v 1.028062 -0.810804 1.180984
v 1.028062 -0.565243 1.312240
v 1.028062 -0.298794 1.393066
v 1.028062 -0.021696 1.420358
v 1.414181 -0.021696 1.840873
v 1.028062 0.255403 1.393066
v 1.028062 0.521852 1.312240
v 1.028062 0.767413 1.180984
v 1.028062 0.982649 1.004345
v 1.028062 1.159289 0.789109
v 1.028062 1.290544 0.543548
v 1.028062 1.371371 0.277098
v 1.518425 0.857633 0.174909
v 1.518425 0.874860 0.000000
v 1.518425 0.806614 0.343097
v 1.518425 0.723763 0.498100
v 1.518425 0.612265 0.633961
v 1.518425 0.476404 0.745459
v 1.518425 0.321402 0.828310
v 1.518425 0.153214 0.879329
v 1.518425 -0.021696 0.896556
v 1.518425 -0.196605 0.879329
v 1.518426 -0.364793 0.828310
v 1.518426 -0.519796 0.745459
v 1.518426 -0.655656 0.633961
v 1.518426 -0.767155 0.498100
v 1.518426 -0.850005 0.343097
v 1.518426 -0.901025 0.174909
v 1.518426 -0.918252 0.000000
v 1.518426 -0.901025 -0.174909
v 1.518426 -0.850005 -0.343097
v 1.518426 -0.767155 -0.498100
v 1.518426 -0.655656 -0.633961
v 1.518426 -0.519796 -0.745459
v 1.518426 -0.364793 -0.828310
v 1.518425 -0.196605 -0.879329
v 1.518425 -0.021696 -0.896556
v 1.518425 0.153214 -0.879329
v 1.518425 0.321402 -0.828310
v 1.518425 0.476404 -0.745459
v 1.518425 0.612265 -0.633961
v 1.518425 0.723763 -0.498100
v 1.518425 0.806614 -0.343097
v 1.518425 0.857633 -0.174909
v 1.028062 1.398662 0.000000
v 1.028062 -1.442054 0.000000
v 1.800300 0.343896 -0.072721
v 1.800300 0.351058 0.000000
v 1.800300 0.322684 -0.142647
v 1.800300 0.288238 -0.207091
v 1.800300 0.120951 -0.344380
v 1.800300 0.051025 -0.365592
v 1.800300 -0.021696 -0.372754
v 1.800300 -0.094416 -0.365592
v 1.800300 -0.164343 -0.344380
v 1.800300 -0.285273 -0.263577
v 1.800300 -0.331629 -0.207091
v 1.800300 -0.366075 -0.142647
v 1.800300 -0.387287 -0.072721
v 1.800300 -0.394450 0.000000
v 1.800300 -0.387287 0.072721
v 1.800300 -0.366075 0.142647
v 1.800300 -0.331629 0.207091
v 1.800300 -0.285273 0.263577
v 1.800300 -0.228787 0.309934
v 1.800300 -0.164343 0.344380
v 1.800300 -0.094416 0.365592
v 1.800300 -0.021696 0.372754
v 1.800300 0.051025 0.365592
v 1.800300 0.120951 0.344380
v 1.800300 0.185395 0.309934
v 1.800300 0.241881 0.263577
v 1.800300 0.288238 0.207091
v 1.800300 0.322684 0.142647
v 1.800300 0.343896 0.072721
v -1.518425 0.874860 0.000000
v -1.800300 0.343896 0.072721
v -1.518425 0.857633 0.174909
v -1.800300 0.322684 0.142647
v -1.518425 0.806614 0.343097
v -1.800300 0.288238 0.207091
v -1.518425 0.723763 0.498100
v -1.800300 0.241881 0.263577
v -1.518425 0.612265 0.633961
v -1.800300 0.185395 0.309934
v -1.518425 0.476404 0.745459
v -1.800300 0.120951 0.344380
v -1.518425 0.321402 0.828310
v -1.800300 0.051025 0.365592
v -1.518425 0.153214 0.879329
v -1.800300 -0.021696 0.372754
v -1.518425 -0.021696 0.896556
v -1.518425 -0.196605 0.879329
v -1.800300 -0.094416 0.365592
v -1.518426 -0.364793 0.828310
v -1.800300 -0.164343 0.344380
v -1.518426 -0.519796 0.745459
v -1.800300 -0.228787 0.309934
v -1.518426 -0.655656 0.633961
v -1.800300 -0.285273 0.263577
v -1.518426 -0.767155 0.498100
v -1.800300 -0.331629 0.207091
v -1.518426 -0.850005 0.343097
v -1.800300 -0.366075 0.142647
v -1.518426 -0.901025 0.174909
v -1.800300 -0.387287 0.072721
v -1.518426 -0.918252 0.000000
v -1.800300 -0.387287 -0.072721
v -1.518426 -0.901025 -0.174909
v -1.800300 -0.366075 -0.142647
v -1.518426 -0.850005 -0.343097
v -1.800300 -0.331629 -0.207091
v -1.518426 -0.767155 -0.498100
v -1.800300 -0.285273 -0.263577
v -1.518426 -0.655656 -0.633961
v -1.800300 -0.228787 -0.309934
v -1.518426 -0.519796 -0.745459
v -1.800300 -0.164343 -0.344380
v -1.518426 -0.364793 -0.828310
v -1.800300 -0.094416 -0.365592
v -1.518425 -0.196605 -0.879329
v -1.800300 -0.021696 -0.372754
v -1.518425 -0.021696 -0.896556
v -1.518425 0.153214 -0.879329
v -1.800300 0.051025 -0.365592
v -1.518425 0.321402 -0.828310
v -1.800300 0.120951 -0.344380
v -1.518425 0.476404 -0.745459
v -1.800300 0.185395 -0.309934
v -1.518425 0.612265 -0.633961
v -1.800300 0.241881 -0.263577
v -1.518425 0.723763 -0.498100
v -1.800300 0.288238 -0.207091
v -1.518425 0.806614 -0.343097
v -1.800300 0.322684 -0.142647
v -1.518425 0.857633 -0.174909
v -1.800300 0.343896 -0.072721
v -1.028062 0.241881 -0.263577
v -1.028062 0.288238 -0.207091
v -1.028062 -0.285273 -0.263577
v -1.028062 1.371371 -0.277098
v -1.414181 1.819178 0.000000
v -1.028062 1.398662 0.000000
v -1.028062 1.290544 -0.543548
v -1.414181 1.783806 -0.359137
v -1.028062 1.159289 -0.789109
v -1.414181 1.679049 -0.704472
v -1.028062 0.982649 -1.004345
v -1.414181 1.508934 -1.022734
v -1.028062 0.767413 -1.180984
v -1.414181 1.279998 -1.301694
v -1.028062 0.521852 -1.312240
v -1.414181 1.001039 -1.530630
v -1.028062 0.255403 -1.393066
v -1.414181 0.682776 -1.700745
v -1.028062 -0.021696 -1.420358
v -1.414181 0.337441 -1.805501
v -1.414181 -0.380832 -1.805501
v -1.028062 -0.298794 -1.393066
v -1.414181 -0.726167 -1.700745
v -1.028062 -0.565243 -1.312240
v -1.414181 -1.044430 -1.530630
v -1.028062 -0.810804 -1.180984
v -1.414181 -1.323389 -1.301694
v -1.028062 -1.026040 -1.004345
v -1.414181 -1.552326 -1.022734
v -1.028062 -1.202680 -0.789109
v -1.414181 -1.722441 -0.704472
v -1.028062 -1.333935 -0.543548
v -1.414181 -1.827197 -0.359137
v -1.028062 -1.414762 -0.277098
v -1.414181 -1.862569 0.000000
v -1.028062 -1.442054 0.000000
v -1.028062 -1.414762 0.277098
v -1.028062 -1.333935 0.543548
v -1.414181 -1.827197 0.359137
v -1.028062 -1.202680 0.789109
v -1.414181 -1.722441 0.704472
v -1.028062 -1.026040 1.004345
v -1.414181 -1.552326 1.022734
v -1.028062 -0.810804 1.180984
v -1.414181 -1.323389 1.301694
v -1.028062 -0.565243 1.312240
v -1.414181 -1.044430 1.530630
v -1.028062 -0.298794 1.393066
v -1.414181 -0.726167 1.700745
v -1.028062 -0.021696 1.420358
v -1.414181 -0.380832 1.805501
v -1.414181 0.337441 1.805501
v -1.028062 0.255403 1.393066
v -1.414181 0.682776 1.700745
v -1.028062 0.521852 1.312240
v -1.414181 1.001039 1.530630
v -1.028062 0.767413 1.180984
v -1.414181 1.279998 1.301694
v -1.028062 0.982649 1.004345
v -1.414181 1.508934 1.022734
v -1.028062 1.159289 0.789109
v -1.414181 1.679049 0.704472
v -1.028062 1.290544 0.543548
v -1.414181 1.783806 0.359137
v -1.028062 1.371371 0.277098
v -1.800300 1.371371 -0.277098
v -1.800300 1.290544 -0.543548
v -1.800300 1.159289 -0.789109
v -1.800300 0.982649 -1.004345
v -1.800300 0.767413 -1.180984
v -1.800300 0.521852 -1.312240
v -1.800300 0.255403 -1.393066
v -1.800300 -0.021696 -1.420358
v -1.414181 -0.021696 -1.840873
v -1.800300 -0.298794 -1.393066
v -1.800300 -0.565243 -1.312240
v -1.800300 -0.810804 -1.180984
v -1.800300 -1.026040 -1.004345
v -1.800300 -1.202680 -0.789109
v -1.800300 -1.333935 -0.543548
v -1.800300 -1.414762 -0.277098
v -1.800300 -1.414762 0.277098
v -1.800300 -1.333935 0.543548
v -1.800300 -1.202680 0.789109
v -1.800300 -1.026040 1.004345
v -1.800300 -0.810804 1.180984
v -1.800300 -0.565243 1.312240
v -1.800300 -0.298794 1.393066
v -1.800300 -0.021696 1.420358
v -1.414181 -0.021696 1.840873
v -1.800300 0.255403 1.393066
v -1.800300 0.521852 1.312240
v -1.800300 0.767413 1.180984
v -1.800300 0.982649 1.004345
v -1.800300 1.159289 0.789109
v -1.800300 1.290544 0.543548
v -1.800300 1.371371 0.277098
v -1.309936 0.857633 0.174909
v -1.309936 0.874860 0.000000
v -1.309936 0.806614 0.343097
v -1.309936 0.723763 0.498100
v -1.309936 0.612265 0.633961
v -1.309936 0.476404 0.745459
v -1.309936 0.321402 0.828310
v -1.309936 0.153214 0.879329
v -1.309936 -0.021696 0.896556
v -1.309936 -0.196605 0.879329
v -1.309936 -0.364793 0.828310
v -1.309936 -0.519796 0.745459
v -1.309936 -0.655656 0.633961
v -1.309936 -0.767155 0.498100
v -1.309936 -0.850005 0.343097
v -1.309936 -0.901025 0.174909
v -1.309936 -0.918252 0.000000
v -1.309936 -0.901025 -0.174909
v -1.309936 -0.850005 -0.343097
v -1.309936 -0.767155 -0.498100
v -1.309936 -0.655656 -0.633961
v -1.309936 -0.519796 -0.745459
v -1.309936 -0.364793 -0.828310
v -1.309936 -0.196605 -0.879329
v -1.309936 -0.021696 -0.896556
v -1.309936 0.153214 -0.879329
v -1.309936 0.321402 -0.828310
v -1.309936 0.476404 -0.745459
v -1.309936 0.612265 -0.633961
v -1.309936 0.723763 -0.498100
v -1.309936 0.806614 -0.343097
v -1.309936 0.857633 -0.174909
v -1.800300 1.398662 0.000000
v -1.800300 -1.442054 0.000000
v -1.028062 0.343896 -0.072721
v -1.028062 0.351058 0.000000
v -1.028062 0.322684 -0.142647
v -1.028062 0.185395 -0.309934
v -1.028062 0.120951 -0.344380
v -1.028062 0.051025 -0.365592
v -1.028062 -0.021696 -0.372754
v -1.028062 -0.094416 -0.365592
v -1.028062 -0.164343 -0.344380
v -1.028062 -0.228787 -0.309934
v -1.028062 -0.331629 -0.207091
v -1.028062 -0.366075 -0.142647
v -1.028062 -0.387287 -0.072721
v -1.028062 -0.394450 0.000000
v -1.028062 -0.387287 0.072721
v -1.028062 -0.366075 0.142647
v -1.028062 -0.331629 0.207091
v -1.028062 -0.285273 0.263577
v -1.028062 -0.228787 0.309934
v -1.028062 -0.164343 0.344380
v -1.028062 -0.094416 0.365592
v -1.028062 -0.021696 0.372754
v -1.028062 0.051025 0.365592
v -1.028062 0.120951 0.344380
v -1.028062 0.185395 0.309934
v -1.028062 0.241881 0.263577
v -1.028062 0.288238 0.207091
v -1.028062 0.322684 0.142647
v -1.028062 0.343896 0.072721
v 1.028062 0.351058 0.000000
v 1.028062 -0.394450 0.000000
v -1.800300 0.351058 0.000000
v -1.800300 -0.394450 0.000000
vt 1.000000 0.875000
vt 0.968750 1.000000
vt 0.968750 0.875000
vt 0.937500 1.000000
vt 0.937500 0.875000
vt 0.906250 1.000000
vt 0.906250 0.875000
vt 0.875000 1.000000
vt 0.875000 0.875000
vt 0.843750 1.000000
vt 0.843750 0.875000
vt 0.812500 1.000000
vt 0.812500 0.875000
vt 0.781250 1.000000
vt 0.781250 0.875000
vt 0.750000 1.000000
vt 0.750000 0.875000
vt 0.718750 1.000000
vt 0.718750 0.875000
vt 0.687500 1.000000
vt 0.687500 0.875000
vt 0.656250 1.000000
vt 0.656250 0.875000
vt 0.625000 1.000000
vt 0.625000 0.875000
vt 0.593750 1.000000
vt 0.593750 0.875000
vt 0.562500 1.000000
vt 0.562500 0.875000
vt 0.531250 1.000000
vt 0.531250 0.875000
vt 0.500000 1.000000
vt 0.500000 0.875000
vt 0.468750 1.000000
vt 0.468750 0.875000
vt 0.437500 1.000000
vt 0.437500 0.875000
vt 0.406250 1.000000
vt 0.406250 0.875000
vt 0.375000 1.000000
vt 0.375000 0.875000
vt 0.343750 1.000000
vt 0.343750 0.875000
vt 0.312500 1.000000
vt 0.312500 0.875000
vt 0.281250 1.000000
vt 0.281250 0.875000
vt 0.250000 1.000000
vt 0.250000 0.875000
vt 0.218750 1.000000
vt 0.218750 0.875000
vt 0.187500 1.000000
vt 0.187500 0.875000
vt 0.156250 1.000000
vt 0.156250 0.875000
vt 0.125000 1.000000
vt 0.125000 0.875000
vt 0.093750 1.000000
vt 0.093750 0.875000
vt 0.062500 1.000000
vt 0.062500 0.875000
vt 0.031250 1.000000
vt 0.031250 0.875000
vt 0.000000 1.000000
vt 0.000000 0.875000
vt 0.883337 0.050447
vt 0.550447 0.116663
vt 0.616663 0.449553
vt 0.031250 0.750000
vt 0.000000 0.625000
vt 0.031250 0.625000
vt 0.062500 0.750000
vt 0.062500 0.625000
vt 0.093750 0.625000
vt 0.125000 0.750000
vt 0.125000 0.625000
vt 0.156250 0.750000
vt 0.156250 0.625000
vt 0.187500 0.625000
vt 0.218750 0.625000
vt 0.187500 0.750000
vt 0.250000 0.750000
vt 0.250000 0.625000
vt 0.281250 0.625000
vt 0.312500 0.750000
vt 0.312500 0.625000
vt 0.343750 0.750000
vt 0.343750 0.625000
vt 0.375000 0.750000
vt 0.375000 0.625000
vt 0.406250 0.750000
vt 0.406250 0.625000
vt 0.437500 0.750000
vt 0.437500 0.625000
vt 0.468750 0.750000
vt 0.468750 0.625000
vt 0.500000 0.750000
vt 0.500000 0.625000
vt 0.531250 0.750000
vt 0.531250 0.625000
vt 0.562500 0.750000
vt 0.562500 0.625000
vt 0.593750 0.750000
vt 0.593750 0.625000
vt 0.625000 0.750000
vt 0.625000 0.625000
vt 0.656250 0.750000
vt 0.656250 0.625000
vt 0.687500 0.750000
vt 0.687500 0.625000
vt 0.718750 0.750000
vt 0.718750 0.625000
vt 0.750000 0.750000
vt 0.750000 0.625000
vt 0.781250 0.750000
vt 0.781250 0.625000
vt 0.812500 0.750000
vt 0.812500 0.625000
vt 0.843750 0.750000
vt 0.843750 0.625000
vt 0.875000 0.750000
vt 0.875000 0.625000
vt 0.906250 0.750000
vt 0.906250 0.625000
vt 0.937500 0.750000
vt 0.937500 0.625000
vt 0.968750 0.750000
vt 0.968750 0.625000
vt 1.000000 0.750000
vt 1.000000 0.625000
vt 0.000000 0.812500
vt 0.031250 0.812500
vt 0.062500 0.812500
vt 0.093750 0.812500
vt 0.125000 0.812500
vt 0.156250 0.812500
vt 0.187500 0.812500
vt 0.218750 0.812500
vt 0.250000 0.812500
vt 0.281250 0.812500
vt 0.312500 0.812500
vt 0.343750 0.812500
vt 0.375000 0.812500
vt 0.406250 0.812500
vt 0.437500 0.812500
vt 0.468750 0.812500
vt 0.500000 0.812500
vt 0.531250 0.812500
vt 0.562500 0.812500
vt 0.593750 0.812500
vt 0.625000 0.812500
vt 0.656250 0.812500
vt 0.687500 0.812500
vt 0.718750 0.812500
vt 0.750000 0.812500
vt 0.781250 0.812500
vt 0.812500 0.812500
vt 0.843750 0.812500
vt 0.875000 0.812500
vt 0.906250 0.812500
vt 0.937500 0.812500
vt 0.968750 0.812500
vt 1.000000 0.812500
vt 0.281250 0.750000
vt 0.218750 0.750000
vt 0.093750 0.750000
vt 0.000000 0.750000
vt 0.968750 0.562500
vt 1.000000 0.562500
vt 0.937500 0.562500
vt 0.906250 0.562500
vt 0.875000 0.562500
vt 0.843750 0.562500
vt 0.812500 0.562500
vt 0.781250 0.562500
vt 0.750000 0.562500
vt 0.718750 0.562500
vt 0.687500 0.562500
vt 0.656250 0.562500
vt 0.625000 0.562500
vt 0.593750 0.562500
vt 0.562500 0.562500
vt 0.531250 0.562500
vt 0.500000 0.562500
vt 0.468750 0.562500
vt 0.437500 0.562500
vt 0.406250 0.562500
vt 0.375000 0.562500
vt 0.343750 0.562500
vt 0.312500 0.562500
vt 0.281250 0.562500
vt 0.250000 0.562500
vt 0.218750 0.562500
vt 0.187500 0.562500
vt 0.156250 0.562500
vt 0.125000 0.562500
vt 0.093750 0.562500
vt 0.062500 0.562500
vt 0.031250 0.562500
vt 0.000000 0.562500
vt 0.031250 0.531250
vt 0.000000 0.531250
vt 0.062500 0.531250
vt 0.093750 0.531250
vt 0.125000 0.531250
vt 0.156250 0.531250
vt 0.187500 0.531250
vt 0.218750 0.531250
vt 0.250000 0.531250
vt 0.281250 0.531250
vt 0.312500 0.531250
vt 0.343750 0.531250
vt 0.375000 0.531250
vt 0.406250 0.531250
vt 0.437500 0.531250
vt 0.468750 0.531250
vt 0.500000 0.531250
vt 0.531250 0.531250
vt 0.562500 0.531250
vt 0.593750 0.531250
vt 0.625000 0.531250
vt 0.656250 0.531250
vt 0.687500 0.531250
vt 0.718750 0.531250
vt 0.750000 0.531250
vt 0.781250 0.531250
vt 0.812500 0.531250
vt 0.843750 0.531250
vt 0.875000 0.531250
vt 0.906250 0.531250
vt 0.937500 0.531250
vt 0.968750 0.531250
vt 1.000000 0.531250
vt 0.968750 0.500000
vt 1.000000 0.500000
vt 0.937500 0.500000
vt 0.906250 0.500000
vt 0.875000 0.500000
vt 0.843750 0.500000
vt 0.812500 0.500000
vt 0.781250 0.500000
vt 0.750000 0.500000
vt 0.718750 0.500000
vt 0.687500 0.500000
vt 0.656250 0.500000
vt 0.625000 0.500000
vt 0.593750 0.500000
vt 0.562500 0.500000
vt 0.531250 0.500000
vt 0.500000 0.500000
vt 0.468750 0.500000
vt 0.437500 0.500000
vt 0.406250 0.500000
vt 0.375000 0.500000
vt 0.343750 0.500000
vt 0.312500 0.500000
vt 0.281250 0.500000
vt 0.250000 0.500000
vt 0.218750 0.500000
vt 0.187500 0.500000
vt 0.156250 0.500000
vt 0.125000 0.500000
vt 0.093750 0.500000
vt 0.062500 0.500000
vt 0.031250 0.500000
vt 0.000000 0.500000
vt 1.000000 0.937500
vt 0.968750 1.000000
vt 0.968750 0.937500
vt 0.937500 1.000000
vt 0.937500 0.937500
vt 0.906250 1.000000
vt 0.906250 0.937500
vt 0.875000 1.000000
vt 0.875000 0.937500
vt 0.843750 1.000000
vt 0.843750 0.937500
vt 0.812500 1.000000
vt 0.812500 0.937500
vt 0.781250 1.000000
vt 0.781250 0.937500
vt 0.750000 1.000000
vt 0.750000 0.937500
vt 0.718750 0.937500
vt 0.718750 1.000000
vt 0.687500 0.937500
vt 0.687500 1.000000
vt 0.656250 0.937500
vt 0.656250 1.000000
vt 0.625000 0.937500
vt 0.625000 1.000000
vt 0.593750 0.937500
vt 0.593750 1.000000
vt 0.562500 0.937500
vt 0.562500 1.000000
vt 0.531250 0.937500
vt 0.531250 1.000000
vt 0.500000 0.937500
vt 0.468750 1.000000
vt 0.468750 0.937500
vt 0.437500 1.000000
vt 0.437500 0.937500
vt 0.406250 1.000000
vt 0.406250 0.937500
vt 0.375000 1.000000
vt 0.375000 0.937500
vt 0.343750 1.000000
vt 0.343750 0.937500
vt 0.312500 1.000000
vt 0.312500 0.937500
vt 0.281250 1.000000
vt 0.281250 0.937500
vt 0.250000 1.000000
vt 0.250000 0.937500
vt 0.218750 0.937500
vt 0.218750 1.000000
vt 0.187500 0.937500
vt 0.187500 1.000000
vt 0.156250 0.937500
vt 0.156250 1.000000
vt 0.125000 0.937500
vt 0.125000 1.000000
vt 0.093750 0.937500
vt 0.093750 1.000000
vt 0.062500 0.937500
vt 0.419706 0.080294
vt 0.449553 0.116663
vt 0.419706 0.080294
vt 0.062500 1.000000
vt 0.031250 0.937500
vt 0.031250 1.000000
vt 0.000000 0.937500
vt 0.550447 0.116663
vt 0.580294 0.080294
vt 0.550447 0.116663
vt 0.031250 0.625000
vt 0.000000 0.750000
vt 0.000000 0.625000
vt 0.062500 0.625000
vt 0.031250 0.750000
vt 0.093750 0.625000
vt 0.062500 0.750000
vt 0.125000 0.625000
vt 0.093750 0.750000
vt 0.156250 0.625000
vt 0.125000 0.750000
vt 0.187500 0.625000
vt 0.156250 0.750000
vt 0.218750 0.625000
vt 0.187500 0.750000
vt 0.250000 0.625000
vt 0.218750 0.750000
vt 0.281250 0.750000
vt 0.281250 0.625000
vt 0.312500 0.750000
vt 0.312500 0.625000
vt 0.343750 0.750000
vt 0.343750 0.625000
vt 0.375000 0.750000
vt 0.375000 0.625000
vt 0.406250 0.750000
vt 0.406250 0.625000
vt 0.437500 0.750000
vt 0.437500 0.625000
vt 0.468750 0.750000
vt 0.468750 0.625000
vt 0.500000 0.750000
vt 0.500000 0.625000
vt 0.531250 0.625000
vt 0.562500 0.625000
vt 0.531250 0.750000
vt 0.593750 0.625000
vt 0.562500 0.750000
vt 0.625000 0.625000
vt 0.593750 0.750000
vt 0.656250 0.625000
vt 0.625000 0.750000
vt 0.687500 0.625000
vt 0.656250 0.750000
vt 0.718750 0.625000
vt 0.687500 0.750000
vt 0.750000 0.625000
vt 0.718750 0.750000
vt 0.781250 0.750000
vt 0.781250 0.625000
vt 0.812500 0.750000
vt 0.812500 0.625000
vt 0.843750 0.750000
vt 0.843750 0.625000
vt 0.875000 0.750000
vt 0.875000 0.625000
vt 0.906250 0.750000
vt 0.906250 0.625000
vt 0.937500 0.750000
vt 0.937500 0.625000
vt 0.968750 0.750000
vt 0.968750 0.625000
vt 1.000000 0.750000
vt 1.000000 0.625000
vt 0.031250 0.875000
vt 0.062500 0.875000
vt 0.093750 0.875000
vt 0.125000 0.875000
vt 0.156250 0.875000
vt 0.187500 0.875000
vt 0.218750 0.875000
vt 0.250000 0.875000
vt 0.250000 0.750000
vt 0.281250 0.875000
vt 0.312500 0.875000
vt 0.343750 0.875000
vt 0.375000 0.875000
vt 0.406250 0.875000
vt 0.437500 0.875000
vt 0.468750 0.875000
vt 0.531250 0.875000
vt 0.562500 0.875000
vt 0.593750 0.875000
vt 0.625000 0.875000
vt 0.656250 0.875000
vt 0.687500 0.875000
vt 0.718750 0.875000
vt 0.750000 0.875000
vt 0.750000 0.750000
vt 0.781250 0.875000
vt 0.812500 0.875000
vt 0.843750 0.875000
vt 0.875000 0.875000
vt 0.906250 0.875000
vt 0.937500 0.875000
vt 0.968750 0.875000
vt 0.968750 0.562500
vt 1.000000 0.562500
vt 0.937500 0.562500
vt 0.906250 0.562500
vt 0.875000 0.562500
vt 0.843750 0.562500
vt 0.812500 0.562500
vt 0.781250 0.562500
vt 0.750000 0.562500
vt 0.718750 0.562500
vt 0.687500 0.562500
vt 0.656250 0.562500
vt 0.625000 0.562500
vt 0.593750 0.562500
vt 0.562500 0.562500
vt 0.531250 0.562500
vt 0.500000 0.562500
vt 0.468750 0.562500
vt 0.437500 0.562500
vt 0.406250 0.562500
vt 0.375000 0.562500
vt 0.343750 0.562500
vt 0.312500 0.562500
vt 0.281250 0.562500
vt 0.250000 0.562500
vt 0.218750 0.562500
vt 0.187500 0.562500
vt 0.156250 0.562500
vt 0.125000 0.562500
vt 0.093750 0.562500
vt 0.062500 0.562500
vt 0.031250 0.562500
vt 0.000000 0.562500
vt 0.000000 0.875000
vt 0.500000 0.875000
vt 1.000000 0.875000
vt 0.031250 0.500000
vt 0.000000 0.500000
vt 0.062500 0.500000
vt 0.093750 0.500000
vt 0.125000 0.500000
vt 0.156250 0.500000
vt 0.187500 0.500000
vt 0.218750 0.500000
vt 0.250000 0.500000
vt 0.281250 0.500000
vt 0.312500 0.500000
vt 0.343750 0.500000
vt 0.375000 0.500000
vt 0.406250 0.500000
vt 0.437500 0.500000
vt 0.468750 0.500000
vt 0.500000 0.500000
vt 0.531250 0.500000
vt 0.562500 0.500000
vt 0.593750 0.500000
vt 0.625000 0.500000
vt 0.656250 0.500000
vt 0.687500 0.500000
vt 0.718750 0.500000
vt 0.750000 0.500000
vt 0.781250 0.500000
vt 0.812500 0.500000
vt 0.843750 0.500000
vt 0.875000 0.500000
vt 0.906250 0.500000
vt 0.937500 0.500000
vt 0.968750 0.500000
vt 1.000000 0.500000
vt 1.000000 0.937500
vt 0.968750 1.000000
vt 0.968750 0.937500
vt 0.937500 1.000000
vt 0.937500 0.937500
vt 0.906250 1.000000
vt 0.906250 0.937500
vt 0.875000 1.000000
vt 0.875000 0.937500
vt 0.843750 1.000000
vt 0.843750 0.937500
vt 0.812500 1.000000
vt 0.812500 0.937500
vt 0.781250 1.000000
vt 0.781250 0.937500
vt 0.750000 1.000000
vt 0.750000 0.937500
vt 0.718750 0.937500
vt 0.718750 1.000000
vt 0.687500 0.937500
vt 0.687500 1.000000
vt 0.656250 0.937500
vt 0.656250 1.000000
vt 0.625000 0.937500
vt 0.625000 1.000000
vt 0.593750 0.937500
vt 0.593750 1.000000
vt 0.562500 0.937500
vt 0.562500 1.000000
vt 0.531250 0.937500
vt 0.531250 1.000000
vt 0.500000 0.937500
vt 0.468750 1.000000
vt 0.468750 0.937500
vt 0.437500 1.000000
vt 0.437500 0.937500
vt 0.406250 1.000000
vt 0.406250 0.937500
vt 0.375000 1.000000
vt 0.375000 0.937500
vt 0.343750 1.000000
vt 0.343750 0.937500
vt 0.312500 1.000000
vt 0.312500 0.937500
vt 0.281250 1.000000
vt 0.281250 0.937500
vt 0.250000 1.000000
vt 0.250000 0.937500
vt 0.218750 0.937500
vt 0.218750 1.000000
vt 0.187500 0.937500
vt 0.187500 1.000000
vt 0.156250 0.937500
vt 0.156250 1.000000
vt 0.125000 0.937500
vt 0.125000 1.000000
vt 0.093750 0.937500
vt 0.093750 1.000000
vt 0.062500 0.937500
vt 0.116663 0.449553
vt 0.080294 0.419706
vt 0.116663 0.449553
vt 0.062500 1.000000
vt 0.031250 0.937500
vt 0.031250 1.000000
vt 0.000000 0.937500
vt 0.580294 0.080294
vt 0.616663 0.050447
vt 0.580294 0.080294
vt 0.031250 0.625000
vt 0.000000 0.750000
vt 0.000000 0.625000
vt 0.062500 0.625000
vt 0.031250 0.750000
vt 0.093750 0.625000
vt 0.062500 0.750000
vt 0.125000 0.625000
vt 0.093750 0.750000
vt 0.156250 0.625000
vt 0.125000 0.750000
vt 0.187500 0.625000
vt 0.156250 0.750000
vt 0.218750 0.625000
vt 0.187500 0.750000
vt 0.250000 0.625000
vt 0.218750 0.750000
vt 0.281250 0.750000
vt 0.281250 0.625000
vt 0.312500 0.750000
vt 0.312500 0.625000
vt 0.343750 0.750000
vt 0.343750 0.625000
vt 0.375000 0.750000
vt 0.375000 0.625000
vt 0.406250 0.750000
vt 0.406250 0.625000
vt 0.437500 0.750000
vt 0.437500 0.625000
vt 0.468750 0.750000
vt 0.468750 0.625000
vt 0.500000 0.750000
vt 0.500000 0.625000
vt 0.531250 0.625000
vt 0.562500 0.625000
vt 0.531250 0.750000
vt 0.593750 0.625000
vt 0.562500 0.750000
vt 0.625000 0.625000
vt 0.593750 0.750000
vt 0.656250 0.625000
vt 0.625000 0.750000
vt 0.687500 0.625000
vt 0.656250 0.750000
vt 0.718750 0.625000
vt 0.687500 0.750000
vt 0.750000 0.625000
vt 0.718750 0.750000
vt 0.781250 0.750000
vt 0.781250 0.625000
vt 0.812500 0.750000
vt 0.812500 0.625000
vt 0.843750 0.750000
vt 0.843750 0.625000
vt 0.875000 0.750000
vt 0.875000 0.625000
vt 0.906250 0.750000
vt 0.906250 0.625000
vt 0.937500 0.750000
vt 0.937500 0.625000
vt 0.968750 0.750000
vt 0.968750 0.625000
vt 1.000000 0.750000
vt 1.000000 0.625000
vt 0.031250 0.875000
vt 0.062500 0.875000
vt 0.093750 0.875000
vt 0.125000 0.875000
vt 0.156250 0.875000
vt 0.187500 0.875000
vt 0.218750 0.875000
vt 0.250000 0.875000
vt 0.250000 0.750000
vt 0.281250 0.875000
vt 0.312500 0.875000
vt 0.343750 0.875000
vt 0.375000 0.875000
vt 0.406250 0.875000
vt 0.437500 0.875000
vt 0.468750 0.875000
vt 0.531250 0.875000
vt 0.562500 0.875000
vt 0.593750 0.875000
vt 0.625000 0.875000
vt 0.656250 0.875000
vt 0.687500 0.875000
vt 0.718750 0.875000
vt 0.750000 0.875000
vt 0.750000 0.750000
vt 0.781250 0.875000
vt 0.812500 0.875000
vt 0.843750 0.875000
vt 0.875000 0.875000
vt 0.906250 0.875000
vt 0.937500 0.875000
vt 0.968750 0.875000
vt 0.968750 0.562500
vt 1.000000 0.562500
vt 0.937500 0.562500
vt 0.906250 0.562500
vt 0.875000 0.562500
vt 0.843750 0.562500
vt 0.812500 0.562500
vt 0.781250 0.562500
vt 0.750000 0.562500
vt 0.718750 0.562500
vt 0.687500 0.562500
vt 0.656250 0.562500
vt 0.625000 0.562500
vt 0.593750 0.562500
vt 0.562500 0.562500
vt 0.531250 0.562500
vt 0.500000 0.562500
vt 0.468750 0.562500
vt 0.437500 0.562500
vt 0.406250 0.562500
vt 0.375000 0.562500
vt 0.343750 0.562500
vt 0.312500 0.562500
vt 0.281250 0.562500
vt 0.250000 0.562500
vt 0.218750 0.562500
vt 0.187500 0.562500
vt 0.156250 0.562500
vt 0.125000 0.562500
vt 0.093750 0.562500
vt 0.062500 0.562500
vt 0.031250 0.562500
vt 0.000000 0.562500
vt 0.000000 0.875000
vt 0.500000 0.875000
vt 1.000000 0.875000
vt 0.031250 0.500000
vt 0.000000 0.500000
vt 0.062500 0.500000
vt 0.093750 0.500000
vt 0.125000 0.500000
vt 0.156250 0.500000
vt 0.187500 0.500000
vt 0.218750 0.500000
vt 0.250000 0.500000
vt 0.281250 0.500000
vt 0.312500 0.500000
vt 0.343750 0.500000
vt 0.375000 0.500000
vt 0.406250 0.500000
vt 0.437500 0.500000
vt 0.468750 0.500000
vt 0.500000 0.500000
vt 0.531250 0.500000
vt 0.562500 0.500000
vt 0.593750 0.500000
vt 0.625000 0.500000
vt 0.656250 0.500000
vt 0.687500 0.500000
vt 0.718750 0.500000
vt 0.750000 0.500000
vt 0.781250 0.500000
vt 0.812500 0.500000
vt 0.843750 0.500000
vt 0.875000 0.500000
vt 0.906250 0.500000
vt 0.937500 0.500000
vt 0.968750 0.500000
vt 1.000000 0.500000
vt 0.658156 0.471731
vt 0.796822 0.485388
vt 0.703178 0.485388
vt 0.750000 0.490000
vt 0.841844 0.471731
vt 0.883337 0.449553
vt 0.919706 0.419706
vt 0.949553 0.383337
vt 0.971731 0.341844
vt 0.985388 0.296822
vt 0.990000 0.250000
vt 0.985388 0.203178
vt 0.971731 0.158156
vt 0.949553 0.116663
vt 0.919706 0.080294
vt 0.841844 0.028269
vt 0.796822 0.014612
vt 0.750000 0.010000
vt 0.703178 0.014612
vt 0.658156 0.028269
vt 0.616663 0.050447
vt 0.580294 0.080294
vt 0.528269 0.158156
vt 0.514612 0.203178
vt 0.510000 0.250000
vt 0.514612 0.296822
vt 0.528269 0.341844
vt 0.550447 0.383337
vt 0.580294 0.419706
vt 1.000000 1.000000
vt 0.500000 1.000000
vt 0.471731 0.158156
vt 0.485388 0.203178
vt 0.471731 0.158156
vt 0.490000 0.250000
vt 0.485388 0.203178
vt 0.449553 0.116663
vt 0.383337 0.050447
vt 0.341844 0.471731
vt 0.383337 0.050447
vt 0.296822 0.485388
vt 0.296822 0.485388
vt 0.250000 0.490000
vt 0.250000 0.490000
vt 0.203178 0.485388
vt 0.203178 0.485388
vt 0.158156 0.471731
vt 0.158156 0.471731
vt 0.116663 0.449553
vt 0.080294 0.419706
vt 0.116663 0.449553
vt 0.050447 0.383337
vt 0.080294 0.419706
vt 0.028269 0.341844
vt 0.050447 0.383337
vt 0.014612 0.296822
vt 0.014612 0.296822
vt 0.010000 0.250000
vt 0.028269 0.341844
vt 0.341844 0.471731
vt 0.000000 1.000000
vt 0.616663 0.050447
vt 0.658156 0.028269
vt 0.658156 0.028269
vt 0.703178 0.485388
vt 0.703178 0.485388
vt 0.750000 0.490000
vt 0.796822 0.485388
vt 0.750000 0.490000
vt 0.841844 0.471731
vt 0.841844 0.471731
vt 0.883337 0.449553
vt 0.883337 0.449553
vt 0.919706 0.419706
vt 0.949553 0.383337
vt 0.919706 0.419706
vt 0.971731 0.341844
vt 0.971731 0.341844
vt 0.985388 0.296822
vt 0.985388 0.296822
vt 0.990000 0.250000
vt 0.949553 0.383337
vt 0.796822 0.485388
vt 0.616663 0.050447
vt 0.580294 0.080294
vt 0.528269 0.158156
vt 0.528269 0.158156
vt 0.514612 0.203178
vt 0.514612 0.203178
vt 0.510000 0.250000
vt 1.000000 1.000000
vt 0.500000 1.000000
vt 0.050447 0.383337
vt 0.028269 0.341844
vt 0.028269 0.341844
vt 0.014612 0.296822
vt 0.014612 0.296822
vt 0.010000 0.250000
vt 0.050447 0.383337
vt 0.080294 0.419706
vt 0.158156 0.471731
vt 0.158156 0.471731
vt 0.203178 0.485388
vt 0.203178 0.485388
vt 0.250000 0.490000
vt 0.296822 0.485388
vt 0.250000 0.490000
vt 0.341844 0.471731
vt 0.341844 0.471731
vt 0.383337 0.050447
vt 0.383337 0.050447
vt 0.419706 0.080294
vt 0.449553 0.116663
vt 0.419706 0.080294
vt 0.471731 0.158156
vt 0.471731 0.158156
vt 0.485388 0.203178
vt 0.485388 0.203178
vt 0.490000 0.250000
vt 0.449553 0.116663
vt 0.296822 0.485388
vt 0.000000 1.000000
vt 0.658156 0.028269
vt 0.703178 0.485388
vt 0.703178 0.485388
vt 0.750000 0.490000
vt 0.750000 0.490000
vt 0.796822 0.485388
vt 0.796822 0.485388
vt 0.841844 0.471731
vt 0.841844 0.471731
vt 0.883337 0.449553
vt 0.919706 0.419706
vt 0.883337 0.449553
vt 0.949553 0.383337
vt 0.919706 0.419706
vt 0.971731 0.341844
vt 0.949553 0.383337
vt 0.985388 0.296822
vt 0.985388 0.296822
vt 0.990000 0.250000
vt 0.971731 0.341844
vt 0.658156 0.028269
vt 0.616663 0.050447
vt 0.550447 0.116663
vt 0.528269 0.158156
vt 0.550447 0.116663
vt 0.514612 0.203178
vt 0.528269 0.158156
vt 0.510000 0.250000
vt 0.514612 0.203178
vn -0.9899 0.1033 -0.0975
vn -0.9519 0.1025 -0.2888
vn -0.8773 0.1018 -0.4689
vn -0.7691 0.1011 -0.6311
vn -0.6312 0.1005 -0.7691
vn -0.4690 0.1000 -0.8775
vn -0.2888 0.0997 -0.9522
vn -0.0975 0.0996 -0.9902
vn 0.0975 0.0996 -0.9902
vn 0.2888 0.0997 -0.9522
vn 0.4690 0.1000 -0.8775
vn 0.6312 0.1005 -0.7691
vn 0.7690 0.1011 -0.6312
vn 0.8773 0.1018 -0.4689
vn 0.9519 0.1025 -0.2888
vn 0.9899 0.1033 -0.0975
vn 0.9898 0.1041 0.0975
vn 0.9517 0.1049 0.2887
vn 0.8770 0.1057 0.4688
vn 0.7686 0.1064 0.6308
vn 0.6308 0.1070 0.7686
vn 0.4687 0.1074 0.8768
vn 0.2886 0.1077 0.9514
vn 0.0974 0.1079 0.9894
vn -0.0974 0.1079 0.9894
vn -0.2886 0.1077 0.9514
vn -0.4687 0.1074 0.8768
vn -0.6308 0.1070 0.7686
vn -0.7686 0.1064 0.6308
vn -0.8770 0.1057 0.4688
vn -0.9517 0.1049 0.2887
vn -0.9898 0.1041 0.0975
vn 0.0000 -1.0000 0.0000
vn 0.9929 0.0684 -0.0978
vn 0.9547 0.0684 -0.2896
vn 0.8799 0.0684 -0.4703
vn 0.7712 0.0684 -0.6329
vn 0.6329 0.0684 -0.7712
vn 0.4703 0.0684 -0.8799
vn 0.2896 0.0684 -0.9547
vn 0.0978 0.0684 -0.9929
vn -0.0978 0.0684 -0.9929
vn -0.2896 0.0684 -0.9547
vn -0.4703 0.0684 -0.8799
vn -0.6329 0.0684 -0.7712
vn -0.7712 0.0684 -0.6329
vn -0.8799 0.0684 -0.4703
vn -0.9547 0.0684 -0.2896
vn -0.9929 0.0684 -0.0978
vn -0.9929 0.0684 0.0978
vn -0.9547 0.0684 0.2896
vn -0.8799 0.0684 0.4703
vn -0.7712 0.0684 0.6329
vn -0.6329 0.0684 0.7712
vn -0.4703 0.0684 0.8799
vn -0.2896 0.0684 0.9547
vn -0.0978 0.0684 0.9929
vn 0.0978 0.0684 0.9929
vn 0.2896 0.0684 0.9547
vn 0.4703 0.0684 0.8799
vn 0.6329 0.0684 0.7712
vn 0.7712 0.0684 0.6329
vn 0.8799 0.0684 0.4703
vn 0.9547 0.0684 0.2896
vn 0.9929 0.0684 0.0978
vn 0.2357 0.9716 -0.0232
vn 0.2266 0.9716 -0.0687
vn 0.2088 0.9716 -0.1116
vn 0.1831 0.9716 -0.1502
vn 0.1502 0.9716 -0.1831
vn 0.1502 0.9716 -0.1830
vn 0.1116 0.9716 -0.2088
vn 0.0687 0.9716 -0.2266
vn 0.0232 0.9716 -0.2357
vn -0.0232 0.9716 -0.2357
vn -0.0687 0.9716 -0.2266
vn -0.1116 0.9716 -0.2088
vn -0.1502 0.9716 -0.1830
vn -0.1502 0.9716 -0.1831
vn -0.1830 0.9716 -0.1502
vn -0.1831 0.9716 -0.1502
vn -0.2088 0.9716 -0.1116
vn -0.2266 0.9716 -0.0687
vn -0.2357 0.9716 -0.0232
vn -0.2357 0.9716 0.0232
vn -0.2266 0.9716 0.0687
vn -0.2088 0.9716 0.1116
vn -0.1830 0.9716 0.1502
vn -0.1831 0.9716 0.1502
vn -0.1502 0.9716 0.1830
vn -0.1116 0.9716 0.2088
vn -0.0687 0.9716 0.2266
vn -0.0232 0.9716 0.2357
vn -0.0232 0.9716 0.2356
vn 0.0232 0.9716 0.2357
vn 0.0687 0.9716 0.2266
vn 0.1116 0.9716 0.2088
vn 0.1502 0.9716 0.1831
vn 0.1502 0.9716 0.1830
vn 0.1831 0.9716 0.1502
vn 0.2088 0.9716 0.1116
vn 0.2266 0.9716 0.0687
vn 0.2357 0.9716 0.0232
vn 0.9892 0.1096 0.0974
vn 0.9512 0.1096 0.2885
vn 0.8766 0.1096 0.4686
vn 0.7684 0.1096 0.6306
vn 0.6306 0.1096 0.7684
vn 0.4686 0.1096 0.8766
vn 0.2885 0.1096 0.9512
vn 0.0974 0.1096 0.9892
vn -0.0974 0.1096 0.9892
vn -0.2885 0.1096 0.9512
vn -0.4686 0.1096 0.8766
vn -0.6306 0.1096 0.7683
vn -0.6306 0.1096 0.7684
vn -0.7684 0.1096 0.6306
vn -0.8766 0.1096 0.4686
vn -0.9512 0.1096 0.2885
vn -0.9892 0.1096 0.0974
vn -0.9892 0.1096 -0.0974
vn -0.9512 0.1096 -0.2885
vn -0.8766 0.1096 -0.4686
vn -0.7684 0.1096 -0.6306
vn -0.6306 0.1096 -0.7684
vn -0.4686 0.1096 -0.8766
vn -0.2885 0.1096 -0.9512
vn -0.0974 0.1096 -0.9892
vn 0.0974 0.1096 -0.9892
vn 0.2885 0.1096 -0.9512
vn 0.4686 0.1096 -0.8766
vn 0.6306 0.1096 -0.7684
vn 0.7684 0.1096 -0.6306
vn 0.8766 0.1096 -0.4686
vn 0.9512 0.1096 -0.2885
vn 0.9892 0.1096 -0.0974
vn 0.9918 -0.0826 0.0977
vn 0.9537 -0.0826 0.2893
vn 0.8789 -0.0826 0.4698
vn 0.7704 -0.0826 0.6322
vn 0.6322 -0.0826 0.7704
vn 0.4698 -0.0826 0.8789
vn 0.2893 -0.0826 0.9537
vn 0.0977 -0.0826 0.9918
vn -0.0977 -0.0826 0.9918
vn -0.2893 -0.0826 0.9537
vn -0.4698 -0.0826 0.8789
vn -0.6322 -0.0826 0.7704
vn -0.7704 -0.0826 0.6322
vn -0.8789 -0.0826 0.4698
vn -0.9537 -0.0826 0.2893
vn -0.9918 -0.0826 0.0977
vn -0.9918 -0.0826 -0.0977
vn -0.9537 -0.0826 -0.2893
vn -0.8789 -0.0826 -0.4698
vn -0.7704 -0.0826 -0.6322
vn -0.6322 -0.0826 -0.7704
vn -0.4698 -0.0826 -0.8789
vn -0.2893 -0.0826 -0.9537
vn -0.0977 -0.0826 -0.9918
vn 0.0977 -0.0826 -0.9918
vn 0.2893 -0.0826 -0.9537
vn 0.4698 -0.0826 -0.8789
vn 0.6322 -0.0826 -0.7704
vn 0.7704 -0.0826 -0.6322
vn 0.8789 -0.0826 -0.4698
vn 0.9537 -0.0826 -0.2893
vn 0.9918 -0.0826 -0.0977
vn 0.3875 -0.9211 -0.0382
vn 0.3726 -0.9211 -0.1130
vn 0.3434 -0.9211 -0.1835
vn 0.3010 -0.9211 -0.2470
vn 0.2470 -0.9211 -0.3010
vn 0.1835 -0.9211 -0.3434
vn 0.1130 -0.9211 -0.3726
vn 0.0382 -0.9211 -0.3875
vn -0.0382 -0.9211 -0.3875
vn -0.1130 -0.9211 -0.3726
vn -0.1835 -0.9211 -0.3434
vn -0.2470 -0.9211 -0.3010
vn -0.3010 -0.9211 -0.2470
vn -0.3434 -0.9211 -0.1835
vn -0.3726 -0.9211 -0.1130
vn -0.3875 -0.9211 -0.0382
vn -0.3875 -0.9211 0.0382
vn -0.3726 -0.9211 0.1130
vn -0.3434 -0.9211 0.1835
vn -0.3010 -0.9211 0.2470
vn -0.2470 -0.9211 0.3010
vn -0.1835 -0.9211 0.3434
vn -0.1130 -0.9211 0.3726
vn -0.0382 -0.9211 0.3875
vn 0.0382 -0.9211 0.3875
vn 0.1130 -0.9211 0.3726
vn 0.1835 -0.9211 0.3434
vn 0.2470 -0.9211 0.3010
vn 0.3010 -0.9211 0.2470
vn 0.3434 -0.9211 0.1835
vn 0.3726 -0.9211 0.1130
vn 0.3875 -0.9211 0.0382
vn -0.6564 -0.7516 -0.0647
vn -0.6564 -0.7516 -0.0646
vn -0.6312 -0.7516 -0.1915
vn -0.5817 -0.7516 -0.3109
vn -0.5099 -0.7516 -0.4184
vn -0.4184 -0.7516 -0.5099
vn -0.3109 -0.7516 -0.5817
vn -0.1915 -0.7516 -0.6312
vn -0.0647 -0.7516 -0.6564
vn 0.0647 -0.7516 -0.6564
vn 0.1915 -0.7516 -0.6312
vn 0.3109 -0.7516 -0.5817
vn 0.4184 -0.7516 -0.5099
vn 0.5099 -0.7516 -0.4184
vn 0.5817 -0.7516 -0.3109
vn 0.6312 -0.7516 -0.1915
vn 0.6564 -0.7516 -0.0647
vn 0.6564 -0.7516 -0.0646
vn 0.6564 -0.7516 0.0647
vn 0.6312 -0.7516 0.1915
vn 0.5817 -0.7516 0.3109
vn 0.5099 -0.7516 0.4184
vn 0.4184 -0.7516 0.5099
vn 0.3109 -0.7516 0.5817
vn 0.1915 -0.7516 0.6312
vn 0.0647 -0.7516 0.6564
vn 0.0646 -0.7516 0.6564
vn -0.0647 -0.7516 0.6564
vn -0.0646 -0.7516 0.6564
vn -0.1915 -0.7516 0.6312
vn -0.3109 -0.7516 0.5817
vn -0.4184 -0.7516 0.5099
vn -0.5099 -0.7516 0.4184
vn -0.5817 -0.7516 0.3109
vn -0.6312 -0.7516 0.1915
vn -0.6564 -0.7516 0.0647
vn -0.6564 -0.7516 0.0646
vn -0.8796 0.4734 0.0466
vn -0.8796 0.4552 0.1381
vn -0.8796 0.4195 0.2242
vn -0.8796 0.3677 0.3017
vn -0.8796 0.3017 0.3677
vn -0.8796 0.2242 0.4195
vn -0.8796 0.1381 0.4552
vn -0.8796 0.0466 0.4734
vn -0.8796 -0.0466 0.4734
vn -0.8796 -0.1381 0.4552
vn -0.8796 -0.2242 0.4195
vn -0.8796 -0.3017 0.3677
vn -0.8796 -0.3677 0.3017
vn -0.8796 -0.3677 0.3018
vn -0.8796 -0.4195 0.2242
vn -0.8796 -0.4552 0.1381
vn -0.8796 -0.4734 0.0466
vn -0.8796 -0.4734 -0.0466
vn -0.8796 -0.4552 -0.1381
vn -0.8796 -0.4195 -0.2242
vn -0.8796 -0.3677 -0.3017
vn -0.8796 -0.3677 -0.3018
vn -0.8796 -0.3017 -0.3677
vn -0.8796 -0.2242 -0.4195
vn -0.8796 -0.1381 -0.4552
vn -0.8796 -0.0466 -0.4734
vn -0.8796 0.0466 -0.4734
vn -0.8796 0.1381 -0.4552
vn -0.8796 0.2242 -0.4195
vn -0.8796 0.3017 -0.3677
vn -0.8796 0.3677 -0.3017
vn -0.8796 0.4195 -0.2242
vn -1.0000 0.0000 0.0000
vn -0.8796 0.4552 -0.1381
vn -0.8796 0.4734 -0.0466
vn 1.0000 0.0000 0.0000
vn 0.7350 0.6748 -0.0665
vn 0.7350 0.6489 -0.1968
vn 0.7350 0.5980 -0.3197
vn 0.7350 0.5242 -0.4302
vn 0.7350 0.4302 -0.5242
vn 0.7350 0.3197 -0.5980
vn 0.7350 0.1968 -0.6489
vn 0.7350 0.0665 -0.6748
vn 0.7350 -0.0665 -0.6748
vn 0.7350 -0.1968 -0.6489
vn 0.7350 -0.3197 -0.5980
vn 0.7350 -0.4302 -0.5242
vn 0.7350 -0.5242 -0.4302
vn 0.7350 -0.5980 -0.3197
vn 0.7350 -0.6489 -0.1968
vn 0.7350 -0.6748 -0.0665
vn 0.7350 -0.6748 0.0665
vn 0.7350 -0.6489 0.1968
vn 0.7350 -0.5980 0.3197
vn 0.7350 -0.5242 0.4302
vn 0.7350 -0.4302 0.5242
vn 0.7350 -0.3197 0.5980
vn 0.7350 -0.1968 0.6489
vn 0.7350 -0.0665 0.6748
vn 0.7350 0.0665 0.6748
vn 0.7350 0.1968 0.6489
vn 0.7350 0.3197 0.5980
vn 0.7350 0.4302 0.5242
vn 0.7350 0.5242 0.4302
vn 0.7350 0.5980 0.3197
vn 0.7350 0.6489 0.1968
vn 0.7350 0.6748 0.0665
vn -0.7350 0.6748 -0.0665
vn -0.7350 0.6489 -0.1968
vn -0.7350 0.5980 -0.3197
vn -0.7350 0.5242 -0.4302
vn -0.7350 0.4302 -0.5242
vn -0.7350 0.3197 -0.5980
vn -0.7350 0.1968 -0.6489
vn -0.7350 0.0665 -0.6748
vn -0.7350 -0.0665 -0.6748
vn -0.7350 -0.1968 -0.6489
vn -0.7350 -0.3197 -0.5980
vn -0.7350 -0.4302 -0.5242
vn -0.7350 -0.5242 -0.4302
vn -0.7350 -0.5980 -0.3197
vn -0.7350 -0.6489 -0.1968
vn -0.7350 -0.6748 -0.0665
vn -0.7350 -0.6748 0.0665
vn -0.7350 -0.6489 0.1968
vn -0.7350 -0.5980 0.3197
vn -0.7350 -0.5242 0.4302
vn -0.7350 -0.4302 0.5242
vn -0.7350 -0.3197 0.5980
vn -0.7350 -0.1968 0.6489
vn -0.7350 -0.0665 0.6748
vn -0.7350 0.0665 0.6748
vn -0.7350 0.1968 0.6489
vn -0.7350 0.3197 0.5980
vn -0.7350 0.4302 0.5242
vn -0.7350 0.5242 0.4302
vn -0.7350 0.5980 0.3197
vn -0.7350 0.6489 0.1968
vn -0.7350 0.6748 0.0665
vn 0.8796 -0.4734 -0.0466
vn 0.8796 -0.4552 -0.1381
vn 0.8796 -0.4195 -0.2242
vn 0.8796 -0.3677 -0.3017
vn 0.8796 -0.3017 -0.3677
vn 0.8796 -0.2242 -0.4195
vn 0.8796 -0.1381 -0.4552
vn 0.8796 -0.0466 -0.4734
vn 0.8796 0.0466 -0.4734
vn 0.8796 0.1381 -0.4552
vn 0.8796 0.2242 -0.4195
vn 0.8796 0.3017 -0.3677
vn 0.8796 0.3677 -0.3017
vn 0.8796 0.3677 -0.3018
vn 0.8796 0.4195 -0.2242
vn 0.8796 0.4552 -0.1381
vn 0.8796 0.4734 -0.0466
vn 0.8796 0.4734 0.0466
vn 0.8796 0.4552 0.1381
vn 0.8796 0.4195 0.2242
vn 0.8796 0.3677 0.3017
vn 0.8796 0.3677 0.3018
vn 0.8796 0.3017 0.3677
vn 0.8796 0.2242 0.4195
vn 0.8796 0.1381 0.4552
vn 0.8796 0.0466 0.4734
vn 0.8796 -0.0466 0.4734
vn 0.8796 -0.1381 0.4552
vn 0.8796 -0.2242 0.4195
vn 0.8796 -0.3017 0.3677
vn 0.8796 -0.3677 0.3017
vn 0.8796 -0.4195 0.2242
vn 0.8796 -0.4552 0.1381
vn 0.8796 -0.4734 0.0466
vn 0.8796 -0.3018 -0.3677
vn 0.8796 -0.3018 0.3677
vn -0.8796 0.3677 0.3018
vn -0.8796 -0.3018 0.3677
vn -0.8796 -0.3018 -0.3677
vn -0.8796 0.3677 -0.3018
vn 0.8796 0.3018 -0.3677
vn 0.8796 0.3018 0.3677
vn -0.1116 0.9716 -0.2089
vn -0.8796 0.3018 0.3677
vn -0.8796 0.3018 -0.3677
vn 0.8796 -0.3677 -0.3018
vn 0.8796 -0.3677 0.3018
usemtl マテリアル
s 1
f 1/1/1 2/2/1 3/3/1
f 3/3/2 2/4/2 4/5/2
f 4/5/3 2/6/3 5/7/3
f 5/7/4 2/8/4 6/9/4
f 6/9/5 2/10/5 7/11/5
f 7/11/6 2/12/6 8/13/6
f 8/13/7 2/14/7 9/15/7
f 9/15/8 2/16/8 10/17/8
f 10/17/9 2/18/9 11/19/9
f 11/19/10 2/20/10 12/21/10
f 12/21/11 2/22/11 13/23/11
f 13/23/12 2/24/12 14/25/12
f 14/25/13 2/26/13 15/27/13
f 15/27/14 2/28/14 16/29/14
f 16/29/15 2/30/15 17/31/15
f 17/31/16 2/32/16 18/33/16
f 18/33/17 2/34/17 19/35/17
f 19/35/18 2/36/18 20/37/18
f 20/37/19 2/38/19 21/39/19
f 21/39/20 2/40/20 22/41/20
f 22/41/21 2/42/21 23/43/21
f 23/43/22 2/44/22 24/45/22
f 24/45/23 2/46/23 25/47/23
f 25/47/24 2/48/24 26/49/24
f 26/49/25 2/50/25 27/51/25
f 27/51/26 2/52/26 28/53/26
f 28/53/27 2/54/27 29/55/27
f 29/55/28 2/56/28 30/57/28
f 30/57/29 2/58/29 31/59/29
f 31/59/30 2/60/30 32/61/30
f 32/61/31 2/62/31 33/63/31
f 33/63/32 2/64/32 1/65/32
f 34/66/33 35/67/33 36/68/33
f 37/69/34 38/70/34 39/71/34
f 40/72/35 39/71/35 41/73/35
f 42/74/36 40/72/36 41/73/36
f 43/75/37 42/74/37 44/76/37
f 45/77/38 44/76/38 46/78/38
f 47/79/39 45/77/39 46/78/39
f 48/80/40 49/81/40 47/79/40
f 50/82/41 48/80/41 51/83/41
f 52/84/42 50/82/42 51/83/42
f 53/85/43 52/84/43 54/86/43
f 55/87/44 54/86/44 56/88/44
f 57/89/45 56/88/45 58/90/45
f 59/91/46 58/90/46 60/92/46
f 61/93/47 60/92/47 62/94/47
f 63/95/48 62/94/48 64/96/48
f 65/97/49 64/96/49 66/98/49
f 67/99/50 66/98/50 68/100/50
f 69/101/51 68/100/51 70/102/51
f 71/103/52 70/102/52 72/104/52
f 73/105/53 72/104/53 74/106/53
f 75/107/54 74/106/54 76/108/54
f 77/109/55 76/108/55 78/110/55
f 79/111/56 78/110/56 80/112/56
f 81/113/57 80/112/57 82/114/57
f 83/115/58 82/114/58 84/116/58
f 85/117/59 84/116/59 86/118/59
f 87/119/60 86/118/60 88/120/60
f 89/121/61 88/120/61 90/122/61
f 91/123/62 90/122/62 92/124/62
f 93/125/63 92/124/63 94/126/63
f 95/127/64 94/126/64 96/128/64
f 97/129/65 96/128/65 38/130/65
f 33/63/66 98/131/66 99/132/66
f 32/61/67 99/132/67 100/133/67
f 31/59/68 100/133/68 101/134/68
f 30/57/69 101/134/69 102/135/69
f 29/55/70 102/135/70 103/136/71
f 104/137/72 29/55/72 103/136/72
f 27/51/73 104/137/73 105/138/73
f 106/139/74 27/51/74 105/138/74
f 25/47/75 106/139/75 107/140/75
f 108/141/76 25/47/76 107/140/76
f 109/142/77 24/45/77 108/141/77
f 110/143/78 23/43/79 109/142/79
f 21/39/80 110/143/80 111/144/81
f 20/37/82 111/144/82 112/145/82
f 113/146/83 20/37/83 112/145/83
f 114/147/84 19/35/84 113/146/84
f 115/148/85 18/33/85 114/147/85
f 116/149/86 17/31/86 115/148/86
f 117/150/87 16/29/87 116/149/87
f 118/151/88 15/27/89 117/150/89
f 13/23/90 118/151/90 119/152/90
f 12/21/91 119/152/91 120/153/91
f 11/19/92 120/153/92 121/154/92
f 122/155/93 11/19/93 121/154/94
f 9/15/95 122/155/95 123/156/95
f 8/13/96 123/156/96 124/157/96
f 7/11/97 124/157/97 125/158/97
f 126/159/98 7/11/98 125/158/99
f 127/160/100 6/9/100 126/159/100
f 128/161/101 5/7/101 127/160/101
f 3/3/102 128/161/102 129/162/102
f 1/1/103 129/162/103 98/163/103
f 97/129/104 129/162/104 95/127/104
f 129/162/105 93/125/105 95/127/105
f 93/125/106 127/160/106 91/123/106
f 91/123/107 126/159/107 89/121/107
f 126/159/108 87/119/108 89/121/108
f 125/158/109 85/117/109 87/119/109
f 124/157/110 83/115/110 85/117/110
f 123/156/111 81/113/111 83/115/111
f 81/113/112 121/154/112 79/111/112
f 121/154/113 77/109/113 79/111/113
f 77/109/114 119/152/114 75/107/114
f 119/152/115 73/105/116 75/107/116
f 73/105/117 117/150/117 71/103/117
f 117/150/118 69/101/118 71/103/118
f 116/149/119 67/99/119 69/101/119
f 115/148/120 65/97/120 67/99/120
f 114/147/121 63/95/121 65/97/121
f 113/146/122 61/93/122 63/95/122
f 61/93/123 111/144/123 59/91/123
f 111/144/124 57/89/124 59/91/124
f 110/143/125 55/87/125 57/89/125
f 109/142/126 53/85/126 55/87/126
f 53/85/127 107/140/127 130/164/127
f 107/140/128 50/82/128 130/164/128
f 106/139/129 131/165/129 50/82/129
f 105/138/130 49/81/130 131/165/130
f 49/81/131 103/136/131 45/77/131
f 45/77/132 102/135/132 43/75/132
f 102/135/133 132/166/133 43/75/133
f 101/134/134 40/72/134 132/166/134
f 40/72/135 99/132/135 37/69/135
f 99/132/136 97/167/136 37/69/136
f 38/130/137 133/168/137 134/169/137
f 96/128/138 135/170/138 133/168/138
f 94/126/139 136/171/139 135/170/139
f 92/124/140 137/172/140 136/171/140
f 90/122/141 138/173/141 137/172/141
f 88/120/142 139/174/142 138/173/142
f 86/118/143 140/175/143 139/174/143
f 140/175/144 82/114/144 141/176/144
f 82/114/145 142/177/145 141/176/145
f 80/112/146 143/178/146 142/177/146
f 78/110/147 144/179/147 143/178/147
f 144/179/148 74/106/148 145/180/148
f 74/106/149 146/181/149 145/180/149
f 146/181/150 70/102/150 147/182/150
f 70/102/151 148/183/151 147/182/151
f 68/100/152 149/184/152 148/183/152
f 66/98/153 150/185/153 149/184/153
f 64/96/154 151/186/154 150/185/154
f 62/94/155 152/187/155 151/186/155
f 60/92/156 153/188/156 152/187/156
f 58/90/157 154/189/157 153/188/157
f 56/88/158 155/190/158 154/189/158
f 54/86/159 156/191/159 155/190/159
f 52/84/160 157/192/160 156/191/160
f 157/192/161 48/80/161 158/193/161
f 48/80/162 159/194/162 158/193/162
f 47/79/163 160/195/163 159/194/163
f 46/78/164 161/196/164 160/195/164
f 44/76/165 162/197/165 161/196/165
f 162/197/166 41/73/166 163/198/166
f 41/73/167 164/199/167 163/198/167
f 39/71/168 134/200/168 164/199/168
f 165/201/169 134/200/169 166/202/169
f 163/198/170 165/201/170 167/203/170
f 168/204/171 163/198/171 167/203/171
f 161/196/172 168/204/172 169/205/172
f 170/206/173 161/196/173 169/205/173
f 159/194/174 170/206/174 171/207/174
f 172/208/175 159/194/175 171/207/175
f 173/209/176 158/193/176 172/208/176
f 156/191/177 173/209/177 174/210/177
f 155/190/178 174/210/178 175/211/178
f 176/212/179 155/190/179 175/211/179
f 153/188/180 176/212/180 177/213/180
f 178/214/181 153/188/181 177/213/181
f 151/186/182 178/214/182 179/215/182
f 150/185/183 179/215/183 180/216/183
f 181/217/184 150/185/184 180/216/184
f 148/183/185 181/217/185 182/218/185
f 183/219/186 148/183/186 182/218/186
f 184/220/187 147/182/187 183/219/187
f 145/180/188 184/220/188 185/221/188
f 186/222/189 145/180/189 185/221/189
f 143/178/190 186/222/190 187/223/190
f 188/224/191 143/178/191 187/223/191
f 141/176/192 188/224/192 189/225/192
f 190/226/193 141/176/193 189/225/193
f 139/174/194 190/226/194 191/227/194
f 192/228/195 139/174/195 191/227/195
f 137/172/196 192/228/196 193/229/196
f 194/230/197 137/172/197 193/229/197
f 135/170/198 194/230/198 195/231/198
f 196/232/199 135/170/199 195/231/199
f 134/169/200 196/232/200 166/233/200
f 166/233/201 197/234/202 198/235/202
f 197/234/203 195/231/203 199/236/203
f 195/231/204 200/237/204 199/236/204
f 200/237/205 193/229/205 201/238/205
f 193/229/206 202/239/206 201/238/206
f 202/239/207 191/227/207 203/240/207
f 191/227/208 204/241/208 203/240/208
f 204/241/209 189/225/209 205/242/209
f 189/225/210 206/243/210 205/242/210
f 206/243/211 187/223/211 207/244/211
f 187/223/212 208/245/212 207/244/212
f 208/245/213 185/221/213 209/246/213
f 185/221/214 34/247/214 209/246/214
f 34/247/215 183/219/215 210/248/215
f 210/248/216 182/218/216 211/249/216
f 182/218/217 212/250/218 211/249/218
f 212/250/219 180/216/219 213/251/219
f 180/216/220 214/252/220 213/251/220
f 179/215/221 215/253/221 214/252/221
f 215/253/222 177/213/222 216/254/222
f 177/213/223 35/255/223 216/254/223
f 176/212/224 217/256/224 35/255/224
f 175/211/225 218/257/225 217/256/225
f 174/210/226 219/258/226 218/257/227
f 219/258/228 172/208/228 220/259/229
f 220/259/230 171/207/230 221/260/230
f 171/207/231 222/261/231 221/260/231
f 222/261/232 169/205/232 223/262/232
f 169/205/233 36/263/233 223/262/233
f 36/263/234 167/203/234 224/264/234
f 167/203/235 225/265/235 224/264/235
f 165/201/236 198/266/237 225/265/237
f 226/267/238 227/268/238 228/269/238
f 228/269/239 229/270/239 230/271/239
f 230/271/240 231/272/240 232/273/240
f 232/273/241 233/274/241 234/275/241
f 234/275/242 235/276/242 236/277/242
f 236/277/243 237/278/243 238/279/243
f 238/279/244 239/280/244 240/281/244
f 240/281/245 241/282/245 242/283/245
f 241/282/246 243/284/246 242/283/246
f 244/285/247 245/286/247 243/284/247
f 246/287/248 247/288/248 245/286/248
f 248/289/249 249/290/249 247/288/249
f 250/291/250 251/292/250 249/290/251
f 252/293/252 253/294/252 251/292/252
f 254/295/253 255/296/253 253/294/253
f 256/297/254 257/298/254 255/296/254
f 257/298/255 258/299/255 259/300/255
f 259/300/256 260/301/256 261/302/256
f 261/302/257 262/303/257 263/304/257
f 263/304/258 264/305/258 265/306/259
f 265/306/260 266/307/260 267/308/260
f 267/308/261 268/309/261 269/310/261
f 269/310/262 270/311/262 271/312/262
f 271/312/263 272/313/263 273/314/263
f 272/313/264 274/315/264 273/314/264
f 275/316/265 276/317/265 274/315/265
f 277/318/266 278/319/266 276/317/266
f 279/320/267 280/321/267 278/319/267
f 281/322/268 282/323/268 280/321/268
f 283/324/269 284/325/269 282/323/269
f 250/326/270 248/327/270 233/328/270
f 285/329/271 286/330/271 284/325/271
f 287/331/272 226/332/272 286/330/272
f 288/333/273 289/334/273 290/335/273
f 291/336/274 292/337/274 293/338/274
f 294/339/275 295/340/275 291/336/275
f 296/341/276 297/342/276 294/339/276
f 298/343/277 299/344/277 296/341/277
f 300/345/278 301/346/278 298/343/278
f 302/347/279 303/348/279 300/345/279
f 304/349/280 305/350/280 302/347/280
f 306/351/281 307/352/281 304/349/281
f 308/353/282 306/351/282 309/354/282
f 310/355/283 309/354/283 311/356/283
f 312/357/284 311/356/284 313/358/284
f 314/359/285 313/358/285 315/360/285
f 316/361/286 315/360/286 317/362/286
f 318/363/287 317/362/287 319/364/287
f 320/365/288 319/364/288 321/366/288
f 322/367/289 321/366/289 323/368/289
f 324/369/290 322/367/290 323/368/290
f 325/370/291 326/371/291 324/369/291
f 327/372/292 328/373/292 325/370/292
f 329/374/293 330/375/293 327/372/293
f 331/376/294 332/377/294 329/374/294
f 333/378/295 334/379/295 331/376/295
f 335/380/296 336/381/296 333/378/296
f 337/382/297 338/383/297 335/380/297
f 339/384/298 337/382/298 340/385/298
f 341/386/299 340/385/299 342/387/299
f 343/388/300 342/387/300 344/389/300
f 345/390/301 344/389/301 346/391/301
f 347/392/302 346/391/302 348/393/302
f 349/394/303 348/393/303 350/395/303
f 351/396/304 350/395/304 352/397/304
f 292/398/305 352/397/305 293/399/305
f 353/400/306 292/337/306 295/340/306
f 354/401/307 295/340/307 297/342/307
f 355/402/308 297/342/308 299/344/308
f 356/403/309 299/344/309 301/346/309
f 357/404/310 301/346/310 303/348/310
f 358/405/311 303/348/311 305/350/311
f 359/406/312 305/350/312 307/352/312
f 360/407/313 307/352/313 361/408/313
f 308/353/314 360/407/314 361/408/314
f 310/355/315 362/409/315 308/353/315
f 312/357/316 363/410/316 310/355/316
f 314/359/317 364/411/317 312/357/317
f 316/361/318 365/412/318 314/359/318
f 318/363/319 366/413/319 316/361/319
f 320/365/320 367/414/320 318/363/320
f 322/367/321 368/415/321 320/365/321
f 369/416/322 322/367/322 326/371/322
f 370/417/323 326/371/323 328/373/323
f 371/418/324 328/373/324 330/375/324
f 372/419/325 330/375/325 332/377/325
f 373/420/326 332/377/326 334/379/326
f 374/421/327 334/379/327 336/381/327
f 375/422/328 336/381/328 338/383/328
f 376/423/329 338/383/329 377/424/329
f 339/384/330 376/423/330 377/424/330
f 341/386/331 378/425/331 339/384/331
f 343/388/332 379/426/332 341/386/332
f 345/390/333 380/427/333 343/388/333
f 347/392/334 381/428/334 345/390/334
f 349/394/335 382/429/335 347/392/335
f 351/396/336 383/430/336 349/394/336
f 292/398/337 384/431/337 351/396/337
f 293/399/338 385/432/338 386/433/338
f 352/397/339 387/434/339 385/432/339
f 350/395/340 388/435/340 387/434/340
f 348/393/341 389/436/341 388/435/341
f 346/391/342 390/437/342 389/436/342
f 344/389/343 391/438/343 390/437/343
f 342/387/344 392/439/344 391/438/344
f 340/385/345 393/440/345 392/439/345
f 393/440/346 335/380/346 394/441/346
f 394/441/347 333/378/347 395/442/347
f 395/442/348 331/376/348 396/443/348
f 396/443/349 329/374/349 397/444/349
f 397/444/350 327/372/350 398/445/351
f 398/445/352 325/370/352 399/446/352
f 399/446/353 324/369/353 400/447/353
f 400/447/354 323/368/354 401/448/354
f 323/368/355 402/449/355 401/448/355
f 321/366/356 403/450/356 402/449/356
f 319/364/357 404/451/357 403/450/357
f 317/362/358 405/452/358 404/451/359
f 315/360/360 406/453/360 405/452/360
f 313/358/361 407/454/361 406/453/361
f 311/356/362 408/455/362 407/454/362
f 309/354/363 409/456/363 408/455/363
f 409/456/364 304/349/364 410/457/364
f 410/457/365 302/347/365 411/458/365
f 411/458/366 300/345/366 412/459/366
f 412/459/367 298/343/367 413/460/367
f 413/460/368 296/341/368 414/461/368
f 414/461/369 294/339/369 415/462/369
f 415/462/370 291/336/370 416/463/370
f 416/463/371 293/338/371 386/464/371
f 286/330/254 417/465/254 353/400/254
f 284/325/253 353/400/253 354/401/253
f 282/323/252 354/401/252 355/402/252
f 280/321/250 355/402/250 356/403/250
f 278/319/249 356/403/249 357/404/249
f 276/317/248 357/404/248 358/405/248
f 274/315/247 358/405/247 359/406/247
f 273/314/246 359/406/246 360/407/246
f 362/409/245 273/314/245 360/407/245
f 363/410/244 271/312/244 362/409/244
f 364/411/243 269/310/243 363/410/243
f 365/412/242 267/308/242 364/411/242
f 366/413/241 265/306/241 365/412/241
f 367/414/240 263/304/240 366/413/240
f 368/415/239 261/302/239 367/414/239
f 418/466/238 259/300/238 368/415/238
f 255/296/272 418/466/272 369/416/272
f 253/294/271 369/416/271 370/417/271
f 251/292/269 370/417/269 371/418/269
f 249/290/268 371/418/268 372/419/268
f 247/288/267 372/419/267 373/420/267
f 245/286/266 373/420/266 374/421/266
f 243/284/265 374/421/265 375/422/265
f 242/283/264 375/422/264 376/423/264
f 378/425/263 242/283/263 376/423/263
f 379/426/262 240/281/262 378/425/262
f 380/427/261 238/279/261 379/426/261
f 381/428/260 236/277/260 380/427/260
f 382/429/258 234/275/258 381/428/258
f 383/430/257 232/273/257 382/429/257
f 384/431/256 230/271/256 383/430/256
f 417/467/255 228/269/255 384/431/255
f 419/468/354 386/464/354 420/469/354
f 421/470/353 416/463/353 419/468/353
f 422/471/352 415/462/352 421/470/352
f 289/472/351 414/461/350 422/471/351
f 288/473/349 413/460/349 289/472/349
f 423/474/348 412/459/348 288/473/348
f 424/475/347 411/458/347 423/474/347
f 425/476/346 410/457/346 424/475/346
f 408/455/345 425/476/345 426/477/345
f 407/454/344 426/477/344 427/478/344
f 406/453/343 427/478/343 290/479/343
f 405/452/372 290/479/342 428/480/342
f 404/451/341 428/480/341 429/481/341
f 403/450/340 429/481/340 430/482/340
f 402/449/339 430/482/339 431/483/339
f 401/448/338 431/483/338 432/484/338
f 433/485/371 401/448/371 432/484/371
f 434/486/370 400/447/370 433/485/370
f 435/487/369 399/446/369 434/486/369
f 436/488/368 398/445/368 435/487/368
f 437/489/367 397/444/373 436/488/367
f 438/490/366 396/443/366 437/489/366
f 439/491/365 395/442/365 438/490/365
f 440/492/364 394/441/364 439/491/364
f 392/439/363 440/492/363 441/493/363
f 391/438/362 441/493/362 442/494/362
f 390/437/361 442/494/361 443/495/361
f 389/436/360 443/495/360 444/496/360
f 388/435/358 444/496/359 445/497/359
f 387/434/357 445/497/357 446/498/357
f 385/432/356 446/498/356 447/499/356
f 386/433/355 447/499/355 420/500/355
f 448/501/238 449/502/238 450/503/238
f 450/503/239 451/504/239 452/505/239
f 452/505/240 453/506/240 454/507/240
f 454/507/241 455/508/374 456/509/241
f 456/509/242 457/510/242 458/511/242
f 458/511/243 459/512/243 460/513/243
f 460/513/244 461/514/244 462/515/244
f 462/515/245 463/516/245 464/517/245
f 463/516/246 465/518/246 464/517/246
f 466/519/247 467/520/247 465/518/247
f 468/521/248 469/522/248 467/520/248
f 470/523/249 471/524/375 469/522/375
f 472/525/250 473/526/250 471/524/251
f 474/527/252 475/528/252 473/526/252
f 476/529/253 477/530/253 475/528/253
f 478/531/254 479/532/254 477/530/254
f 479/532/255 480/533/255 481/534/255
f 481/534/256 482/535/256 483/536/256
f 483/536/257 484/537/257 485/538/257
f 485/538/258 486/539/258 487/540/259
f 487/540/376 488/541/260 489/542/376
f 489/542/261 490/543/261 491/544/261
f 491/544/262 492/545/262 493/546/262
f 493/546/263 494/547/263 495/548/263
f 494/547/264 496/549/264 495/548/264
f 497/550/265 498/551/265 496/549/265
f 499/552/266 500/553/266 498/551/266
f 501/554/267 502/555/267 500/553/267
f 503/556/377 504/557/268 502/555/268
f 505/558/269 506/559/269 504/557/269
f 505/560/270 503/561/270 484/562/270
f 507/563/271 508/564/271 506/559/271
f 509/565/272 448/566/272 508/564/272
f 510/567/273 511/568/273 512/569/273
f 513/570/274 514/571/274 515/572/274
f 516/573/275 517/574/275 513/570/275
f 518/575/276 519/576/276 516/573/276
f 520/577/277 521/578/277 518/575/277
f 522/579/278 523/580/278 520/577/278
f 524/581/279 525/582/279 522/579/279
f 526/583/280 527/584/280 524/581/280
f 528/585/281 529/586/281 526/583/281
f 530/587/282 528/585/282 531/588/282
f 532/589/283 531/588/283 533/590/283
f 534/591/284 533/590/284 535/592/284
f 536/593/285 535/592/285 537/594/285
f 538/595/286 537/594/286 539/596/286
f 540/597/287 539/596/287 541/598/287
f 542/599/288 541/598/288 543/600/288
f 544/601/289 543/600/289 545/602/289
f 546/603/290 544/601/290 545/602/290
f 547/604/291 548/605/291 546/603/291
f 549/606/292 550/607/292 547/604/292
f 551/608/293 552/609/293 549/606/293
f 553/610/294 554/611/294 551/608/294
f 555/612/295 556/613/295 553/610/295
f 557/614/296 558/615/296 555/612/296
f 559/616/297 560/617/297 557/614/297
f 561/618/298 559/616/298 562/619/298
f 563/620/299 562/619/299 564/621/299
f 565/622/300 564/621/300 566/623/300
f 567/624/301 566/623/301 568/625/301
f 569/626/302 568/625/302 570/627/302
f 571/628/303 570/627/303 572/629/303
f 573/630/304 572/629/304 574/631/304
f 514/632/305 574/631/305 515/633/305
f 575/634/306 514/571/306 517/574/306
f 576/635/307 517/574/307 519/576/307
f 577/636/308 519/576/308 521/578/308
f 578/637/309 521/578/309 523/580/309
f 579/638/310 523/580/310 525/582/310
f 580/639/311 525/582/311 527/584/311
f 581/640/312 527/584/312 529/586/312
f 582/641/313 529/586/313 583/642/313
f 530/587/314 582/641/314 583/642/314
f 532/589/315 584/643/315 530/587/315
f 534/591/316 585/644/316 532/589/316
f 536/593/317 586/645/317 534/591/317
f 538/595/318 587/646/318 536/593/318
f 540/597/319 588/647/319 538/595/319
f 542/599/320 589/648/320 540/597/320
f 544/601/321 590/649/321 542/599/321
f 591/650/322 544/601/322 548/605/322
f 592/651/323 548/605/323 550/607/323
f 593/652/324 550/607/324 552/609/324
f 594/653/325 552/609/325 554/611/325
f 595/654/326 554/611/326 556/613/326
f 596/655/327 556/613/327 558/615/327
f 597/656/328 558/615/328 560/617/328
f 598/657/329 560/617/329 599/658/329
f 561/618/330 598/657/330 599/658/330
f 563/620/331 600/659/331 561/618/331
f 565/622/332 601/660/332 563/620/332
f 567/624/333 602/661/333 565/622/333
f 569/626/334 603/662/334 567/624/334
f 571/628/335 604/663/335 569/626/335
f 573/630/336 605/664/336 571/628/336
f 514/632/337 606/665/337 573/630/337
f 515/633/338 607/666/338 608/667/338
f 574/631/339 609/668/339 607/666/339
f 572/629/340 610/669/340 609/668/340
f 570/627/341 611/670/341 610/669/341
f 568/625/342 612/671/342 611/670/342
f 566/623/343 613/672/343 612/671/343
f 564/621/344 614/673/344 613/672/344
f 562/619/345 615/674/345 614/673/345
f 615/674/346 557/614/346 616/675/346
f 616/675/347 555/612/347 617/676/347
f 617/676/348 553/610/348 618/677/348
f 618/677/349 551/608/349 619/678/378
f 619/678/350 549/606/350 620/679/351
f 620/679/352 547/604/352 621/680/352
f 621/680/353 546/603/353 622/681/353
f 622/681/354 545/602/354 623/682/354
f 545/602/355 624/683/355 623/682/355
f 543/600/356 625/684/356 624/683/356
f 541/598/357 626/685/357 625/684/357
f 539/596/358 627/686/358 626/685/359
f 537/594/360 628/687/360 627/686/379
f 535/592/361 629/688/361 628/687/361
f 533/590/362 630/689/362 629/688/362
f 531/588/363 631/690/363 630/689/363
f 631/690/364 526/583/364 632/691/364
f 632/691/365 524/581/365 633/692/365
f 633/692/366 522/579/366 634/693/366
f 634/693/367 520/577/367 635/694/367
f 635/694/368 518/575/368 636/695/368
f 636/695/369 516/573/369 637/696/369
f 637/696/370 513/570/370 638/697/370
f 638/697/371 515/572/371 608/698/371
f 508/564/254 639/699/254 575/634/254
f 506/559/253 575/634/253 576/635/253
f 504/557/252 576/635/252 577/636/252
f 502/555/250 577/636/250 578/637/250
f 500/553/249 578/637/249 579/638/249
f 498/551/248 579/638/248 580/639/248
f 496/549/247 580/639/247 581/640/247
f 495/548/246 581/640/246 582/641/246
f 584/643/245 495/548/245 582/641/245
f 585/644/244 493/546/244 584/643/244
f 586/645/243 491/544/243 585/644/243
f 587/646/242 489/542/242 586/645/242
f 588/647/241 487/540/241 587/646/241
f 589/648/240 485/538/240 588/647/240
f 590/649/239 483/536/239 589/648/239
f 640/700/238 481/534/238 590/649/238
f 477/530/272 640/700/272 591/650/272
f 475/528/271 591/650/271 592/651/271
f 473/526/269 592/651/269 593/652/269
f 471/524/268 593/652/268 594/653/268
f 469/522/267 594/653/267 595/654/267
f 467/520/266 595/654/266 596/655/266
f 465/518/265 596/655/265 597/656/265
f 464/517/264 597/656/264 598/657/264
f 600/659/263 464/517/263 598/657/263
f 601/660/262 462/515/262 600/659/262
f 602/661/261 460/513/261 601/660/261
f 603/662/260 458/511/260 602/661/260
f 604/663/258 456/509/258 603/662/258
f 605/664/257 454/507/257 604/663/257
f 606/665/256 452/505/256 605/664/256
f 639/701/255 450/503/255 606/665/255
f 641/702/354 608/698/354 642/703/354
f 643/704/353 638/697/353 641/702/353
f 511/705/352 637/696/352 643/704/352
f 510/706/350 636/695/350 511/705/350
f 644/707/349 635/694/349 510/706/349
f 645/708/348 634/693/348 644/707/348
f 646/709/347 633/692/347 645/708/347
f 647/710/346 632/691/346 646/709/346
f 630/689/345 647/710/345 648/711/345
f 629/688/344 648/711/344 649/712/344
f 628/687/343 649/712/343 650/713/343
f 627/686/342 650/713/342 512/714/342
f 626/685/341 512/714/341 651/715/341
f 625/684/340 651/715/340 652/716/340
f 624/683/339 652/716/339 653/717/339
f 623/682/338 653/717/338 654/718/338
f 655/719/371 623/682/371 654/718/371
f 656/720/370 622/681/370 655/719/370
f 657/721/369 621/680/369 656/720/369
f 658/722/368 620/679/368 657/721/368
f 659/723/367 619/678/367 658/722/367
f 660/724/366 618/677/366 659/723/366
f 661/725/365 617/676/365 660/724/365
f 662/726/364 616/675/364 661/725/364
f 614/673/363 662/726/363 663/727/363
f 613/672/362 663/727/362 664/728/362
f 612/671/361 664/728/361 665/729/361
f 611/670/360 665/729/360 666/730/360
f 610/669/358 666/730/358 667/731/358
f 609/668/357 667/731/357 668/732/357
f 607/666/356 668/732/356 669/733/356
f 608/667/355 669/733/355 642/734/355
f 36/68/33 224/735/33 197/736/33
f 224/735/33 225/737/33 197/736/33
f 225/737/33 198/738/33 197/736/33
f 197/736/33 199/739/33 200/740/33
f 200/740/33 201/741/33 197/736/33
f 201/741/33 202/742/33 197/736/33
f 202/742/33 203/743/33 204/744/33
f 204/744/33 205/745/33 202/742/33
f 205/745/33 206/746/33 202/742/33
f 206/746/33 207/747/33 34/66/33
f 207/747/33 208/748/33 34/66/33
f 208/748/33 209/749/33 34/66/33
f 34/66/33 210/750/33 211/751/33
f 211/751/33 212/752/33 213/753/33
f 213/753/33 214/754/33 215/755/33
f 215/755/33 216/756/33 213/753/33
f 216/756/33 35/67/33 213/753/33
f 35/67/33 217/757/33 218/758/33
f 218/758/33 219/759/33 220/760/33
f 220/760/33 221/761/33 222/762/33
f 222/762/33 223/763/33 36/68/33
f 34/66/33 211/751/33 213/753/33
f 35/67/33 218/758/33 220/760/33
f 220/760/33 222/762/33 35/67/33
f 222/762/33 36/68/33 35/67/33
f 36/68/33 197/736/33 34/66/33
f 197/736/33 202/742/33 34/66/33
f 202/742/33 206/746/33 34/66/33
f 34/66/33 213/753/33 35/67/33
f 37/69/34 97/167/34 38/70/34
f 40/72/35 37/69/35 39/71/35
f 42/74/36 132/166/36 40/72/36
f 43/75/37 132/166/37 42/74/37
f 45/77/38 43/75/38 44/76/38
f 47/79/39 49/81/39 45/77/39
f 48/80/40 131/165/40 49/81/40
f 50/82/41 131/165/41 48/80/41
f 52/84/42 130/164/42 50/82/42
f 53/85/43 130/164/43 52/84/43
f 55/87/44 53/85/44 54/86/44
f 57/89/45 55/87/45 56/88/45
f 59/91/46 57/89/46 58/90/46
f 61/93/47 59/91/47 60/92/47
f 63/95/48 61/93/48 62/94/48
f 65/97/49 63/95/49 64/96/49
f 67/99/50 65/97/50 66/98/50
f 69/101/51 67/99/51 68/100/51
f 71/103/52 69/101/52 70/102/52
f 73/105/53 71/103/53 72/104/53
f 75/107/54 73/105/54 74/106/54
f 77/109/55 75/107/55 76/108/55
f 79/111/56 77/109/56 78/110/56
f 81/113/57 79/111/57 80/112/57
f 83/115/58 81/113/58 82/114/58
f 85/117/59 83/115/59 84/116/59
f 87/119/60 85/117/60 86/118/60
f 89/121/61 87/119/61 88/120/61
f 91/123/62 89/121/62 90/122/62
f 93/125/63 91/123/63 92/124/63
f 95/127/64 93/125/64 94/126/64
f 97/129/65 95/127/65 96/128/65
f 33/63/66 1/65/66 98/131/66
f 32/61/67 33/63/67 99/132/67
f 31/59/68 32/61/68 100/133/68
f 30/57/69 31/59/69 101/134/69
f 29/55/70 30/57/70 102/135/70
f 104/137/72 28/53/72 29/55/72
f 27/51/73 28/53/73 104/137/73
f 106/139/74 26/49/74 27/51/74
f 25/47/75 26/49/75 106/139/75
f 108/141/76 24/45/76 25/47/76
f 109/142/77 23/43/380 24/45/77
f 110/143/78 22/41/78 23/43/79
f 21/39/80 22/41/80 110/143/80
f 20/37/82 21/39/82 111/144/82
f 113/146/83 19/35/83 20/37/83
f 114/147/84 18/33/84 19/35/84
f 115/148/85 17/31/85 18/33/85
f 116/149/86 16/29/86 17/31/86
f 117/150/87 15/27/87 16/29/87
f 118/151/88 14/25/88 15/27/89
f 13/23/90 14/25/90 118/151/90
f 12/21/91 13/23/91 119/152/91
f 11/19/92 12/21/92 120/153/92
f 122/155/93 10/17/93 11/19/93
f 9/15/95 10/17/95 122/155/95
f 8/13/96 9/15/96 123/156/96
f 7/11/97 8/13/97 124/157/97
f 126/159/98 6/9/98 7/11/98
f 127/160/100 5/7/100 6/9/100
f 128/161/101 4/5/101 5/7/101
f 3/3/102 4/5/102 128/161/102
f 1/1/103 3/3/103 129/162/103
f 97/129/104 98/163/104 129/162/104
f 129/162/105 128/161/105 93/125/105
f 93/125/106 128/161/106 127/160/106
f 91/123/107 127/160/107 126/159/107
f 126/159/108 125/158/108 87/119/108
f 125/158/109 124/157/109 85/117/109
f 124/157/110 123/156/110 83/115/110
f 123/156/111 122/155/111 81/113/111
f 81/113/112 122/155/112 121/154/112
f 121/154/113 120/153/113 77/109/113
f 77/109/114 120/153/114 119/152/114
f 119/152/115 118/151/115 73/105/116
f 73/105/117 118/151/117 117/150/117
f 117/150/118 116/149/118 69/101/118
f 116/149/119 115/148/119 67/99/119
f 115/148/120 114/147/120 65/97/120
f 114/147/121 113/146/121 63/95/121
f 113/146/122 112/145/122 61/93/122
f 61/93/123 112/145/123 111/144/123
f 111/144/124 110/143/124 57/89/124
f 110/143/125 109/142/125 55/87/125
f 109/142/126 108/141/126 53/85/126
f 53/85/127 108/141/127 107/140/127
f 107/140/128 106/139/128 50/82/128
f 106/139/129 105/138/129 131/165/129
f 105/138/130 104/137/130 49/81/130
f 49/81/131 104/137/131 103/136/131
f 45/77/132 103/136/132 102/135/132
f 102/135/133 101/134/133 132/166/133
f 101/134/134 100/133/134 40/72/134
f 40/72/135 100/133/135 99/132/135
f 99/132/136 98/131/136 97/167/136
f 38/130/137 96/128/137 133/168/137
f 96/128/138 94/126/138 135/170/138
f 94/126/139 92/124/139 136/171/139
f 92/124/140 90/122/140 137/172/140
f 90/122/141 88/120/141 138/173/141
f 88/120/142 86/118/142 139/174/142
f 86/118/143 84/116/143 140/175/143
f 140/175/144 84/116/144 82/114/144
f 82/114/145 80/112/145 142/177/145
f 80/112/146 78/110/146 143/178/146
f 78/110/147 76/108/147 144/179/147
f 144/179/148 76/108/148 74/106/148
f 74/106/149 72/104/149 146/181/149
f 146/181/150 72/104/150 70/102/150
f 70/102/151 68/100/151 148/183/151
f 68/100/152 66/98/152 149/184/152
f 66/98/153 64/96/153 150/185/153
f 64/96/154 62/94/154 151/186/154
f 62/94/155 60/92/155 152/187/155
f 60/92/156 58/90/156 153/188/156
f 58/90/157 56/88/157 154/189/157
f 56/88/158 54/86/158 155/190/158
f 54/86/159 52/84/159 156/191/159
f 52/84/160 51/83/160 157/192/160
f 157/192/161 51/83/161 48/80/161
f 48/80/162 47/79/162 159/194/162
f 47/79/163 46/78/163 160/195/163
f 46/78/164 44/76/164 161/196/164
f 44/76/165 42/74/165 162/197/165
f 162/197/166 42/74/166 41/73/166
f 41/73/167 39/71/167 164/199/167
f 39/71/168 38/70/168 134/200/168
f 165/201/169 164/199/169 134/200/169
f 163/198/170 164/199/170 165/201/170
f 168/204/171 162/197/171 163/198/171
f 161/196/172 162/197/172 168/204/172
f 170/206/173 160/195/173 161/196/173
f 159/194/174 160/195/174 170/206/174
f 172/208/175 158/193/175 159/194/175
f 173/209/176 157/192/176 158/193/176
f 156/191/177 157/192/177 173/209/177
f 155/190/178 156/191/178 174/210/178
f 176/212/179 154/189/179 155/190/179
f 153/188/180 154/189/180 176/212/180
f 178/214/181 152/187/181 153/188/181
f 151/186/182 152/187/182 178/214/182
f 150/185/183 151/186/183 179/215/183
f 181/217/184 149/184/184 150/185/184
f 148/183/185 149/184/185 181/217/185
f 183/219/186 147/182/186 148/183/186
f 184/220/187 146/181/187 147/182/187
f 145/180/188 146/181/188 184/220/188
f 186/222/189 144/179/189 145/180/189
f 143/178/190 144/179/190 186/222/190
f 188/224/191 142/177/191 143/178/191
f 141/176/192 142/177/192 188/224/192
f 190/226/193 140/175/193 141/176/193
f 139/174/194 140/175/194 190/226/194
f 192/228/195 138/173/195 139/174/195
f 137/172/196 138/173/196 192/228/196
f 194/230/197 136/171/197 137/172/197
f 135/170/198 136/171/198 194/230/198
f 196/232/199 133/168/199 135/170/199
f 134/169/200 133/168/200 196/232/200
f 166/233/201 196/232/201 197/234/202
f 197/234/203 196/232/203 195/231/203
f 195/231/204 194/230/204 200/237/204
f 200/237/205 194/230/205 193/229/205
f 193/229/206 192/228/206 202/239/206
f 202/239/207 192/228/207 191/227/207
f 191/227/208 190/226/208 204/241/208
f 204/241/209 190/226/209 189/225/209
f 189/225/210 188/224/210 206/243/210
f 206/243/211 188/224/211 187/223/211
f 187/223/212 186/222/212 208/245/212
f 208/245/213 186/222/213 185/221/213
f 185/221/214 184/220/214 34/247/214
f 34/247/215 184/220/215 183/219/215
f 210/248/216 183/219/216 182/218/216
f 182/218/217 181/217/217 212/250/218
f 212/250/219 181/217/219 180/216/219
f 180/216/220 179/215/220 214/252/220
f 179/215/221 178/214/221 215/253/221
f 215/253/222 178/214/222 177/213/222
f 177/213/223 176/212/223 35/255/223
f 176/212/224 175/211/224 217/256/224
f 175/211/225 174/210/225 218/257/225
f 174/210/226 173/209/226 219/258/226
f 219/258/228 173/209/228 172/208/228
f 220/259/230 172/208/230 171/207/230
f 171/207/231 170/206/231 222/261/231
f 222/261/232 170/206/232 169/205/232
f 169/205/233 168/204/233 36/263/233
f 36/263/234 168/204/234 167/203/234
f 167/203/235 165/201/235 225/265/235
f 165/201/236 166/202/236 198/266/237
f 226/267/238 670/764/238 227/268/238
f 228/269/239 227/268/239 229/270/239
f 230/271/240 229/270/240 231/272/240
f 232/273/241 231/272/241 233/274/241
f 234/275/242 233/274/242 235/276/242
f 236/277/243 235/276/243 237/278/243
f 238/279/244 237/278/244 239/280/244
f 240/281/245 239/280/245 241/282/245
f 241/282/246 244/285/246 243/284/246
f 244/285/247 246/287/247 245/286/247
f 246/287/248 248/289/248 247/288/248
f 248/289/249 250/291/249 249/290/249
f 250/291/250 252/293/250 251/292/250
f 252/293/252 254/295/252 253/294/252
f 254/295/253 256/297/253 255/296/253
f 256/297/254 671/765/254 257/298/254
f 257/298/255 671/765/255 258/299/255
f 259/300/256 258/299/256 260/301/256
f 261/302/257 260/301/257 262/303/257
f 263/304/258 262/303/258 264/305/258
f 265/306/260 264/305/260 266/307/260
f 267/308/261 266/307/261 268/309/261
f 269/310/262 268/309/262 270/311/262
f 271/312/263 270/311/263 272/313/263
f 272/313/264 275/316/264 274/315/264
f 275/316/265 277/318/265 276/317/265
f 277/318/266 279/320/266 278/319/266
f 279/320/267 281/322/267 280/321/267
f 281/322/268 283/324/268 282/323/268
f 283/324/269 285/329/269 284/325/269
f 246/766/270 244/767/270 237/768/270
f 244/767/270 241/769/270 239/770/270
f 237/768/270 244/767/270 239/770/270
f 237/768/270 235/771/270 246/766/270
f 235/771/270 233/328/270 248/327/270
f 246/766/270 235/771/270 248/327/270
f 233/328/270 231/772/270 250/326/270
f 231/772/270 229/773/270 252/774/270
f 250/326/270 231/772/270 252/774/270
f 229/773/270 227/775/270 256/776/270
f 227/775/270 670/777/270 671/778/270
f 670/777/270 287/779/270 258/780/270
f 287/779/270 285/781/270 260/782/270
f 285/781/270 283/783/270 260/782/270
f 283/783/270 281/784/270 262/785/270
f 260/782/270 283/783/270 262/785/270
f 281/784/270 279/786/270 264/787/270
f 279/786/270 277/788/270 266/789/270
f 264/787/270 279/786/270 266/789/270
f 277/788/270 275/790/270 270/791/270
f 275/790/270 272/792/270 270/791/270
f 270/791/270 268/793/270 277/788/270
f 268/793/270 266/789/270 277/788/270
f 264/787/270 262/785/270 281/784/270
f 260/782/270 258/780/270 287/779/270
f 258/780/270 671/778/270 670/777/270
f 671/778/270 256/776/270 227/775/270
f 256/776/270 254/794/270 229/773/270
f 254/794/270 252/774/270 229/773/270
f 285/329/271 287/331/271 286/330/271
f 287/331/272 670/795/272 226/332/272
f 422/796/273 421/797/273 430/798/273
f 421/797/273 419/799/273 431/800/273
f 419/799/273 420/801/273 431/800/273
f 420/801/273 447/802/273 432/803/273
f 431/800/273 420/801/273 432/803/273
f 447/802/273 446/804/273 434/805/273
f 446/804/273 445/806/273 435/807/273
f 445/806/273 444/808/273 435/807/273
f 444/808/273 443/809/273 436/810/273
f 435/807/273 444/808/273 436/810/273
f 443/809/273 442/811/273 438/812/273
f 442/811/273 441/813/273 439/814/273
f 441/813/273 440/815/273 439/814/273
f 439/814/273 438/812/273 442/811/273
f 438/812/273 437/816/273 443/809/273
f 437/816/273 436/810/273 443/809/273
f 435/807/273 434/805/273 446/804/273
f 434/805/273 433/817/273 447/802/273
f 433/817/273 432/803/273 447/802/273
f 431/800/273 430/798/273 421/797/273
f 430/798/273 429/818/273 422/796/273
f 429/818/273 428/819/273 422/796/273
f 428/819/273 290/335/273 289/334/273
f 422/796/273 428/819/273 289/334/273
f 290/335/273 427/820/273 423/821/273
f 427/820/273 426/822/273 424/823/273
f 426/822/273 425/824/273 424/823/273
f 424/823/273 423/821/273 427/820/273
f 423/821/273 288/333/273 290/335/273
f 291/336/274 295/340/274 292/337/274
f 294/339/275 297/342/275 295/340/275
f 296/341/276 299/344/276 297/342/276
f 298/343/277 301/346/277 299/344/277
f 300/345/278 303/348/278 301/346/278
f 302/347/279 305/350/279 303/348/279
f 304/349/280 307/352/280 305/350/280
f 306/351/281 361/408/281 307/352/281
f 308/353/282 361/408/282 306/351/282
f 310/355/283 308/353/283 309/354/283
f 312/357/284 310/355/284 311/356/284
f 314/359/285 312/357/285 313/358/285
f 316/361/286 314/359/286 315/360/286
f 318/363/287 316/361/287 317/362/287
f 320/365/288 318/363/288 319/364/288
f 322/367/289 320/365/289 321/366/289
f 324/369/290 326/371/290 322/367/290
f 325/370/291 328/373/291 326/371/291
f 327/372/292 330/375/292 328/373/292
f 329/374/293 332/377/293 330/375/293
f 331/376/294 334/379/294 332/377/294
f 333/378/295 336/381/295 334/379/295
f 335/380/296 338/383/296 336/381/296
f 337/382/297 377/424/297 338/383/297
f 339/384/298 377/424/298 337/382/298
f 341/386/299 339/384/299 340/385/299
f 343/388/300 341/386/300 342/387/300
f 345/390/301 343/388/301 344/389/301
f 347/392/302 345/390/302 346/391/302
f 349/394/303 347/392/303 348/393/303
f 351/396/304 349/394/304 350/395/304
f 292/398/305 351/396/305 352/397/305
f 353/400/306 417/465/306 292/337/306
f 354/401/307 353/400/307 295/340/307
f 355/402/308 354/401/308 297/342/308
f 356/403/309 355/402/309 299/344/309
f 357/404/310 356/403/310 301/346/310
f 358/405/311 357/404/311 303/348/311
f 359/406/312 358/405/312 305/350/312
f 360/407/313 359/406/313 307/352/313
f 308/353/314 362/409/314 360/407/314
f 310/355/315 363/410/315 362/409/315
f 312/357/316 364/411/316 363/410/316
f 314/359/317 365/412/317 364/411/317
f 316/361/318 366/413/318 365/412/318
f 318/363/319 367/414/319 366/413/319
f 320/365/320 368/415/320 367/414/320
f 322/367/321 418/466/321 368/415/321
f 369/416/322 418/466/322 322/367/322
f 370/417/323 369/416/323 326/371/323
f 371/418/324 370/417/324 328/373/324
f 372/419/325 371/418/325 330/375/325
f 373/420/326 372/419/326 332/377/326
f 374/421/327 373/420/327 334/379/327
f 375/422/328 374/421/328 336/381/328
f 376/423/329 375/422/329 338/383/329
f 339/384/330 378/425/330 376/423/330
f 341/386/331 379/426/331 378/425/331
f 343/388/332 380/427/332 379/426/332
f 345/390/333 381/428/333 380/427/333
f 347/392/334 382/429/334 381/428/334
f 349/394/335 383/430/335 382/429/335
f 351/396/336 384/431/336 383/430/336
f 292/398/337 417/467/337 384/431/337
f 293/399/338 352/397/338 385/432/338
f 352/397/339 350/395/339 387/434/339
f 350/395/340 348/393/340 388/435/340
f 348/393/341 346/391/341 389/436/341
f 346/391/342 344/389/342 390/437/342
f 344/389/343 342/387/343 391/438/343
f 342/387/344 340/385/344 392/439/344
f 340/385/345 337/382/345 393/440/345
f 393/440/346 337/382/346 335/380/346
f 394/441/347 335/380/347 333/378/347
f 395/442/348 333/378/348 331/376/348
f 396/443/349 331/376/349 329/374/349
f 397/444/350 329/374/350 327/372/350
f 398/445/352 327/372/352 325/370/352
f 399/446/353 325/370/353 324/369/353
f 400/447/354 324/369/354 323/368/354
f 323/368/355 321/366/355 402/449/355
f 321/366/356 319/364/356 403/450/356
f 319/364/357 317/362/357 404/451/357
f 317/362/358 315/360/358 405/452/358
f 315/360/360 313/358/360 406/453/360
f 313/358/361 311/356/361 407/454/361
f 311/356/362 309/354/362 408/455/362
f 309/354/363 306/351/363 409/456/363
f 409/456/364 306/351/364 304/349/364
f 410/457/365 304/349/365 302/347/365
f 411/458/366 302/347/366 300/345/366
f 412/459/367 300/345/367 298/343/367
f 413/460/368 298/343/368 296/341/368
f 414/461/369 296/341/369 294/339/369
f 415/462/370 294/339/370 291/336/370
f 416/463/371 291/336/371 293/338/371
f 286/330/254 226/332/254 417/465/254
f 284/325/253 286/330/253 353/400/253
f 282/323/252 284/325/252 354/401/252
f 280/321/250 282/323/250 355/402/250
f 278/319/249 280/321/249 356/403/249
f 276/317/248 278/319/248 357/404/248
f 274/315/247 276/317/247 358/405/247
f 273/314/246 274/315/246 359/406/246
f 362/409/245 271/312/245 273/314/245
f 363/410/244 269/310/244 271/312/244
f 364/411/243 267/308/243 269/310/243
f 365/412/242 265/306/381 267/308/242
f 366/413/241 263/304/374 265/306/241
f 367/414/240 261/302/240 263/304/240
f 368/415/239 259/300/239 261/302/239
f 418/466/238 257/298/238 259/300/238
f 255/296/272 257/298/272 418/466/272
f 253/294/271 255/296/271 369/416/271
f 251/292/269 253/294/269 370/417/269
f 249/290/268 251/292/377 371/418/268
f 247/288/267 249/290/382 372/419/267
f 245/286/266 247/288/266 373/420/266
f 243/284/265 245/286/265 374/421/265
f 242/283/264 243/284/264 375/422/264
f 378/425/263 240/281/263 242/283/263
f 379/426/262 238/279/262 240/281/262
f 380/427/261 236/277/261 238/279/261
f 381/428/260 234/275/260 236/277/260
f 382/429/258 232/273/258 234/275/258
f 383/430/257 230/271/257 232/273/257
f 384/431/256 228/269/256 230/271/256
f 417/467/255 226/267/255 228/269/255
f 419/468/354 416/463/354 386/464/354
f 421/470/353 415/462/353 416/463/353
f 422/471/352 414/461/352 415/462/352
f 289/472/351 413/460/350 414/461/350
f 288/473/349 412/459/349 413/460/349
f 423/474/348 411/458/348 412/459/348
f 424/475/347 410/457/347 411/458/347
f 425/476/346 409/456/346 410/457/346
f 408/455/345 409/456/345 425/476/345
f 407/454/344 408/455/344 426/477/344
f 406/453/343 407/454/343 427/478/343
f 405/452/372 406/453/372 290/479/342
f 404/451/341 405/452/383 428/480/341
f 403/450/340 404/451/340 429/481/340
f 402/449/339 403/450/339 430/482/339
f 401/448/338 402/449/338 431/483/338
f 433/485/371 400/447/371 401/448/371
f 434/486/370 399/446/370 400/447/370
f 435/487/369 398/445/369 399/446/369
f 436/488/368 397/444/384 398/445/368
f 437/489/367 396/443/373 397/444/373
f 438/490/366 395/442/366 396/443/366
f 439/491/365 394/441/365 395/442/365
f 440/492/364 393/440/364 394/441/364
f 392/439/363 393/440/363 440/492/363
f 391/438/362 392/439/362 441/493/362
f 390/437/361 391/438/361 442/494/361
f 389/436/360 390/437/360 443/495/360
f 388/435/358 389/436/358 444/496/359
f 387/434/357 388/435/357 445/497/357
f 385/432/356 387/434/356 446/498/356
f 386/433/355 385/432/355 447/499/355
f 448/501/238 672/825/238 449/502/238
f 450/503/239 449/502/239 451/504/239
f 452/505/240 451/504/240 453/506/240
f 454/507/241 453/506/374 455/508/374
f 456/509/242 455/508/242 457/510/242
f 458/511/243 457/510/243 459/512/243
f 460/513/244 459/512/244 461/514/244
f 462/515/245 461/514/245 463/516/245
f 463/516/246 466/519/246 465/518/246
f 466/519/247 468/521/247 467/520/247
f 468/521/248 470/523/248 469/522/248
f 470/523/249 472/525/249 471/524/375
f 472/525/250 474/527/250 473/526/250
f 474/527/252 476/529/252 475/528/252
f 476/529/253 478/531/253 477/530/253
f 478/531/254 673/826/254 479/532/254
f 479/532/255 673/826/255 480/533/255
f 481/534/256 480/533/256 482/535/256
f 483/536/257 482/535/257 484/537/257
f 485/538/258 484/537/258 486/539/258
f 487/540/376 486/539/260 488/541/260
f 489/542/261 488/541/261 490/543/261
f 491/544/262 490/543/262 492/545/262
f 493/546/263 492/545/263 494/547/263
f 494/547/264 497/550/264 496/549/264
f 497/550/265 499/552/265 498/551/265
f 499/552/266 501/554/266 500/553/266
f 501/554/267 503/556/267 502/555/267
f 503/556/377 505/558/377 504/557/268
f 505/558/269 507/563/269 506/559/269
f 501/827/270 499/828/270 490/829/270
f 499/828/270 497/830/270 492/831/270
f 497/830/270 494/832/270 492/831/270
f 492/831/270 490/829/270 499/828/270
f 490/829/270 488/833/270 501/827/270
f 488/833/270 486/834/270 501/827/270
f 486/834/270 484/562/270 503/561/270
f 501/827/270 486/834/270 503/561/270
f 484/562/270 482/835/270 507/836/270
f 482/835/270 480/837/270 509/838/270
f 480/837/270 673/839/270 509/838/270
f 673/839/270 478/840/270 672/841/270
f 509/838/270 673/839/270 672/841/270
f 478/840/270 476/842/270 451/843/270
f 476/842/270 474/844/270 453/845/270
f 474/844/270 472/846/270 453/845/270
f 472/846/270 470/847/270 455/848/270
f 453/845/270 472/846/270 455/848/270
f 470/847/270 468/849/270 459/850/270
f 468/849/270 466/851/270 461/852/270
f 466/851/270 463/853/270 461/852/270
f 461/852/270 459/850/270 468/849/270
f 459/850/270 457/854/270 470/847/270
f 457/854/270 455/848/270 470/847/270
f 453/845/270 451/843/270 476/842/270
f 451/843/270 449/855/270 478/840/270
f 449/855/270 672/841/270 478/840/270
f 509/838/270 507/836/270 482/835/270
f 507/836/270 505/560/270 484/562/270
f 507/563/271 509/565/271 508/564/271
f 509/565/272 672/856/272 448/566/272
f 643/857/273 641/858/273 653/859/273
f 641/858/273 642/860/273 654/861/273
f 642/860/273 669/862/273 655/863/273
f 669/862/273 668/864/273 656/865/273
f 668/864/273 667/866/273 656/865/273
f 667/866/273 666/867/273 657/868/273
f 656/865/273 667/866/273 657/868/273
f 666/867/273 665/869/273 658/870/273
f 665/869/273 664/871/273 659/872/273
f 658/870/273 665/869/273 659/872/273
f 664/871/273 663/873/273 661/874/273
f 663/873/273 662/875/273 661/874/273
f 661/874/273 660/876/273 664/871/273
f 660/876/273 659/872/273 664/871/273
f 658/870/273 657/868/273 666/867/273
f 656/865/273 655/863/273 669/862/273
f 655/863/273 654/861/273 642/860/273
f 654/861/273 653/859/273 641/858/273
f 653/859/273 652/877/273 643/857/273
f 652/877/273 651/878/273 643/857/273
f 651/878/273 512/569/273 511/568/273
f 643/857/273 651/878/273 511/568/273
f 512/569/273 650/879/273 510/567/273
f 650/879/273 649/880/273 644/881/273
f 510/567/273 650/879/273 644/881/273
f 649/880/273 648/882/273 645/883/273
f 648/882/273 647/884/273 646/885/273
f 645/883/273 648/882/273 646/885/273
f 645/883/273 644/881/273 649/880/273
f 513/570/274 517/574/274 514/571/274
f 516/573/275 519/576/275 517/574/275
f 518/575/276 521/578/276 519/576/276
f 520/577/277 523/580/277 521/578/277
f 522/579/278 525/582/278 523/580/278
f 524/581/279 527/584/279 525/582/279
f 526/583/280 529/586/280 527/584/280
f 528/585/281 583/642/281 529/586/281
f 530/587/282 583/642/282 528/585/282
f 532/589/283 530/587/283 531/588/283
f 534/591/284 532/589/284 533/590/284
f 536/593/285 534/591/285 535/592/285
f 538/595/286 536/593/286 537/594/286
f 540/597/287 538/595/287 539/596/287
f 542/599/288 540/597/288 541/598/288
f 544/601/289 542/599/289 543/600/289
f 546/603/290 548/605/290 544/601/290
f 547/604/291 550/607/291 548/605/291
f 549/606/292 552/609/292 550/607/292
f 551/608/293 554/611/293 552/609/293
f 553/610/294 556/613/294 554/611/294
f 555/612/295 558/615/295 556/613/295
f 557/614/296 560/617/296 558/615/296
f 559/616/297 599/658/297 560/617/297
f 561/618/298 599/658/298 559/616/298
f 563/620/299 561/618/299 562/619/299
f 565/622/300 563/620/300 564/621/300
f 567/624/301 565/622/301 566/623/301
f 569/626/302 567/624/302 568/625/302
f 571/628/303 569/626/303 570/627/303
f 573/630/304 571/628/304 572/629/304
f 514/632/305 573/630/305 574/631/305
f 575/634/306 639/699/306 514/571/306
f 576/635/307 575/634/307 517/574/307
f 577/636/308 576/635/308 519/576/308
f 578/637/309 577/636/309 521/578/309
f 579/638/310 578/637/310 523/580/310
f 580/639/311 579/638/311 525/582/311
f 581/640/312 580/639/312 527/584/312
f 582/641/313 581/640/313 529/586/313
f 530/587/314 584/643/314 582/641/314
f 532/589/315 585/644/315 584/643/315
f 534/591/316 586/645/316 585/644/316
f 536/593/317 587/646/317 586/645/317
f 538/595/318 588/647/318 587/646/318
f 540/597/319 589/648/319 588/647/319
f 542/599/320 590/649/320 589/648/320
f 544/601/321 640/700/321 590/649/321
f 591/650/322 640/700/322 544/601/322
f 592/651/323 591/650/323 548/605/323
f 593/652/324 592/651/324 550/607/324
f 594/653/325 593/652/325 552/609/325
f 595/654/326 594/653/326 554/611/326
f 596/655/327 595/654/327 556/613/327
f 597/656/328 596/655/328 558/615/328
f 598/657/329 597/656/329 560/617/329
f 561/618/330 600/659/330 598/657/330
f 563/620/331 601/660/331 600/659/331
f 565/622/332 602/661/332 601/660/332
f 567/624/333 603/662/333 602/661/333
f 569/626/334 604/663/334 603/662/334
f 571/628/335 605/664/335 604/663/335
f 573/630/336 606/665/336 605/664/336
f 514/632/337 639/701/337 606/665/337
f 515/633/338 574/631/338 607/666/338
f 574/631/339 572/629/339 609/668/339
f 572/629/340 570/627/340 610/669/340
f 570/627/341 568/625/341 611/670/341
f 568/625/342 566/623/342 612/671/342
f 566/623/343 564/621/343 613/672/343
f 564/621/344 562/619/344 614/673/344
f 562/619/345 559/616/345 615/674/345
f 615/674/346 559/616/346 557/614/346
f 616/675/347 557/614/347 555/612/347
f 617/676/348 555/612/348 553/610/348
f 618/677/349 553/610/349 551/608/349
f 619/678/350 551/608/350 549/606/350
f 620/679/352 549/606/352 547/604/352
f 621/680/353 547/604/353 546/603/353
f 622/681/354 546/603/354 545/602/354
f 545/602/355 543/600/355 624/683/355
f 543/600/356 541/598/356 625/684/356
f 541/598/357 539/596/357 626/685/357
f 539/596/358 537/594/358 627/686/358
f 537/594/360 535/592/360 628/687/360
f 535/592/361 533/590/361 629/688/361
f 533/590/362 531/588/362 630/689/362
f 531/588/363 528/585/363 631/690/363
f 631/690/364 528/585/364 526/583/364
f 632/691/365 526/583/365 524/581/365
f 633/692/366 524/581/366 522/579/366
f 634/693/367 522/579/367 520/577/367
f 635/694/368 520/577/368 518/575/368
f 636/695/369 518/575/369 516/573/369
f 637/696/370 516/573/370 513/570/370
f 638/697/371 513/570/371 515/572/371
f 508/564/254 448/566/254 639/699/254
f 506/559/253 508/564/253 575/634/253
f 504/557/252 506/559/252 576/635/252
f 502/555/250 504/557/250 577/636/250
f 500/553/249 502/555/249 578/637/249
f 498/551/248 500/553/248 579/638/248
f 496/549/247 498/551/247 580/639/247
f 495/548/246 496/549/246 581/640/246
f 584/643/245 493/546/245 495/548/245
f 585/644/244 491/544/244 493/546/244
f 586/645/243 489/542/243 491/544/243
f 587/646/242 487/540/242 489/542/242
f 588/647/241 485/538/374 487/540/241
f 589/648/240 483/536/240 485/538/240
f 590/649/239 481/534/239 483/536/239
f 640/700/238 479/532/238 481/534/238
f 477/530/272 479/532/272 640/700/272
f 475/528/271 477/530/271 591/650/271
f 473/526/269 475/528/269 592/651/269
f 471/524/268 473/526/377 593/652/268
f 469/522/267 471/524/267 594/653/267
f 467/520/266 469/522/266 595/654/266
f 465/518/265 467/520/265 596/655/265
f 464/517/264 465/518/264 597/656/264
f 600/659/263 462/515/263 464/517/263
f 601/660/262 460/513/262 462/515/262
f 602/661/261 458/511/261 460/513/261
f 603/662/260 456/509/260 458/511/260
f 604/663/258 454/507/258 456/509/258
f 605/664/257 452/505/257 454/507/257
f 606/665/256 450/503/256 452/505/256
f 639/701/255 448/501/255 450/503/255
f 641/702/354 638/697/354 608/698/354
f 643/704/353 637/696/353 638/697/353
f 511/705/352 636/695/352 637/696/352
f 510/706/350 635/694/350 636/695/350
f 644/707/349 634/693/349 635/694/349
f 645/708/348 633/692/348 634/693/348
f 646/709/347 632/691/347 633/692/347
f 647/710/346 631/690/346 632/691/346
f 630/689/345 631/690/345 647/710/345
f 629/688/344 630/689/344 648/711/344
f 628/687/343 629/688/343 649/712/343
f 627/686/342 628/687/342 650/713/342
f 626/685/341 627/686/383 512/714/341
f 625/684/340 626/685/340 651/715/340
f 624/683/339 625/684/339 652/716/339
f 623/682/338 624/683/338 653/717/338
f 655/719/371 622/681/371 623/682/371
f 656/720/370 621/680/370 622/681/370
f 657/721/369 620/679/369 621/680/369
f 658/722/368 619/678/384 620/679/368
f 659/723/367 618/677/367 619/678/367
f 660/724/366 617/676/366 618/677/366
f 661/725/365 616/675/365 617/676/365
f 662/726/364 615/674/364 616/675/364
f 614/673/363 615/674/363 662/726/363
f 613/672/362 614/673/362 663/727/362
f 612/671/361 613/672/361 664/728/361
f 611/670/360 612/671/360 665/729/360
f 610/669/358 611/670/358 666/730/358
f 609/668/357 610/669/357 667/731/357
f 607/666/356 609/668/356 668/732/356
f 608/667/355 607/666/355 669/733/355
