# Blender v3.5.0 OBJ File: 'courseExporterTest.blend'
# www.blender.org
mtllib frame.mtl
o FramePoint_Frame_Cube.001
v -2.115530 0.218328 -0.512751
v -3.708668 0.218329 1.080388
v -3.708668 0.218328 -0.512751
v -4.137589 2.240388 1.080387
v -4.137589 0.647250 -0.512751
v -4.137589 0.647250 1.080388
v -2.115530 2.240388 1.509309
v -3.708668 0.647250 1.509309
v -2.115530 0.647250 1.509309
v -3.708668 2.669310 -0.512751
v -2.115530 2.669310 1.080387
v -2.115530 2.669310 -0.512751
v -1.686608 2.240388 -0.512751
v -1.686608 0.647250 1.080387
v -1.686608 0.647250 -0.512751
v -2.115530 2.240388 -0.941673
v -2.115530 0.647250 -0.941673
v -1.686608 2.240388 1.080387
v -2.115530 0.218329 1.080387
v -3.708668 2.240388 -0.941673
v -4.137589 2.240388 -0.512751
v -3.708668 0.647250 -0.941671
v -3.708668 2.240388 1.509309
v -3.708668 2.669310 1.080387
v -0.097009 0.218328 -2.069087
v -0.746311 0.218329 0.088362
v -1.500384 0.218328 -1.315013
v -1.124142 2.240388 0.291382
v -1.878216 0.647250 -1.111993
v -1.124142 0.647250 0.291382
v 0.860084 2.240388 -0.287880
v -0.543291 0.647251 0.466194
v 0.860084 0.647251 -0.287880
v -1.500384 2.669310 -1.315013
v 0.657064 2.669310 -0.665711
v -0.097009 2.669310 -2.069087
v 0.280822 2.240388 -2.272106
v 1.034896 0.647250 -0.868731
v 0.280822 0.647250 -2.272106
v -0.300029 2.240388 -2.446918
v -0.300029 0.647250 -2.446918
v 1.034896 2.240388 -0.868731
v 0.657064 0.218329 -0.665711
v -1.703404 2.240388 -1.692845
v -1.878216 2.240388 -1.111993
v -1.703404 0.647250 -1.692845
v -0.543291 2.240388 0.466194
v -0.746311 2.669310 0.088362
v 0.450568 0.218328 1.854618
v -1.757223 0.218329 2.303885
v -0.877962 0.218328 0.975357
v -2.114903 2.240388 2.067161
v -1.235642 0.647250 0.738632
v -2.114903 0.647250 2.067161
v -0.665418 2.240388 3.540827
v -1.993947 0.647250 2.661566
v -0.665418 0.647250 3.540827
v -0.877962 2.669310 0.975356
v -0.428694 2.669310 3.183146
v 0.450568 2.669310 1.854618
v 0.808248 2.240388 2.091342
v -0.071013 0.647250 3.419870
v 0.808248 0.647250 2.091342
v 0.687292 2.240388 1.496937
v 0.687292 0.647250 1.496937
v -0.071013 2.240388 3.419870
v -0.428694 0.218329 3.183146
v -0.641237 2.240388 0.617676
v -1.235642 2.240388 0.738632
v -0.641237 0.647250 0.617676
v -1.993947 2.240388 2.661566
v -1.757223 2.669310 2.303885
v 2.277597 0.218328 -0.157818
v 1.628295 0.218329 1.999631
v 0.874222 0.218328 0.596256
v 1.250464 2.240388 2.202650
v 0.496390 0.647250 0.799275
v 1.250464 0.647250 2.202650
v 3.234690 2.240388 1.623388
v 1.831316 0.647250 2.377462
v 3.234690 0.647250 1.623389
v 0.874222 2.669310 0.596255
v 3.031671 2.669310 1.245557
v 2.277597 2.669310 -0.157818
v 2.655428 2.240388 -0.360838
v 3.409503 0.647250 1.042537
v 2.655428 0.647250 -0.360838
v 2.074577 2.240388 -0.535650
v 2.074577 0.647250 -0.535650
v 3.409503 2.240388 1.042537
v 3.031671 0.218329 1.245557
v 0.671202 2.240388 0.218424
v 0.496390 2.240388 0.799275
v 0.671202 0.647250 0.218424
v 1.831316 2.240388 2.377462
v 1.628295 2.669310 1.999630
v 0.399550 2.700725 -0.420586
v -1.358701 2.700725 0.988219
v -1.183978 2.700725 -0.595309
v -1.785036 4.722785 0.941178
v -1.610312 3.129647 -0.642350
v -1.785036 3.129647 0.941178
v 0.177785 4.722785 1.589276
v -1.405742 3.129647 1.414553
v 0.177785 3.129647 1.589277
v -1.183978 5.151706 -0.595309
v 0.224827 5.151707 1.162942
v 0.399550 5.151706 -0.420586
v 0.825884 4.722785 -0.373545
v 0.651161 3.129647 1.209983
v 0.825884 3.129647 -0.373545
v 0.446591 4.722785 -0.846920
v 0.446591 3.129647 -0.846920
v 0.651161 4.722785 1.209983
v 0.224827 2.700725 1.162942
v -1.136936 4.722785 -1.021644
v -1.610312 4.722785 -0.642350
v -1.136936 3.129647 -1.021644
v -1.405742 4.722785 1.414553
v -1.358701 5.151707 0.988219
vt 0.257529 0.462492
vt 0.199674 0.520347
vt 0.199674 0.462492
vt 0.346537 0.284476
vt 0.288682 0.342332
vt 0.288682 0.284476
vt 0.346537 0.551500
vt 0.288682 0.609355
vt 0.288682 0.551500
vt 0.435545 0.462492
vt 0.377689 0.520347
vt 0.377689 0.462492
vt 0.346537 0.462492
vt 0.288682 0.520347
vt 0.288682 0.462492
vt 0.346537 0.431340
vt 0.362113 0.431340
vt 0.346537 0.446916
vt 0.257529 0.446916
vt 0.273105 0.462492
vt 0.346537 0.535924
vt 0.362113 0.551500
vt 0.273105 0.520347
vt 0.257529 0.535924
vt 0.257529 0.520347
vt 0.346537 0.357908
vt 0.346537 0.342332
vt 0.362113 0.342332
vt 0.184097 0.462492
vt 0.199674 0.446916
vt 0.346537 0.268900
vt 0.362113 0.284476
vt 0.199674 0.535924
vt 0.184097 0.520347
vt 0.288682 0.268900
vt 0.346537 0.520347
vt 0.288682 0.373484
vt 0.346537 0.373484
vt 0.362113 0.609355
vt 0.362113 0.373484
vt 0.288682 0.431340
vt 0.346537 0.609355
vt 0.435545 0.520347
vt 0.257529 0.462492
vt 0.199674 0.520347
vt 0.199674 0.462492
vt 0.346537 0.284476
vt 0.288682 0.342332
vt 0.288682 0.284476
vt 0.346537 0.551500
vt 0.288682 0.609355
vt 0.288682 0.551500
vt 0.435545 0.462492
vt 0.377689 0.520347
vt 0.377689 0.462492
vt 0.346537 0.462492
vt 0.288682 0.520347
vt 0.288682 0.462492
vt 0.346537 0.431340
vt 0.362113 0.431340
vt 0.346537 0.446916
vt 0.257529 0.446916
vt 0.273105 0.462492
vt 0.346537 0.535924
vt 0.362113 0.551500
vt 0.273105 0.520347
vt 0.257529 0.535924
vt 0.257529 0.520347
vt 0.346537 0.357908
vt 0.346537 0.342332
vt 0.362113 0.342332
vt 0.184097 0.462492
vt 0.199674 0.446916
vt 0.346537 0.268900
vt 0.362113 0.284476
vt 0.199674 0.535924
vt 0.184097 0.520347
vt 0.288682 0.268900
vt 0.346537 0.520347
vt 0.288682 0.373484
vt 0.346537 0.373484
vt 0.362113 0.609355
vt 0.362113 0.373484
vt 0.288682 0.431340
vt 0.346537 0.609355
vt 0.435545 0.520347
vt 0.257529 0.462492
vt 0.199674 0.520347
vt 0.199674 0.462492
vt 0.346537 0.284476
vt 0.288682 0.342332
vt 0.288682 0.284476
vt 0.346537 0.551500
vt 0.288682 0.609355
vt 0.288682 0.551500
vt 0.435545 0.462492
vt 0.377689 0.520347
vt 0.377689 0.462492
vt 0.346537 0.462492
vt 0.288682 0.520347
vt 0.288682 0.462492
vt 0.346537 0.431340
vt 0.362113 0.431340
vt 0.346537 0.446916
vt 0.257529 0.446916
vt 0.273105 0.462492
vt 0.346537 0.535924
vt 0.362113 0.551500
vt 0.273105 0.520347
vt 0.257529 0.535924
vt 0.257529 0.520347
vt 0.346537 0.357908
vt 0.346537 0.342332
vt 0.362113 0.342332
vt 0.184097 0.462492
vt 0.199674 0.446916
vt 0.346537 0.268900
vt 0.362113 0.284476
vt 0.199674 0.535924
vt 0.184097 0.520347
vt 0.288682 0.268900
vt 0.346537 0.520347
vt 0.288682 0.373484
vt 0.346537 0.373484
vt 0.362113 0.609355
vt 0.362113 0.373484
vt 0.288682 0.431340
vt 0.346537 0.609355
vt 0.435545 0.520347
vt 0.257529 0.462492
vt 0.199674 0.520347
vt 0.199674 0.462492
vt 0.346537 0.284476
vt 0.288682 0.342332
vt 0.288682 0.284476
vt 0.346537 0.551500
vt 0.288682 0.609355
vt 0.288682 0.551500
vt 0.435545 0.462492
vt 0.377689 0.520347
vt 0.377689 0.462492
vt 0.346537 0.462492
vt 0.288682 0.520347
vt 0.288682 0.462492
vt 0.346537 0.431340
vt 0.362113 0.431340
vt 0.346537 0.446916
vt 0.257529 0.446916
vt 0.273105 0.462492
vt 0.346537 0.535924
vt 0.362113 0.551500
vt 0.273105 0.520347
vt 0.257529 0.535924
vt 0.257529 0.520347
vt 0.346537 0.357908
vt 0.346537 0.342332
vt 0.362113 0.342332
vt 0.184097 0.462492
vt 0.199674 0.446916
vt 0.346537 0.268900
vt 0.362113 0.284476
vt 0.199674 0.535924
vt 0.184097 0.520347
vt 0.288682 0.268900
vt 0.346537 0.520347
vt 0.288682 0.373484
vt 0.346537 0.373484
vt 0.362113 0.609355
vt 0.362113 0.373484
vt 0.288682 0.431340
vt 0.346537 0.609355
vt 0.435545 0.520347
vt 0.257529 0.462492
vt 0.199674 0.520347
vt 0.199674 0.462492
vt 0.346537 0.284476
vt 0.288682 0.342332
vt 0.288682 0.284476
vt 0.346537 0.551500
vt 0.288682 0.609355
vt 0.288682 0.551500
vt 0.435545 0.462492
vt 0.377689 0.520347
vt 0.377689 0.462492
vt 0.346537 0.462492
vt 0.288682 0.520347
vt 0.288682 0.462492
vt 0.346537 0.431340
vt 0.362113 0.431340
vt 0.346537 0.446916
vt 0.257529 0.446916
vt 0.273105 0.462492
vt 0.346537 0.535924
vt 0.362113 0.551500
vt 0.273105 0.520347
vt 0.257529 0.535924
vt 0.257529 0.520347
vt 0.346537 0.357908
vt 0.346537 0.342332
vt 0.362113 0.342332
vt 0.184097 0.462492
vt 0.199674 0.446916
vt 0.346537 0.268900
vt 0.362113 0.284476
vt 0.199674 0.535924
vt 0.184097 0.520347
vt 0.288682 0.268900
vt 0.346537 0.520347
vt 0.288682 0.373484
vt 0.346537 0.373484
vt 0.362113 0.609355
vt 0.362113 0.373484
vt 0.288682 0.431340
vt 0.346537 0.609355
vt 0.435545 0.520347
vn 0.0000 -1.0000 0.0000
vn -1.0000 0.0000 0.0000
vn 0.0000 0.0000 1.0000
vn 0.0000 1.0000 0.0000
vn 1.0000 -0.0000 0.0000
vn 0.5774 0.5773 -0.5774
vn 0.5774 -0.5774 -0.5774
vn 0.5774 0.5773 0.5774
vn 0.5773 -0.5774 0.5773
vn -0.5774 0.5773 -0.5773
vn -0.5774 -0.5773 -0.5774
vn -0.5774 0.5773 0.5773
vn -0.5774 -0.5774 0.5773
vn -0.7071 -0.7071 0.0000
vn -0.0000 -0.7071 -0.7071
vn 0.7071 -0.0000 -0.7071
vn -0.7071 0.0000 0.7071
vn 0.7071 0.0000 0.7071
vn -0.7071 -0.0000 -0.7071
vn 0.0000 0.7071 0.7071
vn 0.7071 0.7071 0.0000
vn 0.0000 -0.7071 0.7071
vn -0.7071 0.7071 0.0000
vn -0.0000 0.7071 -0.7071
vn 0.7071 -0.7071 0.0000
vn -0.0000 -0.0000 -1.0000
vn -0.8809 -0.0000 0.4733
vn 0.4733 0.0000 0.8809
vn 0.8809 -0.0000 -0.4733
vn 0.2353 0.5773 -0.7819
vn 0.2353 -0.5773 -0.7819
vn 0.7819 0.5774 0.2353
vn 0.7819 -0.5774 0.2353
vn -0.7819 0.5774 -0.2353
vn -0.7819 -0.5774 -0.2353
vn -0.2353 0.5774 0.7819
vn -0.2353 -0.5774 0.7819
vn -0.6229 -0.7071 0.3347
vn -0.3347 -0.7071 -0.6229
vn 0.2882 -0.0000 -0.9576
vn -0.2882 0.0000 0.9576
vn 0.9576 0.0000 0.2882
vn -0.9576 0.0000 -0.2882
vn 0.3347 0.7071 0.6229
vn 0.6229 0.7071 -0.3347
vn 0.3347 -0.7071 0.6229
vn -0.6229 0.7071 0.3347
vn -0.3347 0.7071 -0.6229
vn 0.6229 -0.7071 -0.3347
vn -0.4733 -0.0000 -0.8809
vn -0.8339 -0.0000 -0.5519
vn -0.5519 0.0000 0.8339
vn 0.8339 0.0000 0.5519
vn 0.8001 0.5773 -0.1628
vn 0.8001 -0.5773 -0.1628
vn 0.1628 0.5774 0.8001
vn 0.1628 -0.5774 0.8001
vn -0.1628 0.5773 -0.8001
vn -0.1628 -0.5774 -0.8001
vn -0.8001 0.5773 0.1628
vn -0.8001 -0.5774 0.1628
vn -0.5897 -0.7071 -0.3903
vn 0.3903 -0.7071 -0.5897
vn 0.9799 -0.0000 -0.1994
vn -0.9799 0.0000 0.1994
vn 0.1994 0.0000 0.9799
vn -0.1994 -0.0000 -0.9799
vn -0.3903 0.7071 0.5897
vn 0.5897 0.7071 0.3903
vn -0.3903 -0.7071 0.5897
vn -0.5897 0.7071 -0.3903
vn 0.3903 0.7071 -0.5897
vn 0.5897 -0.7071 0.3903
vn 0.5519 -0.0000 -0.8339
vn 0.2353 0.5774 -0.7819
vn 0.2353 -0.5774 -0.7819
vn 0.7819 0.5773 0.2353
vn -0.2353 -0.5773 0.7819
vn -0.9940 -0.0000 -0.1097
vn -0.1097 0.0000 0.9940
vn 0.9940 0.0000 0.1097
vn 0.6372 0.5774 -0.5105
vn 0.6372 -0.5773 -0.5105
vn 0.5105 0.5773 0.6372
vn 0.5105 -0.5773 0.6372
vn -0.5105 0.5774 -0.6372
vn -0.5105 -0.5773 -0.6372
vn -0.6372 0.5773 0.5105
vn -0.6372 -0.5773 0.5105
vn -0.7028 -0.7071 -0.0776
vn 0.0776 -0.7071 -0.7028
vn 0.7804 -0.0000 -0.6253
vn -0.7804 0.0000 0.6253
vn 0.6253 0.0000 0.7804
vn -0.6253 -0.0000 -0.7804
vn -0.0775 0.7071 0.7028
vn -0.0776 0.7071 0.7028
vn 0.7028 0.7071 0.0775
vn -0.0776 -0.7071 0.7028
vn -0.0775 -0.7071 0.7028
vn -0.7028 0.7071 -0.0776
vn 0.0776 0.7071 -0.7028
vn 0.0775 0.7071 -0.7028
vn 0.7028 -0.7071 0.0776
vn 0.7028 -0.7071 0.0775
vn 0.1097 -0.0000 -0.9940
vn 0.7028 0.7071 0.0776
vn -0.7028 0.7071 -0.0775
usemtl Material.002
s 1
f 1/1/1 2/2/1 3/3/1
f 4/4/2 5/5/2 6/6/2
f 7/7/3 8/8/3 9/9/3
f 10/10/4 11/11/4 12/12/4
f 13/13/5 14/14/5 15/15/5
f 16/16/6 12/17/6 13/18/6
f 1/1/7 17/19/7 15/20/7
f 18/21/8 11/22/8 7/7/8
f 14/23/9 9/24/9 19/25/9
f 20/26/10 21/27/10 10/28/10
f 5/29/11 22/30/11 3/3/11
f 4/4/12 23/31/12 24/32/12
f 2/2/13 8/33/13 6/34/13
f 2/2/14 5/29/14 3/3/14
f 3/3/15 17/19/15 1/1/15
f 15/15/16 16/16/16 13/13/16
f 23/31/17 6/6/17 8/35/17
f 9/9/18 18/36/18 7/7/18
f 22/37/19 21/27/19 20/38/19
f 24/39/20 7/7/20 11/22/20
f 11/11/21 13/13/21 12/12/21
f 19/25/22 8/33/22 2/2/22
f 10/28/23 4/4/23 24/32/23
f 12/17/24 20/38/24 10/40/24
f 1/1/25 14/14/25 19/25/25
f 20/38/26 17/41/26 22/37/26
f 1/1/1 19/25/1 2/2/1
f 4/4/2 21/27/2 5/5/2
f 7/7/3 23/42/3 8/8/3
f 10/10/4 24/43/4 11/11/4
f 13/13/5 18/36/5 14/14/5
f 2/2/14 6/34/14 5/29/14
f 3/3/15 22/30/15 17/19/15
f 15/15/16 17/41/16 16/16/16
f 23/31/17 4/4/17 6/6/17
f 9/9/18 14/14/18 18/36/18
f 22/37/19 5/5/19 21/27/19
f 24/39/20 23/42/20 7/7/20
f 11/11/21 18/36/21 13/13/21
f 19/25/22 9/24/22 8/33/22
f 10/28/23 21/27/23 4/4/23
f 12/17/24 16/16/24 20/38/24
f 1/1/25 15/15/25 14/14/25
f 20/38/26 16/16/26 17/41/26
f 25/44/1 26/45/1 27/46/1
f 28/47/27 29/48/27 30/49/27
f 31/50/28 32/51/28 33/52/28
f 34/53/4 35/54/4 36/55/4
f 37/56/29 38/57/29 39/58/29
f 40/59/30 36/60/30 37/61/30
f 25/44/31 41/62/31 39/63/31
f 42/64/32 35/65/32 31/50/32
f 38/66/33 33/67/33 43/68/33
f 44/69/34 45/70/34 34/71/34
f 29/72/35 46/73/35 27/46/35
f 28/47/36 47/74/36 48/75/36
f 26/45/37 32/76/37 30/77/37
f 26/45/38 29/72/38 27/46/38
f 27/46/39 41/62/39 25/44/39
f 39/58/40 40/59/40 37/56/40
f 47/74/41 30/49/41 32/78/41
f 33/52/42 42/79/42 31/50/42
f 46/80/43 45/70/43 44/81/43
f 48/82/44 31/50/44 35/65/44
f 35/54/45 37/56/45 36/55/45
f 43/68/46 32/76/46 26/45/46
f 34/71/47 28/47/47 48/75/47
f 36/60/48 44/81/48 34/83/48
f 25/44/49 38/57/49 43/68/49
f 44/81/50 41/84/50 46/80/50
f 25/44/1 43/68/1 26/45/1
f 28/47/27 45/70/27 29/48/27
f 31/50/28 47/85/28 32/51/28
f 34/53/4 48/86/4 35/54/4
f 37/56/29 42/79/29 38/57/29
f 26/45/38 30/77/38 29/72/38
f 27/46/39 46/73/39 41/62/39
f 39/58/40 41/84/40 40/59/40
f 47/74/41 28/47/41 30/49/41
f 33/52/42 38/57/42 42/79/42
f 46/80/43 29/48/43 45/70/43
f 48/82/44 47/85/44 31/50/44
f 35/54/45 42/79/45 37/56/45
f 43/68/46 33/67/46 32/76/46
f 34/71/47 45/70/47 28/47/47
f 36/60/48 40/59/48 44/81/48
f 25/44/49 39/58/49 38/57/49
f 44/81/50 40/59/50 41/84/50
f 49/87/1 50/88/1 51/89/1
f 52/90/51 53/91/51 54/92/51
f 55/93/52 56/94/52 57/95/52
f 58/96/4 59/97/4 60/98/4
f 61/99/53 62/100/53 63/101/53
f 64/102/54 60/103/54 61/104/54
f 49/87/55 65/105/55 63/106/55
f 66/107/56 59/108/56 55/93/56
f 62/109/57 57/110/57 67/111/57
f 68/112/58 69/113/58 58/114/58
f 53/115/59 70/116/59 51/89/59
f 52/90/60 71/117/60 72/118/60
f 50/88/61 56/119/61 54/120/61
f 50/88/62 53/115/62 51/89/62
f 51/89/63 65/105/63 49/87/63
f 63/101/64 64/102/64 61/99/64
f 71/117/65 54/92/65 56/121/65
f 57/95/66 66/122/66 55/93/66
f 70/123/67 69/113/67 68/124/67
f 72/125/68 55/93/68 59/108/68
f 59/97/69 61/99/69 60/98/69
f 67/111/70 56/119/70 50/88/70
f 58/114/71 52/90/71 72/118/71
f 60/103/72 68/124/72 58/126/72
f 49/87/73 62/100/73 67/111/73
f 68/124/74 65/127/74 70/123/74
f 49/87/1 67/111/1 50/88/1
f 52/90/51 69/113/51 53/91/51
f 55/93/52 71/128/52 56/94/52
f 58/96/4 72/129/4 59/97/4
f 61/99/53 66/122/53 62/100/53
f 50/88/62 54/120/62 53/115/62
f 51/89/63 70/116/63 65/105/63
f 63/101/64 65/127/64 64/102/64
f 71/117/65 52/90/65 54/92/65
f 57/95/66 62/100/66 66/122/66
f 70/123/67 53/91/67 69/113/67
f 72/125/68 71/128/68 55/93/68
f 59/97/69 66/122/69 61/99/69
f 67/111/70 57/110/70 56/119/70
f 58/114/71 69/113/71 52/90/71
f 60/103/72 64/102/72 68/124/72
f 49/87/73 63/101/73 62/100/73
f 68/124/74 64/102/74 65/127/74
f 73/130/1 74/131/1 75/132/1
f 76/133/27 77/134/27 78/135/27
f 79/136/28 80/137/28 81/138/28
f 82/139/4 83/140/4 84/141/4
f 85/142/29 86/143/29 87/144/29
f 88/145/75 84/146/75 85/147/75
f 73/130/76 89/148/76 87/149/76
f 90/150/77 83/151/77 79/136/77
f 86/152/33 81/153/33 91/154/33
f 92/155/34 93/156/34 82/157/34
f 77/158/35 94/159/35 75/132/35
f 76/133/36 95/160/36 96/161/36
f 74/131/78 80/162/78 78/163/78
f 74/131/38 77/158/38 75/132/38
f 75/132/39 89/148/39 73/130/39
f 87/144/40 88/145/40 85/142/40
f 95/160/41 78/135/41 80/164/41
f 81/138/42 90/165/42 79/136/42
f 94/166/43 93/156/43 92/167/43
f 96/168/44 79/136/44 83/151/44
f 83/140/45 85/142/45 84/141/45
f 91/154/46 80/162/46 74/131/46
f 82/157/47 76/133/47 96/161/47
f 84/146/48 92/167/48 82/169/48
f 73/130/49 86/143/49 91/154/49
f 92/167/50 89/170/50 94/166/50
f 73/130/1 91/154/1 74/131/1
f 76/133/27 93/156/27 77/134/27
f 79/136/28 95/171/28 80/137/28
f 82/139/4 96/172/4 83/140/4
f 85/142/29 90/165/29 86/143/29
f 74/131/38 78/163/38 77/158/38
f 75/132/39 94/159/39 89/148/39
f 87/144/40 89/170/40 88/145/40
f 95/160/41 76/133/41 78/135/41
f 81/138/42 86/143/42 90/165/42
f 94/166/43 77/134/43 93/156/43
f 96/168/44 95/171/44 79/136/44
f 83/140/45 90/165/45 85/142/45
f 91/154/46 81/153/46 80/162/46
f 82/157/47 93/156/47 76/133/47
f 84/146/48 88/145/48 92/167/48
f 73/130/49 87/144/49 86/143/49
f 92/167/50 88/145/50 89/170/50
f 97/173/1 98/174/1 99/175/1
f 100/176/79 101/177/79 102/178/79
f 103/179/80 104/180/80 105/181/80
f 106/182/4 107/183/4 108/184/4
f 109/185/81 110/186/81 111/187/81
f 112/188/82 108/189/82 109/190/82
f 97/173/83 113/191/83 111/192/83
f 114/193/84 107/194/84 103/179/84
f 110/195/85 105/196/85 115/197/85
f 116/198/86 117/199/86 106/200/86
f 101/201/87 118/202/87 99/175/87
f 100/176/88 119/203/88 120/204/88
f 98/174/89 104/205/89 102/206/89
f 98/174/90 101/201/90 99/175/90
f 99/175/91 113/191/91 97/173/91
f 111/187/92 112/188/92 109/185/92
f 119/203/93 102/178/93 104/207/93
f 105/181/94 114/208/94 103/179/94
f 118/209/95 117/199/95 116/210/95
f 120/211/96 103/179/97 107/194/97
f 107/183/98 109/185/98 108/184/98
f 115/197/99 104/205/100 98/174/100
f 106/200/101 100/176/101 120/204/101
f 108/189/102 116/210/103 106/212/103
f 97/173/104 110/186/105 115/197/105
f 116/210/106 113/213/106 118/209/106
f 97/173/1 115/197/1 98/174/1
f 100/176/79 117/199/79 101/177/79
f 103/179/80 119/214/80 104/180/80
f 106/182/4 120/215/4 107/183/4
f 109/185/81 114/208/81 110/186/81
f 98/174/90 102/206/90 101/201/90
f 99/175/91 118/202/91 113/191/91
f 111/187/92 113/213/92 112/188/92
f 119/203/93 100/176/93 102/178/93
f 105/181/94 110/186/94 114/208/94
f 118/209/95 101/177/95 117/199/95
f 120/211/96 119/214/96 103/179/97
f 107/183/98 114/208/107 109/185/98
f 115/197/99 105/196/99 104/205/100
f 106/200/101 117/199/108 100/176/101
f 108/189/102 112/188/102 116/210/103
f 97/173/104 111/187/104 110/186/105
f 116/210/106 112/188/106 113/213/106
