{
	"asset":{
		"generator":"Khronos glTF Blender I/O v3.5.30",
		"version":"2.0"
	},
	"scene":0,
	"scenes":[
		{
			"name":"Scene",
			"nodes":[
				2
			]
		}
	],
	"nodes":[
		{
			"name":"Bone",
			"translation":[
				0,
				5.133345748475904e-09,
				1.0445821096993768e-08
			]
		},
		{
			"mesh":0,
			"name":"Core.001",
			"skin":0
		},
		{
			"children":[
				1,
				0
			],
			"name":"\u30a2\u30fc\u30de\u30c1\u30e5\u30a2",
			"rotation":[
				-0.7071068286895752,
				0,
				0,
				0.7071068286895752
			],
			"translation":[
				0,
				0.43047353625297546,
				0.8759685754776001
			]
		}
	],
	"animations":[
		{
			"channels":[
				{
					"sampler":0,
					"target":{
						"node":0,
						"path":"translation"
					}
				},
				{
					"sampler":1,
					"target":{
						"node":0,
						"path":"rotation"
					}
				},
				{
					"sampler":2,
					"target":{
						"node":0,
						"path":"scale"
					}
				}
			],
			"name":"Action",
			"samplers":[
				{
					"input":13,
					"interpolation":"LINEAR",
					"output":14
				},
				{
					"input":13,
					"interpolation":"LINEAR",
					"output":15
				},
				{
					"input":13,
					"interpolation":"LINEAR",
					"output":16
				}
			]
		}
	],
	"materials":[
		{
			"doubleSided":true,
			"name":"Material",
			"pbrMetallicRoughness":{
				"baseColorTexture":{
					"index":0
				},
				"metallicFactor":0,
				"roughnessFactor":0.5
			}
		}
	],
	"meshes":[
		{
			"name":"\u7acb\u65b9\u4f53.003",
			"primitives":[
				{
					"attributes":{
						"POSITION":0,
						"TEXCOORD_0":1,
						"NORMAL":2,
						"JOINTS_0":3,
						"WEIGHTS_0":4
					},
					"indices":5,
					"material":0
				},
				{
					"attributes":{
						"POSITION":6,
						"TEXCOORD_0":7,
						"NORMAL":8,
						"JOINTS_0":9,
						"WEIGHTS_0":10
					},
					"indices":11,
					"material":0
				}
			]
		}
	],
	"textures":[
		{
			"sampler":0,
			"source":0
		}
	],
	"images":[
		{
			"mimeType":"image/png",
			"name":"Parts",
			"uri":"Parts.png"
		}
	],
	"skins":[
		{
			"inverseBindMatrices":12,
			"joints":[
				0
			],
			"name":"\u30a2\u30fc\u30de\u30c1\u30e5\u30a2"
		}
	],
	"accessors":[
		{
			"bufferView":0,
			"componentType":5126,
			"count":234,
			"max":[
				1,
				1,
				1
			],
			"min":[
				-1,
				-0.1811177134513855,
				-1
			],
			"type":"VEC3"
		},
		{
			"bufferView":1,
			"componentType":5126,
			"count":234,
			"type":"VEC2"
		},
		{
			"bufferView":2,
			"componentType":5126,
			"count":234,
			"type":"VEC3"
		},
		{
			"bufferView":3,
			"componentType":5121,
			"count":234,
			"type":"VEC4"
		},
		{
			"bufferView":4,
			"componentType":5126,
			"count":234,
			"type":"VEC4"
		},
		{
			"bufferView":5,
			"componentType":5123,
			"count":360,
			"type":"SCALAR"
		},
		{
			"bufferView":6,
			"componentType":5126,
			"count":70,
			"max":[
				0.7328944802284241,
				0.7328944802284241,
				0.7328944802284241
			],
			"min":[
				-0.7328944802284241,
				-0.08111771941184998,
				-0.7328944802284241
			],
			"type":"VEC3"
		},
		{
			"bufferView":7,
			"componentType":5126,
			"count":70,
			"type":"VEC2"
		},
		{
			"bufferView":8,
			"componentType":5126,
			"count":70,
			"type":"VEC3"
		},
		{
			"bufferView":9,
			"componentType":5121,
			"count":70,
			"type":"VEC4"
		},
		{
			"bufferView":10,
			"componentType":5126,
			"count":70,
			"type":"VEC4"
		},
		{
			"bufferView":11,
			"componentType":5123,
			"count":108,
			"type":"SCALAR"
		},
		{
			"bufferView":12,
			"componentType":5126,
			"count":1,
			"type":"MAT4"
		},
		{
			"bufferView":13,
			"componentType":5126,
			"count":40,
			"max":[
				1.6666666666666667
			],
			"min":[
				0.041666666666666664
			],
			"type":"SCALAR"
		},
		{
			"bufferView":14,
			"componentType":5126,
			"count":40,
			"type":"VEC3"
		},
		{
			"bufferView":15,
			"componentType":5126,
			"count":40,
			"type":"VEC4"
		},
		{
			"bufferView":16,
			"componentType":5126,
			"count":40,
			"type":"VEC3"
		}
	],
	"bufferViews":[
		{
			"buffer":0,
			"byteLength":2808,
			"byteOffset":0,
			"target":34962
		},
		{
			"buffer":0,
			"byteLength":1872,
			"byteOffset":2808,
			"target":34962
		},
		{
			"buffer":0,
			"byteLength":2808,
			"byteOffset":4680,
			"target":34962
		},
		{
			"buffer":0,
			"byteLength":936,
			"byteOffset":7488,
			"target":34962
		},
		{
			"buffer":0,
			"byteLength":3744,
			"byteOffset":8424,
			"target":34962
		},
		{
			"buffer":0,
			"byteLength":720,
			"byteOffset":12168,
			"target":34963
		},
		{
			"buffer":0,
			"byteLength":840,
			"byteOffset":12888,
			"target":34962
		},
		{
			"buffer":0,
			"byteLength":560,
			"byteOffset":13728,
			"target":34962
		},
		{
			"buffer":0,
			"byteLength":840,
			"byteOffset":14288,
			"target":34962
		},
		{
			"buffer":0,
			"byteLength":280,
			"byteOffset":15128,
			"target":34962
		},
		{
			"buffer":0,
			"byteLength":1120,
			"byteOffset":15408,
			"target":34962
		},
		{
			"buffer":0,
			"byteLength":216,
			"byteOffset":16528,
			"target":34963
		},
		{
			"buffer":0,
			"byteLength":64,
			"byteOffset":16744
		},
		{
			"buffer":0,
			"byteLength":160,
			"byteOffset":16808
		},
		{
			"buffer":0,
			"byteLength":480,
			"byteOffset":16968
		},
		{
			"buffer":0,
			"byteLength":640,
			"byteOffset":17448
		},
		{
			"buffer":0,
			"byteLength":480,
			"byteOffset":18088
		}
	],
	"samplers":[
		{
			"magFilter":9729,
			"minFilter":9987
		}
	],
	"buffers":[
		{
			"byteLength":18568,
			"uri":"Core.bin"
		}
	]
}
