{
	"asset":{
		"generator":"Khronos glTF Blender I/O v3.5.30",
		"version":"2.0"
	},
	"scene":0,
	"scenes":[
		{
			"name":"Scene",
			"nodes":[
				3
			]
		}
	],
	"nodes":[
		{
			"name":"Bone",
			"rotation":[
				-1,
				2.928983021579227e-16,
				-1.7114272665708086e-08,
				8.557136332854043e-09
			]
		},
		{
			"name":"neutral_bone",
			"rotation":[
				-0.7071067690849304,
				0,
				0,
				0.7071067690849304
			]
		},
		{
			"mesh":0,
			"name":"\u5186\u67f1.008",
			"skin":0
		},
		{
			"children":[
				2,
				0,
				1
			],
			"name":"\u30ac\u30c8\u30ea\u30f3\u30b0\u9aa8",
			"scale":[
				4.0333452224731445,
				4.0333452224731445,
				4.0333452224731445
			],
			"translation":[
				0,
				1.1754769086837769,
				0
			]
		}
	],
	"animations":[
		{
			"channels":[
				{
					"sampler":0,
					"target":{
						"node":0,
						"path":"translation"
					}
				},
				{
					"sampler":1,
					"target":{
						"node":0,
						"path":"rotation"
					}
				},
				{
					"sampler":2,
					"target":{
						"node":0,
						"path":"scale"
					}
				}
			],
			"name":"gatling",
			"samplers":[
				{
					"input":7,
					"interpolation":"LINEAR",
					"output":8
				},
				{
					"input":7,
					"interpolation":"LINEAR",
					"output":9
				},
				{
					"input":7,
					"interpolation":"LINEAR",
					"output":10
				}
			]
		}
	],
	"materials":[
		{
			"doubleSided":true,
			"name":"\u30de\u30c6\u30ea\u30a2\u30eb",
			"pbrMetallicRoughness":{
				"baseColorTexture":{
					"index":0
				},
				"metallicFactor":0,
				"roughnessFactor":0.5
			}
		}
	],
	"meshes":[
		{
			"name":"\u5186\u67f1.014",
			"primitives":[
				{
					"attributes":{
						"POSITION":0,
						"TEXCOORD_0":1,
						"NORMAL":2,
						"JOINTS_0":3,
						"WEIGHTS_0":4
					},
					"indices":5,
					"material":0
				}
			]
		}
	],
	"textures":[
		{
			"sampler":0,
			"source":0
		}
	],
	"images":[
		{
			"mimeType":"image/png",
			"name":"gimmick",
			"uri":"gimmick.png"
		}
	],
	"skins":[
		{
			"inverseBindMatrices":6,
			"joints":[
				0,
				1
			],
			"name":"\u30ac\u30c8\u30ea\u30f3\u30b0\u9aa8"
		}
	],
	"accessors":[
		{
			"bufferView":0,
			"componentType":5126,
			"count":6595,
			"max":[
				1.9677858352661133,
				4.8488850593566895,
				2.1791493892669678
			],
			"min":[
				-1.9677858352661133,
				-2.1501989364624023,
				-2.1791493892669678
			],
			"type":"VEC3"
		},
		{
			"bufferView":1,
			"componentType":5126,
			"count":6595,
			"type":"VEC2"
		},
		{
			"bufferView":2,
			"componentType":5126,
			"count":6595,
			"type":"VEC3"
		},
		{
			"bufferView":3,
			"componentType":5121,
			"count":6595,
			"type":"VEC4"
		},
		{
			"bufferView":4,
			"componentType":5126,
			"count":6595,
			"type":"VEC4"
		},
		{
			"bufferView":5,
			"componentType":5123,
			"count":11856,
			"type":"SCALAR"
		},
		{
			"bufferView":6,
			"componentType":5126,
			"count":2,
			"type":"MAT4"
		},
		{
			"bufferView":7,
			"componentType":5126,
			"count":12,
			"max":[
				0.5
			],
			"min":[
				0.041666666666666664
			],
			"type":"SCALAR"
		},
		{
			"bufferView":8,
			"componentType":5126,
			"count":12,
			"type":"VEC3"
		},
		{
			"bufferView":9,
			"componentType":5126,
			"count":12,
			"type":"VEC4"
		},
		{
			"bufferView":10,
			"componentType":5126,
			"count":12,
			"type":"VEC3"
		}
	],
	"bufferViews":[
		{
			"buffer":0,
			"byteLength":79140,
			"byteOffset":0,
			"target":34962
		},
		{
			"buffer":0,
			"byteLength":52760,
			"byteOffset":79140,
			"target":34962
		},
		{
			"buffer":0,
			"byteLength":79140,
			"byteOffset":131900,
			"target":34962
		},
		{
			"buffer":0,
			"byteLength":26380,
			"byteOffset":211040,
			"target":34962
		},
		{
			"buffer":0,
			"byteLength":105520,
			"byteOffset":237420,
			"target":34962
		},
		{
			"buffer":0,
			"byteLength":23712,
			"byteOffset":342940,
			"target":34963
		},
		{
			"buffer":0,
			"byteLength":128,
			"byteOffset":366652
		},
		{
			"buffer":0,
			"byteLength":48,
			"byteOffset":366780
		},
		{
			"buffer":0,
			"byteLength":144,
			"byteOffset":366828
		},
		{
			"buffer":0,
			"byteLength":192,
			"byteOffset":366972
		},
		{
			"buffer":0,
			"byteLength":144,
			"byteOffset":367164
		}
	],
	"samplers":[
		{
			"magFilter":9729,
			"minFilter":9987
		}
	],
	"buffers":[
		{
			"byteLength":367308,
			"uri":"Gatling.bin"
		}
	]
}
