{
	"asset":{
		"generator":"Khronos glTF Blender I/O v3.5.30",
		"version":"2.0"
	},
	"scene":0,
	"scenes":[
		{
			"name":"Scene",
			"nodes":[
				3
			]
		}
	],
	"nodes":[
		{
			"name":"Bone"
		},
		{
			"mesh":0,
			"name":"\u5186\u67f1.008",
			"skin":0
		},
		{
			"children":[
				1,
				0
			],
			"name":"\u30ac\u30c8\u30ea\u30f3\u30b0\u9aa8",
			"scale":[
				4.0333452224731445,
				4.0333452224731445,
				4.0333452224731445
			],
			"translation":[
				0,
				1.1754769086837769,
				0
			]
		},
		{
			"children":[
				2
			],
			"mesh":1,
			"name":"\u7acb\u65b9\u4f53.001",
			"translation":[
				0,
				-0.017129063606262207,
				0
			]
		}
	],
	"animations":[
		{
			"channels":[
				{
					"sampler":0,
					"target":{
						"node":0,
						"path":"translation"
					}
				},
				{
					"sampler":1,
					"target":{
						"node":0,
						"path":"rotation"
					}
				},
				{
					"sampler":2,
					"target":{
						"node":0,
						"path":"scale"
					}
				},
				{
					"sampler":3,
					"target":{
						"node":2,
						"path":"rotation"
					}
				}
			],
			"name":"gatling",
			"samplers":[
				{
					"input":21,
					"interpolation":"LINEAR",
					"output":22
				},
				{
					"input":21,
					"interpolation":"LINEAR",
					"output":23
				},
				{
					"input":21,
					"interpolation":"LINEAR",
					"output":24
				},
				{
					"input":21,
					"interpolation":"LINEAR",
					"output":25
				}
			]
		}
	],
	"materials":[
		{
			"doubleSided":true,
			"name":"\u30de\u30c6\u30ea\u30a2\u30eb",
			"pbrMetallicRoughness":{
				"baseColorTexture":{
					"index":0
				},
				"metallicFactor":0,
				"roughnessFactor":0.5
			}
		}
	],
	"meshes":[
		{
			"name":"\u5186\u67f1.014",
			"primitives":[
				{
					"attributes":{
						"POSITION":0,
						"TEXCOORD_0":1,
						"NORMAL":2,
						"JOINTS_0":3,
						"WEIGHTS_0":4
					},
					"indices":5,
					"material":0
				},
				{
					"attributes":{
						"POSITION":6,
						"TEXCOORD_0":7,
						"NORMAL":8,
						"JOINTS_0":9,
						"WEIGHTS_0":10
					},
					"indices":11,
					"material":0
				}
			]
		},
		{
			"name":"\u7acb\u65b9\u4f53.005",
			"primitives":[
				{
					"attributes":{
						"POSITION":13,
						"TEXCOORD_0":14,
						"NORMAL":15
					},
					"indices":16,
					"material":0
				},
				{
					"attributes":{
						"POSITION":17,
						"TEXCOORD_0":18,
						"NORMAL":19
					},
					"indices":20,
					"material":0
				}
			]
		}
	],
	"textures":[
		{
			"sampler":0,
			"source":0
		}
	],
	"images":[
		{
			"mimeType":"image/png",
			"name":"gimmick",
			"uri":"gimmick.png"
		}
	],
	"skins":[
		{
			"inverseBindMatrices":12,
			"joints":[
				0
			],
			"name":"\u30ac\u30c8\u30ea\u30f3\u30b0\u9aa8"
		}
	],
	"accessors":[
		{
			"bufferView":0,
			"componentType":5126,
			"count":456,
			"max":[
				0.805347204208374,
				1.247583270072937,
				0.805347204208374
			],
			"min":[
				-0.805347204208374,
				-0.015274666249752045,
				-0.805347204208374
			],
			"type":"VEC3"
		},
		{
			"bufferView":1,
			"componentType":5126,
			"count":456,
			"type":"VEC2"
		},
		{
			"bufferView":2,
			"componentType":5126,
			"count":456,
			"type":"VEC3"
		},
		{
			"bufferView":3,
			"componentType":5121,
			"count":456,
			"type":"VEC4"
		},
		{
			"bufferView":4,
			"componentType":5126,
			"count":456,
			"type":"VEC4"
		},
		{
			"bufferView":5,
			"componentType":5123,
			"count":1212,
			"type":"SCALAR"
		},
		{
			"bufferView":6,
			"componentType":5126,
			"count":4311,
			"max":[
				0.8053473234176636,
				4.831756591796875,
				0.8053473830223083
			],
			"min":[
				-0.8053473234176636,
				-0.11682398617267609,
				-0.805347204208374
			],
			"type":"VEC3"
		},
		{
			"bufferView":7,
			"componentType":5126,
			"count":4311,
			"type":"VEC2"
		},
		{
			"bufferView":8,
			"componentType":5126,
			"count":4311,
			"type":"VEC3"
		},
		{
			"bufferView":9,
			"componentType":5121,
			"count":4311,
			"type":"VEC4"
		},
		{
			"bufferView":10,
			"componentType":5126,
			"count":4311,
			"type":"VEC4"
		},
		{
			"bufferView":11,
			"componentType":5123,
			"count":7848,
			"type":"SCALAR"
		},
		{
			"bufferView":12,
			"componentType":5126,
			"count":1,
			"type":"MAT4"
		},
		{
			"bufferView":13,
			"componentType":5126,
			"count":928,
			"max":[
				2.167328119277954,
				2.184457302093506,
				1
			],
			"min":[
				-2.167328119277954,
				-2.1501989364624023,
				-1.954592227935791
			],
			"type":"VEC3"
		},
		{
			"bufferView":14,
			"componentType":5126,
			"count":928,
			"type":"VEC2"
		},
		{
			"bufferView":15,
			"componentType":5126,
			"count":928,
			"type":"VEC3"
		},
		{
			"bufferView":16,
			"componentType":5123,
			"count":1464,
			"type":"SCALAR"
		},
		{
			"bufferView":17,
			"componentType":5126,
			"count":832,
			"max":[
				2.167328119277954,
				2.184457302093506,
				1.9545924663543701
			],
			"min":[
				-2.167328119277954,
				-2.1501989364624023,
				1.045407772064209
			],
			"type":"VEC3"
		},
		{
			"bufferView":18,
			"componentType":5126,
			"count":832,
			"type":"VEC2"
		},
		{
			"bufferView":19,
			"componentType":5126,
			"count":832,
			"type":"VEC3"
		},
		{
			"bufferView":20,
			"componentType":5123,
			"count":1332,
			"type":"SCALAR"
		},
		{
			"bufferView":21,
			"componentType":5126,
			"count":61,
			"max":[
				2.5
			],
			"min":[
				0
			],
			"type":"SCALAR"
		},
		{
			"bufferView":22,
			"componentType":5126,
			"count":61,
			"type":"VEC3"
		},
		{
			"bufferView":23,
			"componentType":5126,
			"count":61,
			"type":"VEC4"
		},
		{
			"bufferView":24,
			"componentType":5126,
			"count":61,
			"type":"VEC3"
		},
		{
			"bufferView":25,
			"componentType":5126,
			"count":61,
			"type":"VEC4"
		}
	],
	"bufferViews":[
		{
			"buffer":0,
			"byteLength":5472,
			"byteOffset":0,
			"target":34962
		},
		{
			"buffer":0,
			"byteLength":3648,
			"byteOffset":5472,
			"target":34962
		},
		{
			"buffer":0,
			"byteLength":5472,
			"byteOffset":9120,
			"target":34962
		},
		{
			"buffer":0,
			"byteLength":1824,
			"byteOffset":14592,
			"target":34962
		},
		{
			"buffer":0,
			"byteLength":7296,
			"byteOffset":16416,
			"target":34962
		},
		{
			"buffer":0,
			"byteLength":2424,
			"byteOffset":23712,
			"target":34963
		},
		{
			"buffer":0,
			"byteLength":51732,
			"byteOffset":26136,
			"target":34962
		},
		{
			"buffer":0,
			"byteLength":34488,
			"byteOffset":77868,
			"target":34962
		},
		{
			"buffer":0,
			"byteLength":51732,
			"byteOffset":112356,
			"target":34962
		},
		{
			"buffer":0,
			"byteLength":17244,
			"byteOffset":164088,
			"target":34962
		},
		{
			"buffer":0,
			"byteLength":68976,
			"byteOffset":181332,
			"target":34962
		},
		{
			"buffer":0,
			"byteLength":15696,
			"byteOffset":250308,
			"target":34963
		},
		{
			"buffer":0,
			"byteLength":64,
			"byteOffset":266004
		},
		{
			"buffer":0,
			"byteLength":11136,
			"byteOffset":266068,
			"target":34962
		},
		{
			"buffer":0,
			"byteLength":7424,
			"byteOffset":277204,
			"target":34962
		},
		{
			"buffer":0,
			"byteLength":11136,
			"byteOffset":284628,
			"target":34962
		},
		{
			"buffer":0,
			"byteLength":2928,
			"byteOffset":295764,
			"target":34963
		},
		{
			"buffer":0,
			"byteLength":9984,
			"byteOffset":298692,
			"target":34962
		},
		{
			"buffer":0,
			"byteLength":6656,
			"byteOffset":308676,
			"target":34962
		},
		{
			"buffer":0,
			"byteLength":9984,
			"byteOffset":315332,
			"target":34962
		},
		{
			"buffer":0,
			"byteLength":2664,
			"byteOffset":325316,
			"target":34963
		},
		{
			"buffer":0,
			"byteLength":244,
			"byteOffset":327980
		},
		{
			"buffer":0,
			"byteLength":732,
			"byteOffset":328224
		},
		{
			"buffer":0,
			"byteLength":976,
			"byteOffset":328956
		},
		{
			"buffer":0,
			"byteLength":732,
			"byteOffset":329932
		},
		{
			"buffer":0,
			"byteLength":976,
			"byteOffset":330664
		}
	],
	"samplers":[
		{
			"magFilter":9729,
			"minFilter":9987
		}
	],
	"buffers":[
		{
			"byteLength":331640,
			"uri":"Gatling.bin"
		}
	]
}
