{
	"asset":{
		"generator":"Khronos glTF Blender I/O v3.5.30",
		"version":"2.0"
	},
	"scene":0,
	"scenes":[
		{
			"name":"Scene",
			"nodes":[
				3
			]
		}
	],
	"nodes":[
		{
			"name":"Bone",
			"rotation":[
				-0.7071067690849304,
				0,
				0,
				0.7071067690849304
			]
		},
		{
			"mesh":0,
			"name":"\u5186\u67f1.008",
			"skin":0
		},
		{
			"children":[
				1,
				0
			],
			"name":"\u30ac\u30c8\u30ea\u30f3\u30b0\u9aa8",
			"scale":[
				4.0333452224731445,
				4.0333452224731445,
				4.0333452224731445
			],
			"translation":[
				0,
				1.1754769086837769,
				0
			]
		},
		{
			"children":[
				2
			],
			"mesh":1,
			"name":"\u7acb\u65b9\u4f53.001",
			"translation":[
				0,
				-0.017129063606262207,
				0
			]
		}
	],
	"animations":[
		{
			"channels":[
				{
					"sampler":0,
					"target":{
						"node":0,
						"path":"translation"
					}
				},
				{
					"sampler":1,
					"target":{
						"node":0,
						"path":"rotation"
					}
				},
				{
					"sampler":2,
					"target":{
						"node":0,
						"path":"scale"
					}
				},
				{
					"sampler":3,
					"target":{
						"node":2,
						"path":"rotation"
					}
				}
			],
			"name":"gatling",
			"samplers":[
				{
					"input":11,
					"interpolation":"LINEAR",
					"output":12
				},
				{
					"input":11,
					"interpolation":"LINEAR",
					"output":13
				},
				{
					"input":11,
					"interpolation":"LINEAR",
					"output":14
				},
				{
					"input":11,
					"interpolation":"LINEAR",
					"output":15
				}
			]
		}
	],
	"materials":[
		{
			"doubleSided":true,
			"name":"\u30de\u30c6\u30ea\u30a2\u30eb",
			"pbrMetallicRoughness":{
				"baseColorTexture":{
					"index":0
				},
				"metallicFactor":0,
				"roughnessFactor":0.5
			}
		}
	],
	"meshes":[
		{
			"name":"\u5186\u67f1.014",
			"primitives":[
				{
					"attributes":{
						"POSITION":0,
						"TEXCOORD_0":1,
						"NORMAL":2,
						"JOINTS_0":3,
						"WEIGHTS_0":4
					},
					"indices":5,
					"material":0
				}
			]
		},
		{
			"name":"\u7acb\u65b9\u4f53.005",
			"primitives":[
				{
					"attributes":{
						"POSITION":7,
						"TEXCOORD_0":8,
						"NORMAL":9
					},
					"indices":10,
					"material":0
				}
			]
		}
	],
	"textures":[
		{
			"sampler":0,
			"source":0
		}
	],
	"images":[
		{
			"mimeType":"image/png",
			"name":"gimmick",
			"uri":"gimmick.png"
		}
	],
	"skins":[
		{
			"inverseBindMatrices":6,
			"joints":[
				0
			],
			"name":"\u30ac\u30c8\u30ea\u30f3\u30b0\u9aa8"
		}
	],
	"accessors":[
		{
			"bufferView":0,
			"componentType":5126,
			"count":4793,
			"max":[
				0.8053473234176636,
				4.831756591796875,
				0.8053473830223083
			],
			"min":[
				-0.8053473234176636,
				-0.11682397872209549,
				-0.805347204208374
			],
			"type":"VEC3"
		},
		{
			"bufferView":1,
			"componentType":5126,
			"count":4793,
			"type":"VEC2"
		},
		{
			"bufferView":2,
			"componentType":5126,
			"count":4793,
			"type":"VEC3"
		},
		{
			"bufferView":3,
			"componentType":5121,
			"count":4793,
			"type":"VEC4"
		},
		{
			"bufferView":4,
			"componentType":5126,
			"count":4793,
			"type":"VEC4"
		},
		{
			"bufferView":5,
			"componentType":5123,
			"count":9060,
			"type":"SCALAR"
		},
		{
			"bufferView":6,
			"componentType":5126,
			"count":1,
			"type":"MAT4"
		},
		{
			"bufferView":7,
			"componentType":5126,
			"count":1760,
			"max":[
				2.167328119277954,
				2.184457302093506,
				1.9545924663543701
			],
			"min":[
				-2.167328119277954,
				-2.1501989364624023,
				-1.954592227935791
			],
			"type":"VEC3"
		},
		{
			"bufferView":8,
			"componentType":5126,
			"count":1760,
			"type":"VEC2"
		},
		{
			"bufferView":9,
			"componentType":5126,
			"count":1760,
			"type":"VEC3"
		},
		{
			"bufferView":10,
			"componentType":5123,
			"count":2796,
			"type":"SCALAR"
		},
		{
			"bufferView":11,
			"componentType":5126,
			"count":61,
			"max":[
				2.5
			],
			"min":[
				0
			],
			"type":"SCALAR"
		},
		{
			"bufferView":12,
			"componentType":5126,
			"count":61,
			"type":"VEC3"
		},
		{
			"bufferView":13,
			"componentType":5126,
			"count":61,
			"type":"VEC4"
		},
		{
			"bufferView":14,
			"componentType":5126,
			"count":61,
			"type":"VEC3"
		},
		{
			"bufferView":15,
			"componentType":5126,
			"count":61,
			"type":"VEC4"
		}
	],
	"bufferViews":[
		{
			"buffer":0,
			"byteLength":57516,
			"byteOffset":0,
			"target":34962
		},
		{
			"buffer":0,
			"byteLength":38344,
			"byteOffset":57516,
			"target":34962
		},
		{
			"buffer":0,
			"byteLength":57516,
			"byteOffset":95860,
			"target":34962
		},
		{
			"buffer":0,
			"byteLength":19172,
			"byteOffset":153376,
			"target":34962
		},
		{
			"buffer":0,
			"byteLength":76688,
			"byteOffset":172548,
			"target":34962
		},
		{
			"buffer":0,
			"byteLength":18120,
			"byteOffset":249236,
			"target":34963
		},
		{
			"buffer":0,
			"byteLength":64,
			"byteOffset":267356
		},
		{
			"buffer":0,
			"byteLength":21120,
			"byteOffset":267420,
			"target":34962
		},
		{
			"buffer":0,
			"byteLength":14080,
			"byteOffset":288540,
			"target":34962
		},
		{
			"buffer":0,
			"byteLength":21120,
			"byteOffset":302620,
			"target":34962
		},
		{
			"buffer":0,
			"byteLength":5592,
			"byteOffset":323740,
			"target":34963
		},
		{
			"buffer":0,
			"byteLength":244,
			"byteOffset":329332
		},
		{
			"buffer":0,
			"byteLength":732,
			"byteOffset":329576
		},
		{
			"buffer":0,
			"byteLength":976,
			"byteOffset":330308
		},
		{
			"buffer":0,
			"byteLength":732,
			"byteOffset":331284
		},
		{
			"buffer":0,
			"byteLength":976,
			"byteOffset":332016
		}
	],
	"samplers":[
		{
			"magFilter":9729,
			"minFilter":9987
		}
	],
	"buffers":[
		{
			"byteLength":332992,
			"uri":"Gatling.bin"
		}
	]
}
